{"glyphs":{"1":{"ha":688,"x_min":6,"x_max":684,"o":"m 562 688 q 683 553 682 656 l 684 141 q 570 12 669 30 l 115 14 q 6 121 31 14 l 7 568 q 121 687 31 682 l 562 688 m 224 620 l 230 620 q 396 541 326 620 l 405 526 l 402 526 q 245 579 338 579 q 149 546 177 572 q 121 487 121 520 q 136 429 121 454 l 136 422 l 133 422 q 107 450 123 424 q 86 508 92 476 q 111 577 81 541 q 224 620 140 614 m 554 321 q 578 319 567 323 l 592 314 q 610 304 606 306 l 620 294 q 613 286 627 280 q 526 300 582 304 l 481 296 q 433 288 438 288 q 448 294 433 290 l 497 312 q 554 321 547 324 m 459 405 q 496 407 469 407 q 565 378 545 406 l 541 389 q 458 404 507 402 l 459 405 m 102 339 q 110 340 102 339 q 186 345 117 340 l 208 345 q 284 370 257 345 q 286 399 311 396 q 274 435 274 411 q 333 479 285 479 q 380 432 380 460 l 380 404 q 205 317 347 317 q 119 329 165 317 q 102 339 86 339 m 99 334 q 141 313 106 328 q 239 298 176 298 q 414 366 359 298 q 427 413 427 387 q 330 513 408 513 l 308 513 q 224 448 255 513 l 224 420 q 249 385 232 403 q 239 382 243 382 q 174 448 174 395 q 274 541 174 512 l 317 541 q 446 460 396 541 q 458 422 458 439 l 458 404 l 496 398 l 532 389 q 627 310 579 373 l 629 307 q 621 300 637 283 q 593 318 609 310 l 581 323 q 557 328 566 328 q 532 326 541 327 q 503 317 524 324 l 466 305 q 438 297 453 302 l 426 292 q 317 269 374 269 q 249 272 281 272 l 230 272 q 104 323 143 288 l 98 330 q 99 334 82 347 m 80 473 l 86 473 q 92 460 86 468 l 92 451 q 86 445 92 445 q 77 463 77 448 q 80 473 80 469 m 115 422 q 155 395 115 413 l 155 385 q 146 379 155 379 q 108 420 119 379 l 115 422 m 141 656 q 37 549 58 652 l 36 141 q 136 43 59 43 l 550 42 q 653 159 640 58 l 652 535 q 542 658 651 628 l 141 656 m 197 115 l 197 103 q 184 104 192 104 q 178 86 183 90 q 163 82 174 83 q 158 94 161 87 q 170 95 168 94 q 174 104 173 97 l 113 104 q 116 142 115 123 q 102 142 109 142 l 102 153 l 117 153 q 119 186 118 176 q 107 171 115 182 q 98 179 103 176 q 116 204 109 189 q 126 231 123 218 q 140 225 134 227 q 132 213 137 222 l 178 213 q 199 214 190 213 l 199 202 q 177 203 190 203 l 128 203 q 119 188 123 195 l 188 188 q 186 153 187 173 l 202 153 l 202 142 q 186 142 194 142 q 185 114 185 134 q 197 115 189 114 m 176 142 l 126 142 q 124 114 125 125 l 175 114 l 176 142 m 128 178 q 127 153 128 170 l 176 153 q 177 178 176 166 l 128 178 m 71 87 q 58 94 68 91 q 73 119 66 104 q 85 145 79 133 q 95 137 89 140 q 85 118 91 132 q 71 87 79 104 m 57 176 q 64 186 62 180 q 94 165 75 179 q 86 155 89 160 q 57 176 69 169 m 102 207 q 94 197 97 201 q 64 216 79 208 q 71 226 69 222 q 102 207 83 219 m 159 121 q 151 116 155 119 q 140 134 146 126 q 149 140 144 137 q 159 121 155 130 m 160 159 q 151 153 155 157 q 142 171 148 161 l 150 177 q 160 159 157 167 m 309 203 q 318 233 316 222 q 334 228 326 230 q 320 203 329 224 q 350 203 336 203 l 350 191 q 323 191 333 191 l 307 191 l 307 167 l 324 167 q 345 168 334 167 l 345 155 q 323 156 332 156 l 307 156 l 307 132 l 328 132 q 353 132 337 132 l 353 120 q 328 121 336 121 l 307 121 l 307 106 q 307 83 307 94 l 293 83 q 294 105 294 94 l 294 121 l 276 121 q 249 120 264 121 l 249 132 q 277 132 264 132 l 294 132 l 294 156 l 281 156 q 257 155 270 156 l 257 168 q 281 167 271 167 l 294 167 l 294 191 l 276 191 q 254 191 264 191 l 254 204 q 276 203 264 203 l 309 203 m 220 86 q 205 95 213 92 q 218 116 211 101 q 228 144 224 131 q 241 136 235 139 q 230 114 236 131 q 220 86 224 98 m 240 170 q 231 159 234 165 q 204 174 219 167 q 212 185 209 179 q 240 170 226 178 m 244 211 q 235 201 239 207 q 212 220 224 212 q 220 230 215 223 q 244 211 232 221 m 290 212 q 277 205 283 208 q 265 228 273 216 q 277 233 269 231 q 290 212 281 225 m 428 136 q 418 117 424 126 q 406 102 413 109 q 390 91 398 96 q 369 81 381 85 q 358 92 366 86 q 388 104 375 96 q 408 124 401 113 q 417 150 414 136 q 419 180 420 163 q 435 179 427 180 q 434 157 432 168 q 443 134 435 147 q 463 110 450 121 q 498 94 476 100 q 489 81 492 87 q 454 101 473 85 q 428 136 435 117 m 493 170 l 479 170 l 479 190 l 376 190 l 376 169 l 361 169 q 362 184 362 180 q 361 201 362 190 l 493 201 l 493 170 m 381 125 q 369 130 375 128 q 376 146 373 138 q 383 167 380 154 q 396 163 388 164 q 381 125 393 153 m 467 125 q 456 131 461 129 q 471 165 467 147 q 484 159 477 161 q 467 125 479 147 m 413 224 q 425 230 420 227 q 437 208 431 222 q 423 203 429 205 q 413 224 420 215 m 559 184 q 559 195 559 187 l 574 195 q 573 184 573 188 l 589 184 q 616 185 605 184 l 616 174 q 589 174 606 174 l 573 174 l 573 164 l 596 164 q 613 165 602 164 l 613 153 q 595 154 602 154 l 573 154 l 573 144 l 610 144 q 633 145 621 144 l 633 134 q 610 135 621 135 l 573 135 l 573 123 l 616 123 q 615 101 615 112 q 616 79 615 91 l 602 79 l 602 85 l 532 85 l 532 77 l 519 77 q 519 100 519 90 q 519 123 519 112 l 559 123 l 559 135 l 522 135 q 500 134 513 135 l 500 145 q 522 144 511 144 l 559 144 l 559 154 l 539 154 q 518 153 530 154 l 518 165 q 539 164 530 164 l 559 164 l 559 174 l 543 174 q 517 174 528 174 l 517 185 q 543 184 529 184 l 559 184 m 571 225 q 575 210 573 219 l 634 210 q 633 193 633 200 q 634 182 633 187 l 620 182 l 620 199 l 514 199 l 514 183 l 500 183 q 501 193 501 186 q 500 210 501 200 l 559 210 q 557 223 558 217 q 571 225 563 224 m 602 96 l 602 113 l 532 113 l 532 96 l 602 96 z "},"2":{"ha":688,"x_min":6,"x_max":684,"o":"m 562 743 q 683 608 682 710 l 684 195 q 570 66 669 84 l 115 68 q 6 175 31 68 l 7 623 q 121 741 31 736 l 562 743 m 141 711 q 37 603 58 707 l 36 195 q 136 98 59 98 l 550 96 q 653 214 640 113 l 652 589 q 542 712 651 682 l 141 711 m 489 135 q 454 155 473 140 q 428 191 435 171 q 418 172 424 180 q 406 156 413 163 q 390 145 398 150 q 369 135 381 140 q 358 146 366 140 q 388 158 375 150 q 408 178 401 167 q 417 204 414 190 q 419 235 420 218 q 435 233 427 234 q 434 212 432 222 q 443 188 435 201 q 463 164 450 175 q 498 148 476 154 q 489 135 492 142 m 493 256 q 493 238 493 243 q 493 224 493 235 l 479 224 l 479 244 l 376 244 l 376 223 l 361 223 q 362 239 362 234 q 361 256 362 244 l 493 256 m 396 217 q 381 180 393 208 q 369 184 375 182 q 376 200 373 192 q 383 221 380 208 q 396 217 388 218 m 484 214 q 467 180 479 201 q 456 185 461 183 q 471 219 467 201 q 484 214 477 215 m 423 257 q 413 279 420 269 q 425 284 420 281 q 437 262 431 277 q 423 257 429 260 m 559 239 q 559 250 559 241 l 574 250 q 573 239 573 242 l 589 239 q 616 239 605 239 l 616 228 q 589 229 606 229 l 573 229 l 573 218 l 596 218 q 613 219 602 218 l 613 208 q 595 208 602 208 l 573 208 l 573 199 l 610 199 q 633 199 621 199 l 633 189 q 610 189 621 189 l 573 189 l 573 178 l 616 178 q 615 155 615 166 q 616 134 615 145 l 602 134 l 602 139 l 532 139 l 532 132 l 519 132 q 519 155 519 144 q 519 178 519 166 l 559 178 l 559 189 l 522 189 q 500 189 513 189 l 500 199 q 522 199 511 199 l 559 199 l 559 208 l 539 208 q 518 208 530 208 l 518 219 q 539 218 530 218 l 559 218 l 559 229 l 543 229 q 517 228 528 229 l 517 239 q 543 239 529 239 l 559 239 m 557 277 q 571 279 563 278 q 575 264 573 273 l 634 264 q 633 248 633 254 q 634 236 633 241 l 620 236 l 620 253 l 514 253 l 514 237 l 500 237 q 501 247 501 240 q 500 264 501 254 l 559 264 q 557 277 558 271 m 602 150 l 602 168 l 532 168 l 532 150 l 602 150 m 35 626 q 83 603 58 610 q 127 588 105 590 q 195 590 157 585 q 339 630 254 602 q 422 630 383 640 q 511 596 471 616 q 566 582 538 582 q 647 581 618 580 q 659 585 654 583 l 659 564 q 648 559 654 559 q 568 557 606 557 q 501 568 536 557 q 420 606 467 593 q 340 608 382 614 q 195 565 254 576 q 126 563 156 562 q 79 579 100 568 q 35 602 56 590 l 35 626 m 35 572 q 83 548 58 556 q 127 534 105 536 q 195 535 157 530 q 339 576 254 547 q 422 575 383 585 q 511 542 471 561 q 566 528 538 528 q 647 527 618 526 q 659 531 654 528 l 659 510 q 648 505 654 505 q 568 503 606 503 q 501 513 536 502 q 420 551 467 538 q 340 554 382 559 q 195 511 254 521 q 126 509 156 508 q 79 524 100 513 q 35 547 56 535 l 35 572 m 35 517 q 83 494 58 501 q 127 479 105 481 q 195 481 157 475 q 339 521 254 493 q 422 521 383 530 q 511 487 471 507 q 566 473 538 473 q 647 472 618 471 q 659 476 654 473 l 659 455 q 648 450 654 450 q 568 448 606 448 q 501 458 536 448 q 420 496 467 484 q 340 499 382 504 q 195 456 254 467 q 126 454 156 453 q 79 470 100 458 q 35 492 56 480 l 35 517 m 35 463 q 83 439 58 447 q 127 425 105 427 q 195 426 157 420 q 339 467 254 438 q 422 466 383 475 q 511 432 471 452 q 566 418 538 418 q 647 418 618 416 q 659 422 654 419 l 659 401 q 648 395 654 396 q 568 394 606 393 q 501 404 536 393 q 420 441 467 429 q 340 444 382 450 q 195 401 254 412 q 126 399 156 399 q 79 415 100 404 q 35 438 56 426 l 35 463 m 35 408 q 83 384 58 392 q 127 370 105 372 q 195 372 157 366 q 339 412 254 384 q 422 411 383 421 q 511 378 471 397 q 566 363 538 363 q 647 363 618 361 q 659 367 654 364 l 659 346 q 648 341 654 341 q 568 339 606 339 q 501 349 536 338 q 420 387 467 374 q 340 390 382 395 q 195 347 254 357 q 126 345 156 344 q 79 361 100 349 q 35 383 56 371 l 35 408 m 130 288 q 129 270 130 278 q 131 251 129 262 q 142 224 132 240 q 174 259 168 247 q 186 247 180 252 q 170 234 178 241 q 148 214 162 227 q 166 190 153 203 q 199 171 180 177 q 186 158 189 166 q 149 191 162 173 q 129 227 136 209 l 129 155 q 122 143 130 146 q 102 138 115 139 q 97 153 102 144 q 112 153 107 151 q 116 161 116 154 l 116 262 q 115 288 116 278 l 130 288 m 106 247 q 98 215 103 229 q 85 188 94 201 q 60 157 77 175 q 47 167 56 163 q 75 196 64 179 q 91 235 86 213 l 74 235 q 52 234 64 235 l 52 248 q 73 247 64 247 l 106 247 m 331 279 q 330 254 330 273 q 331 224 330 235 l 224 224 q 225 252 225 233 q 224 279 225 273 l 331 279 m 313 210 q 338 211 324 210 l 338 199 q 313 200 324 200 l 285 200 l 285 182 l 330 182 q 355 182 342 182 l 355 171 q 330 172 342 172 l 285 172 q 286 135 285 149 l 271 135 q 272 172 272 149 l 231 172 q 203 171 216 172 l 203 183 q 231 182 217 182 l 272 182 l 272 200 l 248 200 q 220 199 234 200 l 220 211 q 248 210 234 210 l 313 210 m 317 257 l 317 269 l 238 269 l 238 257 l 317 257 m 317 235 l 317 246 l 238 246 l 238 235 l 317 235 z "},"3":{"ha":688,"x_min":5,"x_max":683,"o":"m 561 676 q 682 541 681 644 l 683 129 q 570 0 669 18 l 115 1 q 5 109 31 1 l 6 556 q 121 675 30 670 l 561 676 m 176 404 q 316 436 220 457 q 381 396 353 424 q 462 362 434 394 q 477 271 489 320 q 361 230 435 216 q 280 207 311 202 q 197 226 227 206 q 111 229 161 214 q 65 316 57 251 q 176 404 86 403 m 142 648 q 37 541 59 644 l 37 133 q 136 35 60 35 l 551 34 q 654 151 641 50 l 653 527 q 543 650 652 620 l 142 648 m 423 116 q 414 97 419 106 q 401 82 408 88 q 385 70 393 75 q 364 60 376 65 q 353 71 361 66 q 383 84 370 75 q 403 104 396 92 q 413 129 410 115 q 414 160 416 143 q 431 159 422 159 q 429 137 427 147 q 438 114 431 127 q 458 90 445 100 q 494 73 471 79 q 484 60 487 67 q 449 81 468 65 q 423 116 431 96 m 488 150 l 475 150 l 475 170 l 371 170 l 371 149 l 357 149 q 357 164 357 159 q 357 181 357 170 l 488 181 l 488 150 m 376 105 q 364 109 370 108 q 372 125 368 117 q 378 146 375 134 q 391 142 383 144 q 376 105 388 133 m 462 105 q 451 111 456 109 q 466 144 462 127 q 479 139 472 140 q 462 105 474 127 m 408 204 q 420 210 416 206 q 432 187 426 202 q 418 182 425 185 q 408 204 415 195 m 555 166 q 554 177 555 169 l 569 177 q 568 166 568 170 l 585 166 q 611 167 600 166 l 611 155 q 584 156 601 156 l 568 156 l 568 146 l 591 146 q 608 146 597 146 l 608 135 q 591 136 597 136 l 568 136 l 568 126 l 606 126 q 628 127 616 126 l 628 116 q 606 117 616 117 l 568 117 l 568 105 l 611 105 q 610 83 610 94 q 611 61 610 73 l 597 61 l 597 66 l 528 66 l 528 59 l 514 59 q 515 82 515 71 q 514 105 515 94 l 555 105 l 555 117 l 517 117 q 495 116 508 117 l 495 127 q 517 126 506 126 l 555 126 l 555 136 l 534 136 q 513 135 525 136 l 513 146 q 534 146 526 146 l 555 146 l 555 156 l 538 156 q 512 155 523 156 l 512 167 q 538 166 524 166 l 555 166 m 566 207 q 570 191 568 201 l 629 191 q 629 175 629 182 q 629 163 629 169 l 615 163 l 615 180 l 509 180 l 509 165 l 496 165 q 496 174 496 168 q 496 191 496 182 l 555 191 q 552 205 553 199 q 566 207 558 205 m 597 77 l 597 95 l 528 95 l 528 77 l 597 77 m 232 589 l 252 589 q 254 586 254 588 l 254 541 q 252 538 254 538 l 232 538 q 229 540 229 538 l 229 586 q 232 589 230 589 m 66 456 l 66 476 q 69 478 67 478 l 115 478 q 117 476 117 479 l 117 456 q 115 454 117 454 l 69 454 q 66 456 66 454 m 374 457 l 374 477 q 376 479 374 479 l 422 479 q 425 477 424 480 l 425 457 q 422 455 425 455 l 376 455 q 374 457 374 455 m 157 537 q 157 534 158 535 l 143 519 q 138 519 140 517 l 102 553 q 102 556 100 554 l 117 570 q 121 570 118 572 l 157 537 m 354 578 q 359 578 358 581 l 374 565 q 374 562 375 563 l 338 528 q 332 528 335 526 l 319 543 q 318 546 318 544 l 354 578 m 239 488 q 197 470 214 488 q 179 429 179 453 q 197 387 179 404 q 239 370 214 370 q 281 387 264 370 q 299 429 299 404 q 281 470 299 453 q 239 488 264 488 m 241 510 q 304 485 279 508 q 328 427 328 461 q 302 368 328 392 q 241 343 277 343 q 178 368 204 343 q 153 427 153 392 q 178 485 153 461 q 241 510 204 509 m 184 90 q 167 63 176 64 q 152 71 158 61 q 143 94 146 81 q 142 132 140 107 l 73 132 q 52 131 62 132 l 52 142 q 73 142 62 142 l 155 142 q 154 112 154 122 q 157 93 155 101 q 163 80 160 84 q 172 100 167 75 q 184 90 180 92 m 87 205 q 79 192 84 199 l 149 192 q 170 193 160 192 l 170 181 q 149 182 160 182 l 75 182 q 65 166 71 176 q 52 149 58 156 q 39 156 47 155 q 58 180 47 163 q 73 210 69 197 q 87 205 80 207 m 138 168 q 158 168 148 168 l 158 157 q 138 157 148 157 l 92 157 q 71 157 81 157 l 71 168 q 92 168 81 167 l 138 168 m 258 137 q 267 127 264 131 q 276 116 271 123 q 291 124 285 120 q 305 138 298 129 q 317 128 310 132 q 298 115 311 126 q 317 91 309 96 q 340 83 325 86 q 331 70 334 79 q 301 90 311 78 q 289 111 292 102 q 281 106 286 110 q 282 79 284 88 q 273 66 280 70 q 252 61 267 63 q 248 75 250 68 q 269 79 265 74 q 271 99 272 85 q 248 84 257 89 q 229 75 238 79 q 205 66 219 71 q 197 76 203 70 q 219 82 209 79 q 242 92 229 85 q 267 110 256 100 q 261 118 263 114 q 243 104 254 111 q 223 95 233 98 q 205 88 214 92 q 196 100 203 94 q 224 106 214 102 q 240 115 233 110 q 255 125 248 119 q 250 130 253 128 q 232 121 241 125 q 208 113 223 117 q 199 123 206 117 q 224 130 214 126 q 245 140 235 133 l 212 140 q 212 167 212 150 q 204 160 208 163 q 193 169 200 165 q 219 187 206 176 q 239 211 233 199 q 254 205 243 207 q 243 195 248 201 l 302 195 q 286 174 290 180 l 321 174 q 321 157 321 168 q 321 140 321 146 l 262 140 q 258 137 259 138 m 309 149 l 309 165 l 274 165 q 267 149 271 158 l 309 149 m 271 174 q 281 186 275 180 l 235 186 q 220 174 226 178 l 271 174 m 254 149 q 262 165 258 154 l 224 165 l 224 149 l 254 149 z "},"4":{"ha":688,"x_min":6,"x_max":684,"o":"m 562 688 q 683 553 682 656 l 684 141 q 570 12 669 30 l 115 14 q 6 121 31 14 l 7 568 q 121 687 31 682 l 562 688 m 141 656 q 37 549 58 652 l 36 141 q 136 43 59 43 l 550 42 q 653 159 640 58 l 652 535 q 542 658 651 628 l 141 656 m 428 136 q 418 117 424 126 q 406 102 413 109 q 390 91 398 96 q 369 81 381 85 q 358 92 366 86 q 388 104 375 96 q 408 124 401 113 q 417 150 414 136 q 419 180 420 163 q 435 179 427 180 q 434 157 432 168 q 443 134 435 147 q 463 110 450 121 q 498 94 476 100 q 489 81 492 87 q 454 101 473 85 q 428 136 435 117 m 493 170 l 479 170 l 479 190 l 376 190 l 376 169 l 361 169 q 362 184 362 180 q 361 201 362 190 l 493 201 l 493 170 m 381 125 q 369 130 375 128 q 376 146 373 138 q 383 167 380 154 q 396 163 388 164 q 381 125 393 153 m 467 125 q 456 131 461 129 q 471 165 467 147 q 484 159 477 161 q 467 125 479 147 m 413 224 q 425 230 420 227 q 437 208 431 222 q 423 203 429 205 q 413 224 420 215 m 559 184 q 559 195 559 187 l 574 195 q 573 184 573 188 l 589 184 q 616 185 605 184 l 616 174 q 589 174 606 174 l 573 174 l 573 164 l 596 164 q 613 165 602 164 l 613 153 q 595 154 602 154 l 573 154 l 573 144 l 610 144 q 633 145 621 144 l 633 134 q 610 135 621 135 l 573 135 l 573 123 l 616 123 q 615 101 615 112 q 616 79 615 91 l 602 79 l 602 85 l 532 85 l 532 77 l 519 77 q 519 100 519 90 q 519 123 519 112 l 559 123 l 559 135 l 522 135 q 500 134 513 135 l 500 145 q 522 144 511 144 l 559 144 l 559 154 l 539 154 q 518 153 530 154 l 518 165 q 539 164 530 164 l 559 164 l 559 174 l 543 174 q 517 174 528 174 l 517 185 q 543 184 529 184 l 559 184 m 571 225 q 575 210 573 219 l 634 210 q 633 193 633 200 q 634 182 633 187 l 620 182 l 620 199 l 514 199 l 514 183 l 500 183 q 501 193 501 186 q 500 210 501 200 l 559 210 q 557 223 558 217 q 571 225 563 224 m 602 96 l 602 113 l 532 113 l 532 96 l 602 96 m 446 566 q 340 604 401 604 q 220 554 269 604 q 170 434 170 505 q 220 313 170 363 q 278 274 246 287 l 271 262 q 210 304 237 275 q 156 434 156 357 q 209 565 156 511 q 338 618 262 618 q 452 578 404 618 l 446 566 m 340 263 q 459 313 410 263 q 509 434 509 363 q 469 544 509 497 l 479 552 q 520 434 520 502 q 467 303 520 357 q 338 250 414 250 q 279 259 307 250 l 286 271 q 340 263 311 263 m 426 523 q 339 557 390 557 q 251 522 288 557 q 215 435 215 486 q 252 348 215 384 q 291 321 269 330 l 288 311 q 242 341 262 321 q 202 435 202 380 q 242 528 202 489 q 339 567 282 567 q 431 532 392 567 l 426 523 m 339 311 q 427 348 391 311 q 464 435 464 384 q 443 503 464 473 l 452 508 q 475 435 475 475 q 435 341 475 380 q 339 302 395 302 q 311 304 324 302 l 314 313 q 339 311 326 311 m 402 473 q 391 487 397 480 q 338 509 369 509 q 285 487 307 509 q 263 433 263 465 q 286 380 263 402 q 313 362 298 368 l 313 354 q 277 376 292 359 q 252 435 252 400 q 277 495 252 470 q 337 519 302 519 q 398 495 373 519 q 408 484 404 490 l 403 473 l 402 473 m 372 434 q 362 409 372 419 q 338 399 352 399 q 314 409 323 399 q 304 434 304 419 q 314 458 304 448 q 338 469 323 469 q 362 458 352 469 q 372 434 372 448 m 100 149 q 94 161 97 157 q 112 167 102 163 l 112 182 q 111 208 112 193 l 124 208 q 123 182 123 195 l 123 171 l 142 178 l 142 203 q 142 225 142 214 l 155 225 q 155 203 155 218 l 155 182 q 188 193 164 184 q 187 170 187 184 l 187 145 q 181 124 188 128 q 164 117 174 119 q 159 130 162 123 q 173 134 170 132 q 175 148 176 136 l 175 176 q 155 170 164 172 l 155 126 q 155 107 155 115 l 142 107 q 142 126 142 119 l 142 165 l 123 159 l 123 105 q 132 92 123 92 l 174 92 q 182 96 180 92 q 186 111 184 100 q 199 105 192 106 q 191 86 196 91 q 177 81 186 81 l 126 81 q 112 99 113 81 l 112 155 q 100 149 104 152 m 83 115 q 103 123 92 117 q 102 110 102 115 q 78 101 92 106 q 54 92 64 97 q 48 105 53 98 q 70 111 58 108 l 70 168 q 50 168 58 168 l 50 180 q 70 179 58 179 l 70 199 q 69 221 70 210 l 83 221 q 83 199 83 213 l 83 179 q 102 180 94 179 l 102 168 q 83 168 94 168 l 83 115 m 241 92 q 245 102 245 97 l 245 125 l 231 125 q 228 105 231 115 q 215 81 224 95 q 204 89 210 86 q 214 101 210 95 q 218 116 217 108 q 218 141 218 125 q 218 167 218 159 l 317 167 q 336 168 326 167 l 336 157 q 317 158 326 158 l 231 158 l 231 134 l 321 134 q 340 134 330 134 l 340 124 q 321 125 332 125 l 283 125 q 289 116 286 121 q 298 108 292 111 q 305 115 303 111 q 310 123 307 118 q 321 114 316 118 q 313 109 315 111 q 306 104 311 107 q 318 100 313 101 q 344 98 324 98 q 338 84 340 92 q 309 91 321 87 q 291 99 298 94 q 279 111 283 104 q 273 125 275 118 l 256 125 l 256 98 q 275 107 269 104 q 277 96 275 102 q 264 91 273 94 q 245 81 256 87 q 241 92 242 87 m 313 227 q 333 228 321 227 l 333 218 q 313 218 321 218 l 280 218 l 280 211 l 343 211 q 342 198 342 204 q 343 185 342 192 l 332 185 l 332 201 l 280 201 l 280 174 l 268 174 l 268 201 l 217 201 l 217 185 l 205 185 l 205 211 l 268 211 l 268 218 l 237 218 q 218 218 229 218 l 218 228 q 237 227 228 227 l 313 227 m 304 151 q 324 151 313 151 l 324 141 q 304 142 313 142 l 262 142 q 241 141 253 142 l 241 151 q 262 151 253 151 l 304 151 m 259 187 l 226 187 l 226 195 l 259 195 l 259 187 m 259 174 l 226 174 l 226 182 l 259 182 l 259 174 m 321 187 l 290 187 l 290 195 l 321 195 l 321 187 m 321 173 l 290 173 l 290 181 l 321 181 l 321 173 z "},"5":{"ha":688,"x_min":3,"x_max":680,"o":"m 138 656 q 33 549 55 652 l 33 141 q 132 43 56 43 l 547 42 q 650 159 637 58 l 649 535 q 538 658 648 628 l 138 656 m 558 688 q 680 553 678 656 l 680 141 q 567 12 666 30 l 112 14 q 3 121 28 14 l 3 568 q 118 687 27 682 l 558 688 m 425 136 q 415 117 420 126 q 402 102 410 109 q 386 91 395 96 q 366 81 378 85 q 355 92 363 86 q 385 104 372 96 q 404 124 397 113 q 414 150 411 136 q 416 180 417 163 q 432 179 423 180 q 430 157 429 168 q 439 134 432 147 q 459 110 446 121 q 495 94 473 100 q 486 81 488 87 q 451 101 469 85 q 425 136 432 117 m 490 170 l 476 170 l 476 190 l 372 190 l 372 169 l 358 169 q 359 184 359 180 q 358 201 359 190 l 490 201 l 490 170 m 378 125 q 366 130 372 128 q 373 146 370 138 q 380 167 376 154 q 393 163 385 164 q 378 125 389 153 m 463 125 q 452 131 458 129 q 467 165 463 147 q 480 159 473 161 q 463 125 475 147 m 410 224 q 422 230 417 227 q 433 208 427 222 q 420 203 426 205 q 410 224 416 215 m 556 184 q 555 195 556 187 l 570 195 q 570 184 570 188 l 586 184 q 612 185 602 184 l 612 174 q 585 174 602 174 l 570 174 l 570 164 l 593 164 q 610 165 599 164 l 610 153 q 592 154 599 154 l 570 154 l 570 144 l 607 144 q 629 145 618 144 l 629 134 q 607 135 618 135 l 570 135 l 570 123 l 612 123 q 612 101 612 112 q 612 79 612 91 l 598 79 l 598 85 l 529 85 l 529 77 l 515 77 q 516 100 516 90 q 515 123 516 112 l 556 123 l 556 135 l 518 135 q 496 134 509 135 l 496 145 q 518 144 507 144 l 556 144 l 556 154 l 536 154 q 515 153 526 154 l 515 165 q 536 164 527 164 l 556 164 l 556 174 l 540 174 q 513 174 524 174 l 513 185 q 539 184 526 184 l 556 184 m 568 225 q 572 210 570 219 l 631 210 q 630 193 630 200 q 631 182 630 187 l 616 182 l 616 199 l 511 199 l 511 183 l 497 183 q 498 193 498 186 q 497 210 498 200 l 556 210 q 553 223 555 217 q 568 225 559 224 m 598 96 l 598 113 l 529 113 l 529 96 l 598 96 m 97 149 q 91 161 94 157 q 109 167 98 163 l 109 182 q 108 208 109 193 l 121 208 q 120 182 120 195 l 120 171 l 139 178 l 139 203 q 138 225 139 214 l 152 225 q 151 203 151 218 l 151 182 q 184 193 161 184 q 184 170 184 184 l 184 145 q 178 124 184 128 q 161 117 171 119 q 155 130 159 123 q 170 134 167 132 q 172 148 172 136 l 172 176 q 151 170 161 172 l 151 126 q 152 107 151 115 l 138 107 q 139 126 139 119 l 139 165 l 120 159 l 120 105 q 129 92 120 92 l 170 92 q 178 96 176 92 q 182 111 180 100 q 196 105 189 106 q 188 86 193 91 q 174 81 183 81 l 123 81 q 109 99 109 81 l 109 155 q 97 149 100 152 m 79 115 q 100 123 88 117 q 99 110 99 115 q 75 101 88 106 q 51 92 61 97 q 45 105 50 98 q 66 111 54 108 l 66 168 q 47 168 54 168 l 47 180 q 66 179 54 179 l 66 199 q 66 221 66 210 l 80 221 q 79 199 79 213 l 79 179 q 98 180 91 179 l 98 168 q 79 168 91 168 l 79 115 m 238 195 q 260 194 249 194 l 282 194 l 282 211 q 235 209 243 209 l 235 194 q 233 150 234 164 q 230 120 233 135 q 216 87 227 106 q 201 92 210 90 q 216 121 212 106 q 221 159 220 136 q 222 195 222 182 q 221 220 222 209 q 257 220 240 220 q 295 223 275 221 q 331 231 316 224 q 340 216 332 224 q 321 215 332 216 q 294 212 311 214 l 294 194 l 327 194 q 347 195 336 194 l 347 182 q 327 183 338 183 l 294 183 l 294 166 l 335 166 q 334 144 334 155 q 335 122 334 133 l 321 122 l 321 156 l 260 156 l 260 118 l 248 118 q 248 142 248 130 q 248 166 248 155 l 282 166 l 282 183 l 260 183 q 238 182 249 183 l 238 195 m 298 145 q 294 122 295 135 q 279 99 292 109 q 243 81 265 89 q 233 92 241 87 q 262 102 252 96 q 278 116 273 108 q 283 133 282 124 q 283 147 283 142 q 298 145 291 146 m 304 121 q 328 108 315 115 q 350 94 340 101 q 342 83 346 90 q 298 109 327 95 q 304 121 302 116 m 368 644 q 397 631 388 644 l 397 581 q 348 519 363 564 q 362 409 340 431 q 427 366 383 387 q 454 320 446 347 l 454 244 l 100 244 q 92 248 93 244 l 368 644 m 400 553 q 428 543 420 551 q 444 527 438 534 l 441 497 q 428 485 437 488 l 404 485 q 386 488 392 484 l 385 541 q 400 553 387 551 m 372 461 q 392 469 380 468 l 411 469 q 429 456 422 466 q 420 439 428 444 l 374 436 q 366 450 368 441 q 372 461 366 456 m 464 463 q 490 458 481 462 q 500 423 499 450 q 492 403 498 409 q 458 398 477 397 q 444 409 448 401 l 442 441 q 464 463 445 462 m 474 395 q 485 379 483 389 l 486 364 q 476 348 483 353 l 462 348 q 444 357 451 349 l 443 376 q 454 394 445 387 l 474 395 m 535 366 q 578 340 565 356 q 586 292 586 317 q 571 257 583 274 q 532 246 557 248 q 495 263 510 252 q 493 332 486 296 q 535 366 503 355 z "},"6":{"ha":688,"x_min":6,"x_max":684,"o":"m 562 688 q 683 553 682 656 l 684 141 q 570 12 669 30 l 115 14 q 6 121 31 14 l 7 568 q 121 687 31 682 l 562 688 m 141 656 q 37 549 58 652 l 36 141 q 136 43 59 43 l 550 42 q 653 159 640 58 l 652 535 q 542 658 651 628 l 141 656 m 560 137 q 551 118 556 127 q 538 103 545 109 q 522 91 530 96 q 501 81 513 86 q 490 92 498 87 q 520 105 507 96 q 540 125 533 113 q 550 150 547 136 q 551 181 553 164 q 568 180 559 180 q 566 158 564 168 q 575 135 568 148 q 595 111 582 121 q 631 94 608 100 q 621 81 624 88 q 586 102 605 86 q 560 137 568 117 m 625 171 l 612 171 l 612 191 l 508 191 l 508 170 l 494 170 q 494 185 494 180 q 494 202 494 191 l 625 202 l 625 171 m 513 126 q 501 130 507 129 q 509 146 505 138 q 515 168 512 155 q 528 163 520 165 q 513 126 525 154 m 599 126 q 588 132 593 130 q 603 165 599 148 q 616 160 609 161 q 599 126 611 148 m 545 225 q 557 231 553 227 q 569 208 563 223 q 555 203 562 206 q 545 225 552 216 m 342 581 l 314 582 l 391 498 l 340 498 l 421 408 l 352 409 l 439 307 l 326 307 l 326 247 l 260 247 l 261 307 l 139 308 l 229 408 l 155 408 l 239 498 l 191 497 l 265 581 l 241 581 l 292 646 l 342 581 m 529 441 q 500 474 513 450 l 500 487 q 511 486 503 531 q 545 454 524 465 l 545 432 l 529 441 m 530 410 q 518 410 524 408 q 504 416 512 412 q 475 460 481 432 q 444 494 469 475 q 444 500 431 505 q 463 497 456 500 q 478 486 470 494 q 498 462 494 475 q 509 435 503 449 q 524 415 516 422 l 530 410 m 450 441 q 547 378 491 393 l 546 349 q 450 441 475 368 m 533 320 q 492 327 511 313 q 443 361 473 351 q 439 366 416 366 l 467 368 q 501 348 492 366 q 533 320 513 330 m 546 277 q 455 322 479 282 q 460 330 433 350 q 546 307 496 299 l 546 277 m 117 210 q 116 227 117 220 l 129 227 q 128 210 128 220 l 165 210 q 185 211 175 210 l 185 199 q 166 200 175 200 l 144 200 q 163 184 149 190 q 192 177 176 178 q 184 165 186 170 q 148 179 161 169 q 131 200 134 190 l 128 200 q 129 159 128 171 l 116 159 q 117 200 117 169 l 116 200 q 96 179 107 188 q 64 161 84 170 q 56 172 62 167 q 81 182 68 175 q 102 200 94 189 q 61 199 70 200 l 61 211 q 85 210 71 210 l 117 210 m 146 149 q 146 163 146 155 l 158 163 q 157 149 157 155 q 193 149 182 149 l 193 138 q 165 139 182 139 q 178 118 170 128 q 198 102 186 107 q 188 92 192 97 q 173 106 182 97 q 157 131 165 115 l 157 106 q 158 82 157 95 l 146 82 q 146 105 146 93 l 146 128 q 134 105 141 115 q 120 88 127 95 q 107 96 115 93 q 127 117 121 105 q 138 139 134 128 q 123 138 132 139 l 123 149 q 146 149 132 149 m 84 149 q 83 162 84 155 l 96 162 q 95 149 95 154 q 115 149 106 149 l 115 138 q 95 139 105 139 l 95 105 q 96 81 95 94 l 83 81 q 84 105 84 92 l 84 127 q 73 108 78 115 q 60 92 67 100 q 49 101 57 98 q 65 118 58 108 q 77 139 72 127 q 52 138 62 139 l 52 149 q 84 149 62 149 m 106 132 q 121 118 114 125 q 111 111 116 115 q 97 125 107 115 q 106 132 102 128 m 266 191 q 281 190 273 190 l 292 190 l 292 209 q 291 224 292 218 l 305 224 q 304 208 304 221 l 304 190 l 323 190 q 342 191 333 190 l 342 179 q 325 180 334 180 l 307 180 q 316 156 311 165 q 328 139 322 146 q 340 129 334 132 q 349 123 346 125 q 343 116 346 119 q 338 110 340 113 q 314 138 321 125 q 304 157 307 149 l 304 102 q 305 81 304 92 l 292 81 q 292 102 292 94 l 292 157 q 275 124 283 136 q 262 105 268 111 q 250 114 256 110 q 264 131 258 121 q 277 151 271 140 q 289 180 282 161 l 281 180 q 266 179 273 180 l 266 191 m 224 205 q 223 224 224 215 l 237 224 q 237 205 237 216 l 237 190 q 258 191 246 190 l 258 179 q 237 180 246 180 l 237 158 q 247 164 241 161 q 260 142 251 158 q 248 136 254 140 q 237 157 244 144 l 237 107 q 237 81 237 94 l 223 81 q 224 107 224 94 l 224 150 q 207 115 218 133 q 198 130 205 119 q 211 148 205 137 q 222 180 216 159 q 201 179 212 180 l 201 191 q 224 190 214 190 l 224 205 m 424 225 q 421 207 421 216 q 421 182 420 197 q 427 153 421 168 q 441 128 433 138 q 461 111 450 118 q 490 99 473 104 q 479 85 482 92 q 456 97 465 92 q 440 110 448 103 q 426 127 433 117 q 415 153 420 137 q 407 129 412 138 q 394 111 401 119 q 378 96 388 103 q 356 81 368 89 q 343 92 352 87 q 378 113 363 100 q 399 142 393 126 q 408 180 406 159 q 409 227 410 202 q 424 225 416 226 m 473 195 q 463 177 468 191 q 454 155 458 164 q 441 160 448 158 q 451 181 447 170 q 458 201 456 192 q 473 195 464 197 m 383 195 q 377 178 380 191 q 369 153 374 165 q 355 156 363 155 q 362 173 359 161 q 369 198 366 184 q 383 195 374 196 z "},"7":{"ha":688,"x_min":6,"x_max":684,"o":"m 562 688 q 683 553 682 656 l 684 141 q 570 12 669 30 l 115 14 q 6 121 31 14 l 7 568 q 121 687 31 682 l 562 688 m 141 656 q 37 549 58 652 l 36 141 q 136 43 59 43 l 550 42 q 653 159 640 58 l 652 535 q 542 658 651 628 l 141 656 m 560 137 q 551 118 556 127 q 538 103 545 109 q 522 91 530 96 q 501 81 513 86 q 490 92 498 87 q 520 105 507 96 q 540 125 533 113 q 550 150 547 136 q 551 181 553 164 q 568 180 559 180 q 566 158 564 168 q 575 135 568 148 q 595 111 582 121 q 631 94 608 100 q 621 81 624 88 q 586 102 605 86 q 560 137 568 117 m 625 171 l 612 171 l 612 191 l 508 191 l 508 170 l 494 170 q 494 185 494 180 q 494 202 494 191 l 625 202 l 625 171 m 513 126 q 501 130 507 129 q 509 146 505 138 q 515 168 512 155 q 528 163 520 165 q 513 126 525 154 m 599 126 q 588 132 593 130 q 603 165 599 148 q 616 160 609 161 q 599 126 611 148 m 545 225 q 557 231 553 227 q 569 208 563 223 q 555 203 562 206 q 545 225 552 216 m 424 225 q 421 207 421 216 q 421 182 420 197 q 427 153 421 168 q 441 128 433 138 q 461 111 450 118 q 490 99 473 104 q 479 85 482 92 q 456 97 465 92 q 440 110 448 103 q 426 127 433 117 q 415 153 420 137 q 407 129 412 138 q 394 111 401 119 q 378 96 388 103 q 356 81 368 89 q 343 92 352 87 q 378 113 363 100 q 399 142 393 126 q 408 180 406 159 q 409 227 410 202 q 424 225 416 226 m 473 195 q 463 177 468 191 q 454 155 458 164 q 441 160 448 158 q 451 181 447 170 q 458 201 456 192 q 473 195 464 197 m 383 195 q 377 178 380 191 q 369 153 374 165 q 355 156 363 155 q 362 173 359 161 q 369 198 366 184 q 383 195 374 196 m 49 117 q 64 116 56 116 l 117 116 l 117 130 l 71 130 q 71 158 71 139 q 71 185 71 177 l 174 185 q 174 158 174 177 q 174 130 174 139 l 127 130 l 127 116 l 174 116 q 197 117 186 116 l 197 104 q 174 105 186 105 l 127 105 l 127 95 q 128 81 127 90 l 115 81 q 117 95 117 90 l 117 105 l 64 105 q 49 104 57 105 l 49 117 m 105 227 q 104 212 104 219 l 140 212 q 140 227 140 219 l 153 227 q 153 212 153 220 l 171 212 q 192 213 178 212 l 192 201 q 175 201 184 201 l 153 201 q 153 188 153 193 l 140 188 l 140 201 l 104 201 l 104 188 l 92 188 q 92 201 92 196 l 78 201 q 54 201 68 201 l 54 213 q 72 212 68 212 l 92 212 q 92 227 92 219 l 105 227 m 162 162 l 162 175 l 83 175 l 83 162 l 162 162 m 162 140 l 162 152 l 83 152 l 83 140 l 162 140 m 288 208 q 282 193 284 202 l 330 193 q 329 176 329 188 l 329 156 q 330 136 329 145 l 294 136 l 294 97 q 288 86 294 88 q 269 83 282 84 q 264 97 268 90 q 279 97 277 96 q 281 103 281 98 l 281 136 l 244 136 q 245 155 245 144 l 245 176 q 244 193 245 186 l 271 193 q 275 212 275 208 l 288 208 m 197 90 q 212 125 208 106 q 216 157 216 144 l 216 205 q 215 224 216 218 l 319 224 q 338 225 333 224 l 338 214 q 319 214 334 214 l 229 214 l 229 159 q 226 127 228 141 q 219 102 224 113 q 210 84 214 90 q 197 90 203 88 m 316 170 l 316 184 l 257 184 l 257 170 l 316 170 m 316 146 l 316 160 l 257 160 l 257 146 l 316 146 m 227 97 q 243 110 236 102 q 256 127 251 118 q 266 118 262 121 q 237 88 249 97 q 227 97 233 93 m 313 126 q 342 99 336 106 q 333 90 337 96 q 305 117 324 100 q 313 126 310 122 m 65 310 q 186 536 62 467 q 140 313 119 408 l 237 313 q 488 539 279 503 q 324 312 336 431 l 441 311 q 633 413 484 421 q 519 310 533 367 l 631 309 q 632 288 635 298 l 50 290 q 53 309 45 302 l 65 310 m 398 331 l 396 398 q 518 499 441 487 q 635 579 578 517 q 635 562 643 587 q 547 445 606 490 q 398 331 475 425 m 176 349 q 207 468 168 444 q 279 608 245 492 q 285 603 283 618 q 258 447 292 496 q 198 346 213 399 l 189 314 q 176 349 178 330 z "},"8":{"ha":691,"x_min":9,"x_max":687,"o":"m 565 688 q 686 553 685 656 l 687 141 q 574 12 673 30 l 119 14 q 9 121 35 14 l 10 568 q 125 687 34 682 l 565 688 m 144 656 q 40 549 62 652 l 39 141 q 139 43 62 43 l 553 42 q 656 159 644 58 l 656 535 q 545 658 654 628 l 144 656 m 355 509 l 368 509 q 370 507 370 509 l 370 506 q 368 504 370 504 l 355 504 q 353 506 353 504 l 353 507 q 355 509 353 509 m 174 264 l 203 604 l 369 604 q 376 589 371 593 q 385 578 378 583 l 389 574 l 389 550 l 393 550 l 397 550 l 397 553 l 399 558 l 404 557 l 408 553 l 411 551 l 412 544 l 412 537 l 409 530 q 394 522 405 522 l 384 521 q 378 538 376 526 l 382 543 l 384 547 l 269 547 l 269 265 l 174 264 m 501 569 l 531 263 l 436 263 l 435 568 l 501 569 m 395 412 q 375 412 382 410 q 359 424 367 414 q 358 453 351 436 q 371 475 361 475 q 397 475 380 475 q 414 460 410 474 q 395 412 409 423 m 366 417 q 395 412 377 410 l 389 400 l 411 401 l 423 371 q 435 366 426 366 l 436 338 q 420 348 422 342 l 397 385 l 387 384 q 380 378 382 384 l 382 326 q 342 280 372 299 l 344 258 l 326 259 q 326 281 322 269 l 353 325 q 340 330 353 341 l 300 289 q 282 304 290 293 l 330 353 l 341 353 q 346 358 345 354 l 347 379 l 292 376 l 292 395 l 340 396 q 361 407 352 399 l 365 409 l 366 417 m 361 467 l 268 508 l 268 515 l 365 471 l 361 467 m 359 458 l 268 476 l 268 484 l 360 463 l 359 458 m 328 496 l 323 497 l 321 503 l 323 508 l 329 511 l 335 511 l 340 512 l 345 510 l 345 505 l 342 501 l 336 498 l 331 496 l 328 496 m 310 456 l 310 444 l 281 444 l 281 456 l 310 456 m 309 431 l 309 420 l 281 420 l 281 431 l 309 431 m 437 611 q 446 604 445 610 l 448 593 q 440 583 445 586 l 431 583 l 429 578 l 425 570 q 412 570 417 568 l 412 579 l 412 602 q 420 611 412 610 l 437 611 m 168 210 q 168 224 168 218 l 181 224 q 180 210 180 220 q 196 210 190 210 l 196 199 q 180 200 190 200 l 180 176 q 181 155 180 164 l 155 155 l 155 143 l 175 143 q 197 144 188 143 l 197 133 q 175 134 188 134 l 165 134 q 181 113 171 122 q 201 100 191 104 q 191 89 194 95 q 169 108 176 98 q 155 131 161 118 l 155 107 q 156 82 155 93 l 142 82 q 144 107 144 93 l 144 129 q 129 106 139 117 q 108 87 119 95 q 99 100 105 93 q 119 113 109 104 q 134 134 129 122 l 126 134 q 106 133 115 134 l 106 144 q 126 143 115 143 l 144 143 l 144 155 l 119 155 q 120 176 120 164 l 120 200 q 105 199 113 200 l 105 210 q 120 210 113 210 q 119 224 120 216 l 132 224 q 132 210 132 217 l 168 210 m 115 177 q 94 162 108 173 q 92 139 92 146 q 115 117 104 127 q 104 106 111 113 q 89 127 99 117 q 80 103 85 113 q 68 84 75 93 q 56 93 64 90 q 71 113 65 102 q 79 139 76 124 q 82 175 82 155 q 82 222 82 195 q 95 221 88 221 q 94 199 94 212 q 94 175 94 186 q 106 188 100 180 q 115 177 111 182 m 169 186 l 169 200 l 132 200 l 132 186 l 169 186 m 169 164 l 169 178 l 132 178 l 132 164 l 169 164 m 76 185 q 71 144 72 155 q 58 146 65 146 q 64 186 61 156 q 76 185 71 186 m 254 208 q 273 209 262 208 l 273 198 q 254 198 262 198 l 247 198 q 238 168 244 184 l 266 168 q 265 149 265 158 l 265 121 q 266 100 265 113 l 254 100 l 254 111 l 237 111 l 237 94 l 225 94 q 227 115 227 106 l 227 151 q 216 138 222 144 q 207 148 213 144 q 228 174 222 159 q 235 198 234 189 q 213 198 223 198 l 213 209 q 231 208 223 208 l 254 208 m 262 90 q 274 113 270 100 q 279 142 279 126 q 280 170 280 159 q 278 202 279 182 l 328 202 q 349 203 335 202 l 349 191 q 328 192 340 192 l 291 192 l 291 145 q 289 127 290 136 q 284 106 288 118 q 273 82 281 94 q 262 90 269 87 m 254 121 l 254 158 l 237 158 l 237 121 l 254 121 m 312 227 q 320 208 317 217 q 308 203 313 206 q 301 222 304 213 q 312 227 307 224 m 473 136 q 493 136 482 136 l 493 125 q 473 125 487 125 q 474 101 473 110 l 462 101 l 462 107 l 429 107 l 429 96 q 424 86 429 88 q 406 81 419 83 q 400 95 405 87 q 414 95 411 95 q 418 99 418 96 l 418 107 l 384 107 q 368 106 378 107 l 368 117 q 384 117 378 117 l 418 117 l 418 125 l 372 125 q 357 125 365 125 l 357 136 q 372 136 365 136 l 418 136 l 418 144 l 383 144 q 368 143 376 144 l 368 154 q 383 153 376 153 l 418 153 l 418 161 l 376 161 q 376 178 376 170 q 376 193 376 186 l 418 193 l 418 201 l 375 201 q 357 201 366 201 l 357 212 q 374 211 366 211 l 418 211 q 418 222 418 215 l 429 222 q 429 211 429 217 l 470 211 q 492 212 480 211 l 492 201 q 470 201 480 201 l 429 201 l 429 193 l 473 193 q 472 178 472 186 q 473 161 472 170 l 429 161 l 429 153 l 474 153 q 473 136 473 147 m 460 171 l 460 183 l 429 183 l 429 171 l 460 171 m 418 171 l 418 183 l 387 183 l 387 171 l 418 171 m 462 117 l 462 125 l 429 125 l 429 117 l 462 117 m 462 136 l 462 144 l 429 144 l 429 136 l 462 136 m 600 221 q 595 212 598 218 q 589 197 592 205 l 617 197 q 640 197 630 197 l 640 186 q 623 186 631 186 q 617 154 621 172 q 604 119 614 136 q 621 106 610 113 q 639 96 631 99 q 629 85 634 92 q 597 111 611 96 q 579 96 589 103 q 560 85 568 89 q 552 95 557 91 q 590 119 576 105 q 579 144 583 131 q 573 170 576 158 q 566 159 569 163 q 557 166 562 163 q 573 191 564 174 q 586 227 583 208 q 600 221 592 222 m 525 204 q 524 220 525 212 l 537 220 q 536 203 536 212 l 536 191 q 564 191 555 191 l 564 180 q 536 181 555 181 l 536 155 l 556 155 q 555 128 555 144 q 556 100 555 112 l 545 100 l 545 108 l 515 108 l 515 96 l 503 96 q 504 125 504 107 q 503 155 504 144 l 525 155 l 525 181 q 497 180 505 181 l 497 191 q 525 191 505 191 l 525 204 m 584 175 q 589 148 585 161 q 597 129 593 136 q 606 154 603 138 q 610 186 610 170 l 583 186 q 575 173 579 180 l 584 175 m 545 118 l 545 145 l 515 145 l 515 118 l 545 118 z "},"9":{"ha":688,"x_min":6,"x_max":684,"o":"m 562 688 q 683 553 682 656 l 684 141 q 570 12 669 30 l 115 14 q 6 121 31 14 l 7 568 q 121 687 31 682 l 562 688 m 141 656 q 37 549 58 652 l 36 141 q 136 43 59 43 l 550 42 q 653 159 640 58 l 652 535 q 542 658 651 628 l 141 656 m 208 623 q 240 627 208 625 q 334 572 298 622 q 367 536 374 576 l 408 496 q 409 471 414 480 l 398 444 q 391 434 397 431 l 334 508 l 166 336 q 126 370 123 329 l 301 543 l 208 623 m 435 517 q 549 581 496 541 l 559 573 l 559 261 l 292 261 q 281 267 278 260 l 361 347 q 435 517 448 450 m 330 432 l 361 434 l 361 378 q 346 391 354 378 q 327 414 333 405 q 330 432 323 425 m 258 385 l 311 398 q 326 347 319 394 q 262 331 317 341 l 258 385 m 86 130 q 103 104 96 116 q 94 98 99 102 l 113 98 l 113 133 l 93 133 q 69 132 84 133 l 69 144 q 92 143 84 143 l 113 143 l 113 162 q 81 161 93 162 l 81 171 q 58 156 72 164 q 49 166 54 161 q 73 179 60 171 q 96 200 85 188 q 115 227 108 212 q 128 220 117 225 l 124 216 q 141 200 131 209 q 164 183 151 191 q 192 172 177 176 q 184 161 187 168 q 159 172 172 165 l 159 161 q 140 162 146 162 l 125 162 l 125 143 l 146 143 q 172 144 157 143 l 172 132 q 146 133 157 133 l 125 133 l 125 98 l 136 98 q 152 130 151 122 q 165 123 157 127 q 149 98 161 117 q 185 98 168 98 l 185 87 q 157 87 168 87 l 84 87 q 59 87 71 87 l 59 98 q 84 98 72 98 l 92 98 q 76 122 87 107 q 86 130 81 125 m 83 173 q 100 172 93 172 l 137 172 q 157 173 146 173 q 135 190 146 180 q 118 209 125 200 q 102 191 111 200 q 83 173 93 181 m 321 178 q 279 176 294 177 l 279 168 l 317 168 q 316 155 316 161 q 317 141 316 148 l 279 141 l 279 133 l 329 133 q 328 115 328 123 l 328 99 q 324 92 328 94 q 308 87 321 90 q 302 99 307 93 q 314 99 310 99 q 317 106 318 100 l 317 125 l 279 125 l 279 113 q 294 115 288 114 q 291 119 292 118 q 299 124 296 121 q 311 106 306 114 q 301 101 307 104 q 298 106 300 103 q 278 105 292 106 q 250 101 264 103 q 245 112 249 106 q 269 113 259 112 l 269 125 l 239 125 l 239 90 l 229 90 q 229 111 229 98 q 229 133 229 123 l 269 133 l 269 141 l 235 141 q 235 155 235 149 q 235 168 235 161 l 269 168 l 269 176 q 233 174 246 174 q 229 184 233 179 q 274 185 252 184 q 314 190 296 186 q 321 178 317 184 m 321 224 q 320 208 320 214 q 321 194 320 201 l 222 194 q 221 163 222 177 q 219 137 221 149 q 214 115 218 125 q 204 92 211 104 q 192 97 199 95 q 207 129 203 113 q 211 163 210 145 q 211 192 211 181 q 210 224 211 203 l 321 224 m 309 202 l 309 214 l 222 214 l 222 202 l 309 202 m 307 149 l 307 160 l 279 160 l 279 149 l 307 149 m 269 149 l 269 160 l 245 160 l 245 149 l 269 149 m 387 208 q 405 209 394 208 l 405 198 q 387 198 395 198 l 379 198 q 370 168 376 184 l 398 168 q 397 149 397 158 l 397 121 q 398 100 397 113 l 387 100 l 387 111 l 370 111 l 370 94 l 357 94 q 359 115 359 106 l 359 151 q 349 138 355 144 q 339 148 345 144 q 360 174 354 159 q 368 198 366 189 q 345 198 355 198 l 345 209 q 363 208 355 208 l 387 208 m 395 90 q 407 113 402 100 q 412 142 411 126 q 412 170 412 159 q 410 202 412 182 l 460 202 q 481 203 467 202 l 481 191 q 460 192 472 192 l 423 192 l 423 145 q 421 127 422 136 q 417 106 420 118 q 406 82 413 94 q 395 90 401 87 m 387 121 l 387 158 l 370 158 l 370 121 l 387 121 m 444 227 q 452 208 449 217 q 440 203 446 206 q 433 222 437 213 q 444 227 439 224 m 501 189 q 500 163 500 174 l 500 105 l 545 105 l 545 200 q 544 223 545 212 l 558 223 q 557 200 557 214 l 557 105 l 602 105 l 602 165 q 602 188 602 178 l 616 188 q 615 165 615 180 l 615 113 q 616 81 615 98 l 602 81 l 602 94 l 486 94 q 487 121 487 108 l 487 163 q 486 189 487 178 l 501 189 z "},"A":{"ha":1044,"x_min":6,"x_max":684,"o":"m 562 688 q 683 553 682 656 l 684 141 q 570 12 669 30 l 115 14 q 6 121 31 14 l 7 568 q 121 687 31 682 l 562 688 m 141 656 q 37 549 58 652 l 36 141 q 136 43 59 43 l 550 42 q 653 159 640 58 l 652 535 q 542 658 651 628 l 141 656 m 368 610 q 408 574 407 610 q 382 540 406 541 q 341 555 355 536 q 349 600 331 586 l 368 610 m 307 595 l 359 512 q 342 479 356 500 l 305 409 l 412 330 l 445 352 l 568 254 l 311 256 l 394 318 l 302 395 q 299 383 295 395 l 313 370 l 246 248 l 224 252 q 214 284 216 263 l 261 366 l 212 432 l 209 437 l 206 337 l 178 256 q 140 265 161 247 l 161 352 l 163 466 l 176 473 l 176 496 l 146 522 l 159 534 l 178 515 l 176 550 l 186 570 l 197 593 l 307 595 m 224 557 l 218 527 l 247 550 l 224 557 m 284 469 l 254 452 l 269 440 l 284 469 m 123 151 q 123 165 123 157 l 134 165 q 134 155 134 158 l 149 159 q 149 182 149 171 l 160 182 q 159 163 159 172 l 187 173 q 186 157 186 164 l 186 131 q 181 121 185 125 q 168 116 176 118 q 164 127 168 122 q 176 135 176 128 l 176 159 l 159 153 q 160 109 159 121 l 149 109 q 149 149 149 123 l 134 144 l 134 104 q 144 96 134 96 l 172 96 q 180 98 177 96 q 185 111 184 100 q 197 105 191 106 q 180 87 194 87 l 136 87 q 123 100 123 87 l 123 140 q 115 136 119 138 l 111 147 l 123 151 m 112 184 q 96 185 104 185 l 85 185 l 85 163 l 110 163 q 109 138 109 155 l 106 101 q 102 92 106 95 q 89 85 97 89 q 82 98 87 90 q 96 105 96 99 l 99 154 l 84 154 q 66 83 83 114 q 55 90 61 87 q 75 185 76 121 q 58 184 65 185 l 58 195 q 84 194 67 194 q 112 195 102 194 l 112 184 m 149 218 q 138 201 145 215 l 172 201 q 195 202 183 201 l 195 192 q 172 192 183 192 l 134 192 q 119 167 127 176 q 107 173 115 171 q 125 198 117 181 q 135 224 133 215 q 149 218 143 220 m 87 221 q 99 203 94 212 q 87 197 94 200 q 79 216 83 209 q 87 221 83 218 m 305 206 q 332 207 320 206 l 332 195 q 305 195 320 195 l 281 195 l 281 100 l 320 100 q 345 101 334 100 l 345 89 q 321 90 334 90 l 227 90 q 204 89 214 90 l 204 101 q 228 100 214 100 l 268 100 l 268 195 l 243 195 q 216 195 228 195 l 216 207 q 243 206 228 206 l 305 206 m 421 182 q 416 177 418 180 q 408 160 414 174 l 464 160 q 488 160 478 160 l 488 149 q 465 150 477 150 l 458 150 q 440 119 452 133 q 486 97 463 111 q 477 85 482 92 q 431 111 456 101 q 397 93 416 99 q 365 84 378 86 q 358 96 363 91 q 393 103 376 98 q 418 115 410 109 q 376 127 401 122 q 391 150 387 140 l 376 150 q 355 149 369 150 l 355 160 q 376 160 363 160 l 395 160 q 408 189 403 174 q 421 182 414 184 m 408 219 q 417 227 413 223 q 430 208 424 218 q 422 203 427 206 l 477 203 q 477 189 477 194 q 477 174 477 183 l 465 174 l 465 193 l 376 193 l 376 176 l 363 176 q 364 190 364 184 q 363 203 364 196 l 418 203 q 408 219 413 213 m 394 134 q 429 123 418 127 q 445 150 437 131 l 404 150 q 394 134 399 143 m 570 213 q 634 170 591 179 q 627 155 629 163 q 606 165 615 160 l 606 156 q 585 157 600 157 l 571 157 l 571 133 l 594 133 q 614 134 606 133 l 614 123 q 594 123 606 123 l 571 123 l 571 96 l 594 96 q 624 97 612 96 l 624 85 q 595 86 613 86 l 530 86 q 503 85 511 86 l 503 96 q 530 96 511 96 l 559 96 l 559 123 l 542 123 q 515 123 522 123 l 515 134 q 541 133 522 133 l 559 133 l 559 157 l 547 157 q 523 156 528 157 l 523 165 q 503 153 517 161 q 494 165 498 160 q 528 184 509 170 q 558 222 547 198 q 573 216 566 218 l 570 213 m 526 168 q 547 167 534 167 l 583 167 q 602 168 595 167 q 564 206 576 181 q 526 168 547 181 z "},"B":{"ha":827,"x_min":6,"x_max":684,"o":"m 562 688 q 683 553 682 656 l 684 141 q 570 12 669 30 l 115 14 q 6 121 31 14 l 7 568 q 121 687 31 682 l 562 688 m 141 656 q 37 549 58 652 l 36 141 q 136 43 59 43 l 550 42 q 653 159 640 58 l 652 535 q 542 658 651 628 l 141 656 m 313 641 q 374 641 340 648 q 446 574 425 614 q 448 526 450 554 q 421 488 441 499 l 420 439 q 408 425 419 429 l 376 425 q 370 430 372 435 q 355 414 364 422 q 330 414 345 410 q 317 432 320 422 q 310 427 313 438 l 309 424 l 277 425 q 266 446 268 433 l 264 484 q 237 526 242 496 q 236 567 232 549 q 313 641 256 618 m 296 589 q 276 580 284 589 q 268 559 268 571 q 276 538 268 547 q 296 530 284 530 q 316 538 308 530 q 325 559 325 547 q 316 580 325 571 q 296 589 308 589 m 387 589 q 367 581 375 589 q 359 559 359 572 q 367 539 359 547 q 387 530 375 530 q 407 539 399 530 q 416 559 416 547 q 407 581 416 572 q 387 589 399 589 m 334 486 q 324 472 325 481 l 324 461 l 365 461 l 365 471 q 357 486 364 482 l 356 503 l 334 503 l 334 486 m 234 479 q 239 476 234 479 q 250 460 245 473 l 248 427 l 345 380 l 454 429 q 443 463 431 438 q 484 477 461 482 q 502 442 505 465 q 508 428 498 435 q 523 385 534 413 q 492 369 516 368 q 467 396 467 371 l 392 358 l 462 327 q 486 353 463 342 q 514 342 503 356 q 503 291 539 318 q 499 277 493 291 q 485 245 499 250 q 452 246 463 239 q 435 270 438 256 q 445 292 433 283 l 342 338 l 245 293 q 251 260 260 275 q 206 241 238 233 q 186 278 176 250 q 180 292 188 288 l 166 304 q 163 331 157 319 q 201 350 176 352 q 230 326 222 347 l 236 328 l 296 359 l 225 393 l 216 380 q 187 369 206 369 q 168 379 176 372 q 183 429 152 412 q 186 439 189 432 q 203 482 172 466 q 234 479 223 486 m 180 218 q 173 212 175 216 q 166 205 170 209 l 228 205 l 222 193 q 215 178 218 186 l 233 178 q 255 179 245 178 l 255 168 q 233 168 245 168 l 151 168 q 150 134 151 148 q 145 109 149 121 q 130 80 142 96 q 117 88 125 85 q 135 118 130 102 q 139 150 139 134 q 139 178 140 165 q 126 168 131 171 q 115 178 122 174 q 141 195 129 184 q 163 224 153 207 q 180 218 170 221 m 234 155 q 233 141 233 148 q 232 125 233 134 q 224 115 231 117 q 205 111 216 113 q 200 124 203 118 q 220 127 218 124 q 221 145 221 130 l 180 145 l 180 102 q 190 94 180 93 l 231 94 q 238 97 236 94 q 241 111 239 100 q 254 104 247 105 q 249 88 251 93 q 235 83 246 83 l 181 83 q 168 95 169 83 l 168 130 q 168 155 168 144 l 234 155 m 201 178 q 209 196 206 189 l 158 196 q 141 178 149 185 l 201 178 m 363 216 q 363 201 363 214 l 363 158 q 385 178 375 168 q 400 199 395 189 q 412 190 405 194 q 396 172 408 184 q 377 155 384 160 q 363 143 371 150 l 363 104 q 371 95 363 95 l 395 95 q 401 100 400 96 q 404 115 403 104 q 418 109 410 109 q 410 87 414 91 q 399 83 406 83 l 364 83 q 351 98 351 83 l 351 134 q 340 126 347 131 q 326 117 334 122 q 317 127 322 123 q 335 137 326 132 q 351 149 345 143 l 351 203 q 351 216 351 211 l 363 216 m 326 212 q 318 200 321 205 q 313 186 316 195 l 313 110 q 313 80 313 92 l 300 80 q 300 109 300 90 l 300 168 q 291 155 295 160 q 284 146 288 151 q 275 155 280 152 q 289 172 283 163 q 300 189 295 181 q 308 205 304 197 q 313 218 311 214 q 326 212 316 215 m 537 210 q 536 185 536 199 q 537 161 536 172 l 453 161 q 454 186 454 172 q 453 210 454 200 l 537 210 m 560 147 q 559 114 559 136 q 560 83 559 92 l 549 83 l 549 91 l 514 91 l 514 81 l 502 81 q 503 114 503 91 q 502 147 503 136 l 560 147 m 476 81 l 476 91 l 443 91 l 443 81 l 431 81 q 432 114 432 91 q 431 147 432 137 l 488 147 q 486 118 486 137 q 488 81 486 100 l 476 81 m 526 172 l 526 200 l 465 200 l 465 172 l 526 172 m 549 102 l 549 136 l 514 136 l 514 102 l 549 102 m 476 102 l 476 136 l 443 136 l 443 102 l 476 102 z "},"C":{"ha":949,"x_min":6,"x_max":684,"o":"m 562 688 q 683 553 682 656 l 684 141 q 570 12 669 30 l 115 14 q 6 121 31 14 l 7 568 q 121 687 31 682 l 562 688 m 141 656 q 37 549 58 652 l 36 141 q 136 43 59 43 l 550 42 q 653 159 640 58 l 652 535 q 542 658 651 628 l 141 656 m 300 406 q 294 400 300 400 l 294 394 l 307 394 l 307 406 l 300 406 m 342 613 q 406 632 376 637 q 450 575 450 610 q 494 554 481 572 q 499 525 504 538 q 457 489 485 500 q 405 441 437 442 l 400 431 q 372 404 386 413 q 303 385 334 385 q 266 410 273 393 q 238 436 245 412 q 190 440 201 435 q 159 498 156 463 q 179 524 159 512 q 205 534 190 533 q 202 589 198 556 q 248 633 218 620 q 294 638 269 641 q 342 613 322 629 m 296 440 q 319 418 296 416 l 319 440 l 296 440 m 319 399 l 339 393 l 369 403 l 395 406 l 391 392 l 456 420 l 421 367 l 509 371 l 454 349 l 519 325 l 434 332 l 561 253 l 406 302 l 411 243 l 358 294 l 256 219 l 284 303 l 105 294 l 257 336 l 201 349 l 274 354 l 195 389 l 298 378 l 319 399 m 297 373 l 229 380 l 286 353 l 222 348 l 268 336 l 142 300 l 291 309 l 265 231 l 358 298 l 407 251 l 402 307 l 534 265 l 428 332 l 423 336 l 494 330 l 446 349 l 489 366 l 418 363 l 414 361 l 447 410 l 448 413 l 386 386 l 389 401 l 370 399 l 355 394 l 339 389 l 319 395 l 297 373 m 334 365 l 338 361 l 340 357 l 338 349 l 328 345 l 319 347 l 315 353 l 318 361 l 326 366 l 334 365 m 355 372 l 356 369 l 353 364 l 347 364 l 345 368 l 349 373 l 355 372 m 359 353 l 362 350 l 361 345 l 358 340 l 353 337 l 346 340 l 347 349 l 353 354 l 359 353 m 199 211 q 199 186 199 199 l 199 106 q 199 78 199 93 l 188 78 l 188 91 l 133 91 l 133 78 l 121 78 q 122 106 122 90 l 122 185 q 121 211 122 199 l 199 211 m 188 100 l 188 201 l 133 201 l 133 100 l 188 100 m 100 213 q 99 172 99 193 q 111 187 105 179 q 119 177 114 182 q 99 158 109 170 q 97 133 98 148 q 119 109 109 119 q 110 100 115 104 q 94 121 104 111 q 87 97 92 106 q 77 78 82 87 q 66 85 71 83 q 79 106 74 95 q 86 133 83 118 q 88 169 88 149 q 87 215 88 189 q 100 213 93 214 m 166 194 q 165 170 165 185 q 183 170 175 170 l 183 160 q 165 161 175 161 l 164 153 q 186 121 178 133 q 176 115 180 117 q 161 142 170 127 q 147 111 156 126 q 135 115 142 113 q 147 136 142 124 q 154 161 153 148 q 136 160 146 161 l 136 170 q 154 170 146 170 q 154 196 154 184 q 166 194 160 195 m 81 180 q 77 139 77 150 q 66 139 71 139 q 68 182 68 151 q 81 180 75 181 m 291 172 q 290 154 290 164 l 290 137 q 307 149 297 140 q 320 165 316 158 q 334 156 326 160 q 319 145 326 152 q 290 123 312 138 l 290 98 q 298 92 290 92 l 317 92 q 326 94 323 92 q 330 108 328 97 q 343 102 336 104 q 335 85 338 88 q 323 82 331 82 l 293 82 q 279 92 279 82 l 279 117 q 258 105 273 113 q 249 115 254 111 q 279 130 262 119 l 279 154 q 278 172 279 164 l 291 172 m 254 190 q 255 176 254 183 l 241 176 q 242 190 242 183 l 225 190 q 204 189 215 190 l 204 200 q 225 199 215 199 l 242 199 q 241 216 242 210 l 256 216 q 254 199 254 210 l 286 199 l 286 218 l 298 218 q 298 199 298 210 l 322 199 q 341 200 333 199 l 341 189 q 322 190 333 190 l 298 190 q 298 176 298 184 l 286 176 l 286 190 l 254 190 m 259 167 q 243 153 252 161 l 243 100 q 244 77 243 90 l 231 77 q 232 100 232 89 l 232 141 q 210 123 222 131 q 202 133 206 128 q 227 152 212 138 q 245 174 241 166 q 259 167 250 170 m 477 215 q 477 194 477 205 q 477 171 477 182 l 459 171 l 459 162 q 480 163 470 162 l 480 153 q 459 153 469 153 l 459 142 q 486 143 476 142 l 486 134 q 458 134 476 134 q 473 123 465 127 q 488 118 482 119 q 480 108 484 114 q 460 120 469 113 q 446 134 452 127 l 428 134 q 413 118 422 125 q 393 104 404 111 q 385 113 391 109 q 403 122 395 117 q 416 134 412 127 q 391 134 403 134 l 391 143 q 417 142 402 142 l 417 153 q 397 153 410 153 l 397 163 q 417 162 410 162 l 417 171 l 402 171 q 403 194 403 183 q 402 215 403 206 l 477 215 m 398 182 q 388 174 394 179 q 378 163 382 168 q 375 136 377 151 q 392 125 385 130 q 385 115 389 120 q 374 125 379 121 q 366 101 370 111 q 354 79 361 91 q 344 87 349 84 q 359 112 353 97 q 366 140 364 127 q 368 175 368 155 q 368 219 368 195 q 379 218 375 218 q 378 200 378 211 l 378 176 q 390 192 385 183 q 398 182 393 187 m 428 105 l 433 108 q 433 127 433 120 l 444 127 q 443 111 443 121 q 454 104 447 108 q 461 117 456 107 q 470 110 466 113 q 461 100 465 104 q 479 88 470 94 q 471 79 475 85 q 443 101 458 92 l 443 89 q 440 80 443 82 q 426 75 437 77 q 421 86 425 82 q 433 90 433 85 l 433 98 q 418 91 427 95 q 401 82 409 86 q 395 92 398 88 q 418 101 405 95 q 409 113 414 108 q 416 119 414 115 l 428 105 m 466 179 l 466 189 l 413 189 l 413 179 l 466 179 m 466 197 l 466 207 l 413 207 l 413 197 l 466 197 m 361 184 q 359 168 360 179 q 355 143 357 157 q 345 145 350 144 q 349 186 348 161 q 361 184 355 184 m 450 142 l 450 153 l 427 153 l 427 142 l 450 142 m 450 162 l 450 171 l 427 171 l 427 162 l 450 162 m 544 143 q 557 159 551 150 q 568 177 563 168 q 576 197 572 186 q 583 218 581 207 q 599 214 589 216 q 591 200 594 208 q 583 180 588 193 l 612 180 q 632 181 621 180 l 632 170 q 613 171 618 171 l 610 171 l 610 94 q 602 78 610 81 q 583 75 593 76 q 578 91 581 83 q 594 92 591 90 q 597 100 597 93 l 597 171 l 578 171 q 568 154 572 161 q 555 134 564 146 q 544 143 552 138 m 534 212 q 526 198 530 205 q 519 180 523 190 l 538 180 q 557 181 546 180 l 557 170 q 538 171 546 171 l 532 171 l 532 100 q 532 76 532 90 l 519 76 q 519 100 519 90 l 519 171 l 513 171 q 507 159 510 164 q 500 147 504 153 q 488 155 496 151 q 498 169 494 161 q 507 186 503 177 q 514 203 511 195 q 519 218 517 211 q 534 212 528 214 z "},"D":{"ha":1029,"x_min":6,"x_max":684,"o":"m 562 688 q 683 553 682 656 l 684 141 q 570 12 669 30 l 115 14 q 6 121 31 14 l 7 568 q 121 687 31 682 l 562 688 m 141 656 q 37 549 58 652 l 36 141 q 136 43 59 43 l 550 42 q 653 159 640 58 l 652 535 q 542 658 651 628 l 141 656 m 462 129 q 481 129 471 129 l 481 118 q 462 119 475 119 q 463 94 462 103 l 450 94 l 450 100 l 418 100 l 418 89 q 412 79 417 81 q 395 75 408 77 q 389 88 393 81 q 403 89 399 88 q 406 92 406 89 l 406 100 l 372 100 q 357 100 366 100 l 357 111 q 372 110 366 110 l 406 110 l 406 119 l 361 119 q 346 118 353 119 l 346 129 q 361 129 353 129 l 406 129 l 406 137 l 372 137 q 357 136 365 137 l 357 147 q 372 146 365 146 l 406 146 l 406 155 l 364 155 q 365 171 365 163 q 364 186 365 179 l 406 186 l 406 195 l 363 195 q 345 194 354 195 l 345 205 q 363 204 354 204 l 406 204 q 406 215 406 208 l 418 215 q 418 204 418 210 l 458 204 q 480 205 469 204 l 480 194 q 458 195 469 195 l 418 195 l 418 186 l 461 186 q 460 171 460 179 q 461 155 460 163 l 418 155 l 418 146 l 463 146 q 462 129 462 140 m 449 164 l 449 176 l 418 176 l 418 164 l 449 164 m 406 164 l 406 176 l 376 176 l 376 164 l 406 164 m 450 110 l 450 119 l 418 119 l 418 110 l 450 110 m 450 129 l 450 137 l 418 137 l 418 129 l 450 129 m 588 214 q 584 205 587 212 q 577 190 581 199 l 606 190 q 628 191 618 190 l 628 180 q 611 180 620 180 q 606 147 610 165 q 593 113 602 130 q 609 99 599 106 q 627 89 619 92 q 618 78 623 85 q 586 104 600 89 q 567 89 578 96 q 549 78 557 82 q 541 88 546 84 q 578 113 565 98 q 568 138 572 124 q 562 163 564 151 q 554 152 557 157 q 545 159 551 157 q 562 184 553 167 q 574 220 571 201 q 588 214 581 216 m 513 197 q 513 214 513 205 l 526 214 q 524 197 524 205 l 524 184 q 553 184 543 184 l 553 174 q 524 174 543 174 l 524 148 l 545 148 q 544 121 544 138 q 545 94 544 105 l 533 94 l 533 101 l 503 101 l 503 89 l 492 89 q 492 118 492 100 q 492 148 492 137 l 513 148 l 513 174 q 486 174 494 174 l 486 184 q 513 184 494 184 l 513 197 m 572 168 q 577 141 574 154 q 585 122 581 129 q 595 148 591 132 q 599 180 598 163 l 572 180 q 564 166 568 173 l 572 168 m 533 111 l 533 138 l 503 138 l 503 111 l 533 111 m 333 651 q 354 580 338 611 q 376 506 374 555 q 405 557 386 527 q 416 463 417 511 l 422 457 q 456 512 452 477 q 462 415 481 473 q 522 424 493 432 q 475 329 470 392 q 367 268 440 283 l 364 274 l 416 334 l 396 349 l 429 397 l 376 380 l 378 443 l 349 412 l 334 459 l 323 413 l 289 440 l 294 377 q 265 390 294 370 l 269 330 l 254 334 q 323 271 262 293 l 323 266 q 203 329 218 288 q 163 448 200 411 q 222 427 191 446 q 208 494 221 486 l 198 505 q 255 475 235 499 l 259 477 l 259 482 q 247 560 260 544 l 241 573 q 309 533 279 558 l 311 596 q 333 651 313 638 m 443 258 l 443 238 l 228 238 l 228 258 l 443 258 m 269 129 q 260 110 265 119 q 247 95 254 102 q 232 84 240 89 q 212 75 223 79 q 201 85 209 80 q 230 97 218 89 q 249 117 243 106 q 259 142 256 128 q 260 172 262 155 q 277 171 268 172 q 275 150 273 159 q 283 127 277 140 q 303 103 290 114 q 338 87 316 93 q 329 75 332 81 q 295 95 313 79 q 269 129 277 110 m 333 162 l 319 162 l 319 181 l 218 181 l 218 161 l 204 161 q 205 176 205 172 q 204 193 205 181 l 333 193 l 333 162 m 223 118 q 212 122 218 121 q 219 138 216 130 q 225 159 222 146 q 238 155 230 156 q 223 118 235 146 m 307 118 q 296 123 302 121 q 311 157 307 140 q 323 151 317 153 q 307 118 319 140 m 254 215 q 267 220 262 217 q 277 199 272 213 q 264 194 271 197 q 254 215 261 205 m 136 216 q 133 197 134 206 q 133 173 133 187 q 139 144 134 159 q 153 120 144 130 q 173 103 161 111 q 201 92 184 96 q 190 78 193 85 q 168 90 176 84 q 152 103 159 96 q 138 119 144 110 q 127 144 132 129 q 119 121 124 130 q 107 104 113 112 q 91 89 100 96 q 70 74 81 82 q 57 85 66 81 q 92 106 77 94 q 112 134 106 118 q 120 172 118 151 q 121 217 122 193 q 136 216 128 216 m 184 186 q 174 168 179 181 q 165 146 170 155 q 153 152 159 150 q 162 172 158 161 q 170 191 167 182 q 184 186 175 188 m 96 186 q 90 169 93 181 q 83 144 87 157 q 69 147 77 146 q 76 164 72 153 q 82 189 79 175 q 96 186 87 187 z "},"E":{"ha":781,"x_min":6,"x_max":684,"o":"m 562 688 q 683 553 682 656 l 684 141 q 570 12 669 30 l 115 14 q 6 121 31 14 l 7 568 q 121 687 31 682 l 562 688 m 141 656 q 37 549 58 652 l 36 141 q 136 43 59 43 l 550 42 q 653 159 640 58 l 652 535 q 542 658 651 628 l 141 656 m 218 394 l 460 394 q 463 392 463 394 l 463 389 q 457 385 457 387 q 455 382 457 382 l 223 382 l 217 382 q 216 389 216 387 l 216 392 q 218 394 216 394 m 441 460 l 455 460 q 459 454 458 454 q 463 452 463 454 l 463 433 q 460 430 463 430 l 435 430 q 432 433 432 430 l 432 452 q 439 455 432 453 q 441 460 439 460 m 223 460 l 237 460 q 241 454 240 454 l 247 448 l 246 441 l 246 433 q 243 430 246 430 l 218 430 q 216 433 216 430 l 216 452 q 221 456 221 454 q 223 460 221 460 m 387 472 l 442 472 q 445 470 445 471 l 445 469 q 442 467 445 467 l 389 467 q 385 469 385 467 l 385 470 q 387 472 385 472 m 308 472 l 370 472 q 372 470 372 471 l 372 402 q 370 399 372 399 l 308 399 q 306 402 306 399 l 306 470 q 308 472 306 472 m 236 472 l 291 472 q 294 470 294 471 l 294 469 q 291 467 294 467 l 236 467 q 233 469 233 467 l 233 470 q 236 472 234 472 m 344 532 l 412 532 q 427 518 422 526 l 429 501 q 433 496 433 501 l 432 487 q 430 484 432 484 l 351 484 q 347 490 348 490 q 342 492 342 490 l 342 530 q 344 532 342 532 m 267 532 l 334 532 q 336 530 336 532 l 336 487 q 334 484 336 484 l 248 484 q 246 487 246 484 l 246 500 q 252 503 246 503 l 252 518 q 260 529 257 526 q 267 532 264 532 m 477 441 q 475 444 475 441 l 475 454 q 467 460 467 454 q 462 467 463 460 q 456 472 456 467 q 450 474 450 472 l 450 503 q 445 505 445 503 l 445 521 q 439 523 439 521 l 439 538 l 429 538 q 427 545 427 538 l 416 545 q 414 550 414 545 l 264 550 q 262 545 264 545 l 252 545 q 246 538 252 538 q 239 532 246 532 l 239 523 q 233 521 239 521 l 233 505 q 228 503 233 503 l 228 474 q 221 471 228 473 q 216 465 221 465 q 210 460 216 460 l 210 450 q 203 447 210 449 q 201 441 203 441 l 145 441 q 140 442 142 441 q 137 453 136 444 l 138 464 q 143 495 138 467 q 145 503 144 498 l 149 511 q 149 513 149 512 q 155 526 151 514 q 159 533 157 528 q 167 545 161 538 q 170 550 168 547 l 174 555 q 196 580 184 568 q 227 604 211 593 l 228 604 l 228 605 q 248 616 238 611 q 341 637 290 637 q 421 622 385 637 l 422 622 q 432 617 427 620 l 432 616 l 434 616 q 436 616 435 616 l 435 616 q 456 605 446 611 l 456 604 l 456 604 q 488 580 473 593 q 510 555 500 568 l 513 550 q 517 545 515 547 q 525 533 522 538 q 528 526 527 528 q 534 513 533 514 q 535 511 534 512 l 538 503 q 541 495 539 498 q 546 464 546 467 l 547 453 q 544 443 547 445 l 544 441 l 477 441 m 446 273 l 445 273 l 445 271 q 439 268 442 269 l 432 264 q 425 261 429 262 l 421 261 l 421 260 q 409 255 415 257 l 403 253 q 388 250 395 251 l 385 250 l 385 249 q 341 245 363 245 q 275 254 306 245 l 275 255 l 274 255 q 246 267 260 260 l 246 268 l 243 268 q 209 291 225 277 l 209 292 l 208 292 q 202 296 205 294 l 202 297 l 201 297 q 197 302 199 299 q 196 304 196 302 l 194 304 q 191 307 193 306 l 191 309 l 189 309 q 184 315 186 312 l 184 315 l 183 315 q 178 321 181 318 l 178 322 l 177 322 q 174 327 176 324 q 163 343 165 340 q 157 351 160 346 q 155 356 157 353 q 149 372 149 369 q 144 382 146 382 q 143 387 144 385 q 138 414 138 412 l 138 433 q 140 436 138 436 l 201 436 q 203 433 203 435 l 203 394 q 210 392 210 394 l 210 382 q 216 379 216 382 l 216 346 l 221 340 l 246 340 l 252 346 l 252 374 q 254 376 252 376 l 273 376 q 275 369 275 376 l 403 369 q 405 376 403 376 l 425 376 q 427 374 427 376 l 427 345 l 432 340 l 452 340 l 463 349 l 463 379 q 469 393 472 383 l 475 396 l 475 433 q 477 436 475 436 l 538 436 q 541 433 541 435 l 541 414 q 535 384 541 412 q 530 372 535 382 q 523 353 530 369 q 517 342 523 351 q 513 340 515 341 q 511 336 513 338 q 510 334 511 335 q 505 324 507 330 q 496 312 499 314 q 490 306 493 309 q 484 302 488 304 q 481 300 482 301 l 480 299 q 477 296 479 296 q 475 294 476 295 q 471 290 475 292 q 469 289 469 290 q 464 285 468 286 q 463 284 463 284 l 463 282 q 449 273 456 277 l 448 273 q 446 273 447 273 l 446 273 m 104 192 q 156 191 113 191 q 164 214 161 202 q 177 209 172 211 q 167 191 173 205 q 199 192 189 191 l 199 182 q 155 182 189 182 l 153 171 l 186 171 q 185 134 185 157 q 186 102 185 113 l 114 102 q 115 134 115 115 q 115 171 115 155 l 140 171 l 143 182 q 104 182 113 182 l 104 192 m 65 157 q 81 157 75 157 l 94 157 q 93 138 93 148 l 93 105 q 143 92 108 92 q 198 94 179 92 q 194 81 195 87 q 155 80 172 80 q 127 82 138 81 q 110 85 117 83 q 96 93 103 88 q 84 93 89 98 q 73 80 79 89 q 63 89 68 85 q 82 105 72 94 l 82 148 q 65 147 73 148 l 65 157 m 174 111 l 174 123 l 127 123 l 127 111 l 174 111 m 174 131 l 174 142 l 127 142 l 127 131 l 174 131 m 174 151 l 174 161 l 127 161 l 127 151 l 174 151 m 82 177 q 75 203 79 187 q 87 206 81 204 q 94 181 91 195 q 82 177 88 180 m 127 214 q 140 198 135 204 q 131 192 135 195 q 119 208 127 199 q 127 214 123 210 m 268 100 q 212 82 229 88 q 208 93 211 87 q 217 95 213 94 l 217 131 q 216 143 217 136 l 227 143 q 227 128 227 138 l 227 98 q 237 100 231 98 l 237 158 l 218 158 q 218 178 218 164 q 218 199 218 193 l 262 199 q 261 178 261 193 q 262 158 261 164 l 246 158 l 246 138 q 260 138 253 138 l 260 127 q 246 128 253 128 l 246 102 q 268 110 252 104 q 268 100 267 105 m 298 205 q 291 194 294 201 l 333 194 q 322 174 329 184 q 310 155 315 163 q 343 140 323 145 q 336 130 338 134 q 320 138 330 133 q 304 149 311 142 q 288 138 296 142 q 268 129 279 134 q 262 138 266 134 q 279 144 269 140 q 296 155 289 149 q 279 174 290 160 q 272 162 275 167 q 264 168 269 165 q 276 186 270 174 q 286 210 282 197 q 298 205 292 205 m 328 131 q 327 105 327 123 q 328 78 327 87 l 317 78 l 317 89 l 284 89 l 284 77 l 274 77 q 275 105 275 87 q 274 131 275 123 l 328 131 m 317 98 l 317 122 l 284 122 l 284 98 l 317 98 m 252 167 l 252 190 l 228 190 l 228 167 l 252 167 m 285 182 q 302 161 292 172 q 311 173 306 165 q 317 186 315 180 l 287 186 l 285 182 m 387 151 q 407 118 397 127 q 430 154 422 134 q 441 146 435 151 q 415 111 428 125 q 471 92 434 96 q 464 79 465 84 q 406 104 427 86 q 349 78 381 85 q 342 90 347 85 q 397 111 377 94 q 376 146 384 127 q 387 151 382 149 m 362 177 q 345 176 353 177 l 345 188 l 361 186 l 451 186 q 470 188 460 187 l 470 176 q 451 177 460 176 l 362 177 m 391 168 q 357 138 383 160 q 346 146 352 143 q 366 161 357 153 q 379 176 374 170 q 391 168 385 172 m 433 176 q 446 166 435 174 q 466 151 456 158 q 455 142 459 146 q 422 168 450 149 q 433 176 427 172 m 408 213 q 416 192 414 200 q 403 188 408 190 q 394 209 399 197 q 408 213 401 212 m 608 210 q 591 193 600 201 q 576 178 583 184 l 609 178 q 608 153 608 165 l 608 113 q 604 103 609 106 q 591 100 600 101 q 585 112 589 105 q 596 114 593 113 q 599 124 599 115 l 573 124 l 573 101 l 562 101 l 562 124 l 537 124 l 537 101 l 527 101 q 528 138 528 119 q 527 178 528 157 l 561 178 q 548 190 558 182 q 555 197 552 193 q 570 186 566 190 q 585 201 579 195 l 547 201 q 528 200 536 201 l 528 210 q 547 210 536 210 l 608 210 m 511 163 q 511 142 511 151 l 511 108 q 563 94 525 94 q 619 97 602 94 q 615 83 616 90 q 550 84 570 82 q 519 92 531 85 q 503 93 507 98 q 493 79 499 89 q 483 89 488 85 q 500 104 492 97 l 500 153 q 486 153 496 153 l 486 163 q 511 163 496 163 m 599 134 l 599 147 l 573 147 l 573 134 l 599 134 m 562 134 l 562 147 l 537 147 l 537 134 l 562 134 m 599 157 l 599 169 l 573 169 l 573 157 l 599 157 m 562 157 l 562 169 l 537 169 l 537 157 l 562 157 m 502 209 q 517 187 511 195 q 507 179 511 184 q 492 202 503 188 q 502 209 496 205 z "},"F":{"ha":732,"x_min":6,"x_max":684,"o":"m 562 688 q 683 553 682 656 l 684 141 q 570 12 669 30 l 115 14 q 6 121 31 14 l 7 568 q 121 687 31 682 l 562 688 m 141 656 q 37 549 58 652 l 36 141 q 136 43 59 43 l 550 42 q 653 159 640 58 l 652 535 q 542 658 651 628 l 141 656 m 481 129 l 481 118 q 462 119 475 119 q 463 94 462 103 l 450 94 l 450 100 l 418 100 l 418 89 q 412 79 417 81 q 395 75 408 77 q 389 88 393 81 q 403 89 399 88 q 406 92 406 89 l 406 100 l 372 100 q 357 100 366 100 l 357 111 q 372 110 366 110 l 406 110 l 406 119 l 361 119 q 346 118 353 119 l 346 129 l 406 129 l 406 137 l 372 137 q 357 136 365 137 l 357 147 q 372 146 365 146 l 406 146 l 406 155 l 364 155 q 365 171 365 163 q 364 186 365 179 l 406 186 l 406 195 l 363 195 q 345 194 354 195 l 345 205 q 363 204 354 204 l 406 204 l 406 215 l 418 215 l 418 204 l 458 204 q 480 205 469 204 l 480 194 q 458 195 469 195 l 418 195 l 418 186 l 461 186 q 460 171 460 179 q 461 155 460 163 l 418 155 l 418 146 l 463 146 q 462 129 462 140 l 481 129 m 449 164 l 449 176 l 418 176 l 418 164 l 449 164 m 406 164 l 406 176 l 376 176 l 376 164 l 406 164 m 450 110 l 450 119 l 418 119 l 418 110 l 450 110 m 450 129 l 450 137 l 418 137 l 418 129 l 450 129 m 577 190 l 606 190 q 628 191 618 190 l 628 180 l 611 180 q 606 147 610 165 q 593 113 602 130 q 609 99 599 106 q 627 89 619 92 q 618 78 623 85 q 586 104 600 89 q 567 89 578 96 q 549 78 557 82 q 541 88 546 84 q 578 113 565 98 q 568 138 572 124 q 562 163 564 151 q 554 152 557 157 q 545 159 551 157 q 562 184 553 167 q 574 220 571 201 q 588 214 581 216 q 584 205 587 212 q 577 190 581 199 m 513 197 q 513 214 513 205 l 526 214 q 524 197 524 205 l 524 184 q 553 184 543 184 l 553 174 q 524 174 543 174 l 524 148 l 545 148 q 544 121 544 138 q 545 94 544 105 l 533 94 l 533 101 l 503 101 l 503 89 l 492 89 q 492 118 492 100 q 492 148 492 137 l 513 148 l 513 174 q 486 174 494 174 l 486 184 q 513 184 494 184 l 513 197 m 572 168 q 577 141 574 154 q 585 122 581 129 q 595 148 591 132 q 599 180 598 163 l 572 180 q 564 166 568 173 l 572 168 m 533 111 l 533 138 l 503 138 l 503 111 l 533 111 m 150 158 q 179 190 174 178 q 191 178 186 184 q 176 166 183 173 q 155 149 168 160 q 173 126 160 138 q 203 108 185 113 q 191 96 193 103 q 156 126 168 110 q 137 160 144 143 l 137 94 q 131 81 138 85 q 113 77 124 78 q 107 91 112 83 q 121 91 117 90 q 125 98 125 92 l 125 193 q 124 217 125 208 l 138 217 q 137 201 138 208 q 139 183 137 194 q 150 158 140 173 m 116 178 q 109 150 113 163 q 97 124 104 136 q 73 95 89 111 q 60 104 68 100 q 87 132 77 116 q 102 168 97 147 l 85 168 q 65 167 77 168 l 65 179 q 85 178 76 178 l 116 178 m 275 192 l 275 167 l 309 167 q 332 168 321 167 l 332 154 q 307 155 319 155 l 275 155 l 275 94 l 322 94 q 343 95 331 94 l 343 82 q 322 83 332 83 l 227 83 q 205 82 218 83 l 205 95 q 227 94 217 94 l 262 94 l 262 191 q 261 211 262 200 l 275 211 q 275 192 275 201 m 125 223 l 133 223 q 135 221 135 223 l 133 220 l 125 220 q 123 222 123 220 l 125 223 m 402 223 l 410 223 q 412 221 412 223 l 410 220 l 402 220 q 400 222 400 220 l 402 223 m 503 223 l 511 223 q 513 221 513 223 l 511 220 l 503 220 q 501 222 501 220 l 503 223 m 559 223 l 567 223 q 569 221 569 223 l 567 220 l 559 220 q 557 222 557 220 l 559 223 m 534 446 q 476 306 534 364 q 335 248 418 248 q 195 306 253 248 q 136 446 136 364 q 195 586 136 528 q 335 644 253 644 q 476 586 418 644 q 534 446 534 528 m 337 610 q 221 561 269 610 q 173 444 173 513 q 221 326 173 374 q 337 277 269 277 q 453 326 405 277 q 501 444 501 374 q 453 561 501 513 q 337 610 405 610 m 138 441 l 138 436 l 170 436 l 170 441 l 138 441 m 505 445 l 505 439 l 532 439 l 532 445 l 505 445 m 352 374 q 368 357 362 370 l 386 357 q 425 380 412 363 l 427 382 l 412 393 q 461 452 444 411 l 460 380 l 460 366 l 440 376 q 402 345 422 350 l 373 330 q 342 315 359 320 q 339 315 340 315 q 311 335 321 322 q 241 376 258 350 l 220 366 l 220 380 l 220 452 q 269 393 237 411 l 254 382 l 256 380 q 295 357 269 363 l 313 357 q 330 374 319 370 l 330 475 l 251 475 l 251 503 l 276 503 q 278 498 278 503 l 330 498 l 330 538 q 315 547 321 541 q 304 572 304 557 q 315 597 304 587 q 335 607 323 606 l 335 583 q 330 579 332 582 q 326 571 326 576 q 330 563 326 566 q 338 560 333 560 q 347 563 343 560 q 350 571 350 566 q 347 579 350 576 q 341 583 345 581 l 340 583 l 340 607 q 365 597 355 606 q 375 572 375 587 q 365 547 375 557 q 351 539 359 542 l 352 539 l 352 498 l 403 498 q 405 503 403 503 l 422 503 q 425 501 425 503 l 425 477 q 422 475 425 475 l 352 475 l 352 374 z "},"G":{"ha":1003,"x_min":6,"x_max":684,"o":"m 562 688 q 683 553 682 656 l 684 141 q 570 12 669 30 l 115 14 q 6 121 31 14 l 7 568 q 121 687 31 682 l 562 688 m 141 656 q 37 549 58 652 l 36 141 q 136 43 59 43 l 550 42 q 653 159 640 58 l 652 535 q 542 658 651 628 l 141 656 m 481 129 l 481 118 q 462 119 475 119 q 463 94 462 103 l 450 94 l 450 100 l 418 100 l 418 89 q 412 79 417 81 q 395 75 408 77 q 389 88 393 81 q 403 89 399 88 q 406 92 406 89 l 406 100 l 372 100 q 357 100 366 100 l 357 111 q 372 110 366 110 l 406 110 l 406 119 l 361 119 q 346 118 353 119 l 346 129 l 406 129 l 406 137 l 372 137 q 357 136 365 137 l 357 147 q 372 146 365 146 l 406 146 l 406 155 l 364 155 q 365 171 365 163 q 364 186 365 179 l 406 186 l 406 195 l 363 195 q 345 194 354 195 l 345 205 q 363 204 354 204 l 406 204 l 406 215 l 418 215 l 418 204 l 458 204 q 480 205 469 204 l 480 194 q 458 195 469 195 l 418 195 l 418 186 l 461 186 q 460 171 460 179 q 461 155 460 163 l 418 155 l 418 146 l 463 146 q 462 129 462 140 l 481 129 m 449 164 l 449 176 l 418 176 l 418 164 l 449 164 m 406 164 l 406 176 l 376 176 l 376 164 l 406 164 m 450 110 l 450 119 l 418 119 l 418 110 l 450 110 m 450 129 l 450 137 l 418 137 l 418 129 l 450 129 m 577 190 l 606 190 q 628 191 618 190 l 628 180 l 611 180 q 606 147 610 165 q 593 113 602 130 q 609 99 599 106 q 627 89 619 92 q 618 78 623 85 q 586 104 600 89 q 567 89 578 96 q 549 78 557 82 q 541 88 546 84 q 578 113 565 98 q 568 138 572 124 q 562 163 564 151 q 554 152 557 157 q 545 159 551 157 q 562 184 553 167 q 574 220 571 201 q 588 214 581 216 q 584 205 587 212 q 577 190 581 199 m 513 197 q 513 214 513 205 l 526 214 q 524 197 524 205 l 524 184 q 553 184 543 184 l 553 174 q 524 174 543 174 l 524 148 l 545 148 q 544 121 544 138 q 545 94 544 105 l 533 94 l 533 101 l 503 101 l 503 89 l 492 89 q 492 118 492 100 q 492 148 492 137 l 513 148 l 513 174 q 486 174 494 174 l 486 184 q 513 184 494 184 l 513 197 m 572 168 q 577 141 574 154 q 585 122 581 129 q 595 148 591 132 q 599 180 598 163 l 572 180 q 564 166 568 173 l 572 168 m 533 111 l 533 138 l 503 138 l 503 111 l 533 111 m 318 646 l 320 646 q 339 627 339 644 q 326 610 339 619 l 311 610 q 298 623 309 610 l 298 633 q 318 646 306 646 m 365 646 q 387 627 387 646 q 370 610 385 610 l 359 610 q 348 629 348 616 q 365 646 350 646 m 252 604 l 427 604 q 468 552 468 596 l 468 515 q 459 500 468 504 l 451 500 q 446 505 446 500 l 446 530 q 427 550 444 550 l 252 550 q 241 537 248 550 l 241 509 q 232 500 241 506 l 226 500 q 219 507 222 500 l 219 556 q 252 604 219 591 m 453 498 l 459 498 q 468 484 468 495 l 468 401 q 462 395 468 399 l 442 395 q 420 408 429 408 l 414 408 q 401 391 401 403 q 423 372 401 374 q 440 387 429 372 l 462 387 q 468 380 463 387 q 431 335 468 349 l 256 335 q 219 378 219 347 l 219 382 q 223 387 220 387 l 243 387 q 262 372 252 376 l 271 372 q 283 385 279 376 l 283 391 q 273 408 283 403 l 264 408 q 243 395 253 408 l 226 395 q 219 401 222 395 l 219 492 q 223 496 220 496 l 234 496 q 241 490 237 496 l 241 471 q 262 451 241 451 l 425 451 q 446 475 445 451 l 446 492 q 453 498 446 495 m 258 329 l 275 329 q 281 311 279 329 l 395 311 q 410 329 408 311 l 429 329 l 440 311 q 455 305 455 311 l 455 290 q 442 283 453 283 l 239 283 q 232 303 232 283 q 252 314 232 311 q 258 329 252 329 m 258 277 l 273 277 q 281 262 279 277 l 401 262 q 414 277 412 277 l 427 277 q 436 262 436 274 l 442 262 q 455 256 455 261 l 455 239 q 433 230 455 233 q 427 219 433 219 l 420 219 q 401 232 412 219 l 283 232 q 267 219 277 219 l 264 219 q 247 232 254 219 q 232 245 232 232 q 245 262 232 262 q 258 277 249 262 m 133 201 q 127 186 130 197 l 142 186 q 141 217 142 209 q 155 216 147 216 q 153 203 153 210 q 153 186 153 196 q 182 187 174 186 l 182 176 q 153 177 174 177 q 153 147 153 163 l 170 147 q 189 148 180 147 l 189 137 q 170 138 180 138 l 155 138 q 174 106 163 119 q 194 90 184 94 q 184 78 186 84 q 161 102 170 89 q 149 126 153 115 q 133 98 143 110 q 108 77 123 87 q 98 86 104 83 q 125 108 115 94 q 139 137 136 121 q 106 136 116 137 l 106 147 l 141 147 q 142 177 142 162 l 124 177 l 117 157 q 106 161 113 159 q 115 184 112 172 q 119 205 119 197 q 133 201 126 203 m 87 209 q 76 193 84 205 l 90 193 q 108 193 96 193 l 108 182 q 90 183 96 183 l 71 183 q 62 168 67 176 q 81 167 71 167 q 101 168 92 167 l 101 157 q 82 158 92 158 l 82 140 q 102 140 92 140 l 102 130 q 82 130 92 130 l 82 101 q 102 117 93 109 q 108 106 104 111 q 92 95 101 102 q 75 80 82 87 q 67 91 71 87 q 71 100 71 95 l 71 130 q 55 130 64 130 l 55 140 q 71 140 64 140 l 71 158 q 59 157 68 158 l 59 165 l 56 161 q 49 170 53 165 q 64 191 56 177 q 74 214 71 205 q 87 209 80 211 m 262 100 q 203 81 221 88 q 198 93 202 86 q 208 96 204 94 l 208 134 q 208 146 208 138 l 220 146 q 219 130 219 141 l 219 98 q 229 101 223 99 l 229 162 l 209 162 q 210 183 210 168 q 209 205 210 199 l 256 205 q 255 183 255 198 q 256 162 255 169 l 239 162 l 239 140 q 254 141 247 140 l 254 130 q 239 130 247 130 l 239 103 q 262 111 245 104 q 262 100 261 106 m 294 212 q 287 200 290 208 l 331 200 q 319 178 326 190 q 307 159 313 167 q 342 143 320 148 q 334 132 337 137 q 317 141 327 136 q 300 152 308 146 q 283 141 292 146 q 262 131 273 136 q 256 142 260 136 q 274 148 264 143 q 292 158 284 152 q 275 178 286 164 q 267 166 270 171 q 258 173 263 170 q 271 191 264 179 q 281 216 277 203 q 294 212 288 212 m 326 134 q 325 106 325 125 q 326 77 325 86 l 314 77 l 314 89 l 279 89 l 279 77 l 269 77 q 269 106 269 87 q 269 134 269 125 l 326 134 m 314 98 l 314 124 l 279 124 l 279 98 l 314 98 m 245 171 l 245 196 l 220 196 l 220 171 l 245 171 m 280 186 q 298 165 287 176 q 307 178 302 170 q 315 191 312 186 l 282 191 l 280 186 z "},"H":{"ha":1071,"x_min":6,"x_max":684,"o":"m 562 688 q 683 553 682 656 l 684 141 q 570 12 669 30 l 115 14 q 6 121 31 14 l 7 568 q 121 687 31 682 l 562 688 m 141 656 q 37 549 58 652 l 36 141 q 136 43 59 43 l 550 42 q 653 159 640 58 l 652 535 q 542 658 651 628 l 141 656 m 248 631 l 435 631 q 460 573 460 619 q 484 446 467 553 q 499 375 488 441 q 502 366 502 375 l 502 364 q 469 332 490 332 l 202 332 q 178 353 191 337 l 178 366 q 189 435 178 389 q 209 547 196 456 q 224 616 218 574 q 248 631 239 631 m 271 595 l 273 584 l 400 584 q 407 597 407 586 q 387 608 403 608 l 288 608 q 271 595 271 608 m 231 450 q 248 435 231 437 l 435 435 q 448 450 444 441 q 424 549 439 476 q 394 558 414 558 l 293 558 q 252 543 252 558 l 231 450 m 224 386 q 252 362 224 366 q 271 384 271 370 l 271 390 q 254 412 271 403 l 243 412 q 224 386 224 401 m 405 388 l 405 386 q 429 362 405 366 q 452 390 451 362 q 433 412 450 405 l 424 412 q 405 388 405 403 m 248 313 l 284 313 q 291 306 288 313 q 284 289 284 297 l 288 287 l 400 287 q 396 311 396 305 l 400 313 l 424 313 q 454 278 437 313 q 478 246 462 272 l 478 241 q 473 237 478 237 l 431 237 q 416 259 427 237 l 411 261 l 267 261 q 248 237 261 237 l 202 237 q 198 243 198 237 q 248 313 243 311 m 168 165 q 180 160 173 162 q 176 142 178 152 q 170 123 174 133 q 164 108 167 113 q 174 95 170 98 q 180 108 178 93 q 191 100 185 103 q 184 84 188 91 q 175 79 180 77 q 165 88 170 82 q 157 99 160 94 q 146 88 152 94 q 132 77 140 82 q 123 86 128 83 q 139 97 132 91 q 151 110 145 102 q 143 143 145 124 q 140 178 141 163 l 110 178 l 110 157 l 135 157 q 134 138 134 149 l 134 114 q 128 100 134 103 q 114 95 123 97 q 110 109 113 103 q 122 110 120 109 q 124 117 124 112 l 124 146 l 110 146 q 109 127 110 138 q 103 104 108 116 q 87 79 98 92 q 76 86 83 83 q 93 109 87 98 q 98 130 98 120 q 99 157 99 140 q 99 187 99 174 l 140 187 q 138 214 140 199 q 151 212 145 212 q 150 187 149 203 l 159 187 q 184 188 172 187 l 184 177 q 159 178 172 178 l 151 178 q 153 150 151 165 q 158 120 154 136 q 164 141 162 129 q 168 165 166 153 m 92 113 q 73 107 82 111 q 56 99 63 104 q 51 113 53 107 q 68 116 57 113 l 68 163 q 53 163 60 163 l 53 174 q 68 173 60 173 l 68 194 q 67 209 68 200 l 79 209 q 78 194 78 201 l 78 173 q 92 174 85 173 l 92 163 q 78 163 85 163 l 78 120 q 92 124 85 121 q 92 113 92 118 m 168 213 q 180 195 176 203 q 170 189 174 193 q 158 208 165 199 q 168 213 163 210 m 296 189 q 326 190 310 189 l 326 178 q 296 178 310 178 l 266 178 l 266 159 l 311 159 q 310 137 310 149 l 310 109 q 303 95 310 99 q 284 91 296 92 q 279 104 283 98 q 295 105 292 104 q 298 111 298 106 l 298 149 l 266 149 l 266 102 q 267 77 266 87 l 253 77 q 254 102 254 87 l 254 149 l 220 149 l 220 91 l 208 91 q 208 113 208 100 l 208 135 q 208 159 208 149 l 254 159 l 254 178 l 223 178 q 193 178 208 178 l 193 190 q 223 189 208 189 l 296 189 m 254 214 q 269 195 261 208 q 258 190 262 193 q 245 208 253 199 q 254 214 250 212 m 401 123 q 400 113 400 118 q 379 110 395 113 q 380 76 379 86 l 368 76 q 368 107 368 86 q 338 100 347 103 q 334 114 336 107 q 368 117 342 114 l 368 140 q 355 139 362 140 q 342 136 348 138 l 336 149 q 346 158 342 150 q 355 180 351 166 q 338 180 345 180 l 338 191 q 358 190 345 190 q 363 214 363 205 q 377 209 370 212 q 369 190 374 204 l 384 190 q 400 191 396 190 l 400 180 q 384 180 394 180 l 367 180 q 352 149 359 163 l 368 149 q 368 170 368 160 l 380 170 q 379 149 379 161 q 400 149 389 149 l 400 139 q 379 140 387 140 l 379 119 q 401 123 389 120 m 473 99 q 465 83 468 84 q 457 82 463 82 l 452 82 q 439 95 439 82 l 444 170 l 428 170 q 425 138 427 152 q 418 110 422 123 q 401 79 413 96 q 389 86 395 83 q 403 104 397 95 q 412 126 408 114 q 418 170 416 138 q 401 170 408 170 l 401 179 q 418 178 408 178 q 419 213 419 199 q 432 211 425 212 q 429 178 430 204 l 456 178 q 454 158 454 167 l 451 99 q 453 92 451 92 q 458 92 456 91 q 462 104 460 92 q 473 99 468 100 m 518 191 q 572 191 527 191 q 581 213 576 201 q 593 208 588 210 q 583 191 589 204 q 615 191 606 191 l 615 180 q 571 181 606 181 l 568 170 l 602 170 q 602 132 602 155 q 602 99 602 111 l 529 99 q 530 132 530 112 q 530 170 530 153 l 556 170 l 559 181 q 518 180 527 181 l 518 191 m 479 156 q 496 155 489 155 l 508 155 q 507 136 507 146 l 507 103 q 559 89 522 89 q 614 92 595 89 q 610 78 612 85 q 571 78 587 77 q 543 79 554 78 q 525 83 532 80 q 511 90 518 85 q 498 91 503 95 q 488 77 494 86 q 477 86 482 82 q 496 102 486 92 l 496 146 q 479 145 488 146 l 479 156 m 590 109 l 590 120 l 542 120 l 542 109 l 590 109 m 590 129 l 590 140 l 542 140 l 542 129 l 590 129 m 590 149 l 590 160 l 542 160 l 542 149 l 590 149 m 496 176 q 489 202 494 186 q 501 205 496 203 q 509 180 505 194 q 496 176 503 178 m 543 213 q 555 197 551 204 q 546 191 551 195 q 534 207 542 198 q 543 213 538 210 z "},"I":{"ha":449,"x_min":9,"x_max":687,"o":"m 565 688 q 686 553 685 656 l 687 141 q 574 12 673 30 l 119 14 q 9 121 35 14 l 10 568 q 125 687 34 682 l 565 688 m 144 656 q 40 549 62 652 l 39 141 q 139 43 62 43 l 553 42 q 656 159 644 58 l 656 535 q 545 658 654 628 l 144 656 m 485 129 l 485 118 q 465 119 479 119 q 466 94 465 103 l 454 94 l 454 100 l 421 100 l 421 89 q 416 79 420 81 q 398 75 411 77 q 392 88 397 81 q 406 89 403 88 q 410 92 410 89 l 410 100 l 376 100 q 360 100 370 100 l 360 111 q 376 110 370 110 l 410 110 l 410 119 l 364 119 q 349 118 357 119 l 349 129 l 410 129 l 410 137 l 375 137 q 360 136 368 137 l 360 147 q 375 146 368 146 l 410 146 l 410 155 l 368 155 q 368 171 368 163 q 368 186 368 179 l 410 186 l 410 195 l 367 195 q 349 194 357 195 l 349 205 q 366 204 357 204 l 410 204 l 410 215 l 421 215 l 421 204 l 462 204 q 484 205 472 204 l 484 194 q 462 195 472 195 l 421 195 l 421 186 l 465 186 q 464 171 464 179 q 465 155 464 163 l 421 155 l 421 146 l 466 146 q 465 129 465 140 l 485 129 m 452 164 l 452 176 l 421 176 l 421 164 l 452 164 m 410 164 l 410 176 l 379 176 l 379 164 l 410 164 m 454 110 l 454 119 l 421 119 l 421 110 l 454 110 m 454 129 l 454 137 l 421 137 l 421 129 l 454 129 m 581 190 l 609 190 q 631 191 622 190 l 631 180 l 614 180 q 609 147 613 165 q 596 113 606 130 q 612 99 602 106 q 631 89 623 92 q 621 78 626 85 q 589 104 603 89 q 571 89 581 96 q 552 78 560 82 q 544 88 549 84 q 582 113 568 98 q 571 138 575 124 q 565 163 568 151 q 557 152 561 157 q 549 159 554 157 q 565 184 556 167 q 578 220 574 201 q 591 214 584 216 q 587 205 590 212 q 581 190 584 199 m 517 197 q 516 214 517 205 l 529 214 q 528 197 528 205 l 528 184 q 556 184 547 184 l 556 174 q 528 174 547 174 l 528 148 l 548 148 q 547 121 547 138 q 548 94 547 105 l 536 94 l 536 101 l 507 101 l 507 89 l 495 89 q 496 118 496 100 q 495 148 496 137 l 517 148 l 517 174 q 489 174 497 174 l 489 184 q 517 184 497 184 l 517 197 m 576 168 q 581 141 577 154 q 589 122 585 129 q 598 148 595 132 q 602 180 602 163 l 575 180 q 567 166 571 173 l 576 168 m 536 111 l 536 138 l 507 138 l 507 111 l 536 111 m 281 627 q 331 577 295 627 l 331 575 l 352 575 q 373 565 372 571 l 373 559 q 354 548 368 548 l 354 544 q 383 519 371 519 l 402 519 q 410 511 406 519 l 410 503 q 394 494 410 496 q 429 452 417 462 l 477 452 q 542 429 542 448 q 481 408 542 414 l 433 408 q 396 371 421 408 l 396 368 q 410 352 408 368 q 371 339 409 342 l 352 314 q 373 304 373 309 l 373 298 q 356 287 368 287 l 336 287 l 290 235 l 277 235 q 269 243 274 235 l 269 254 q 336 396 300 308 l 336 406 l 315 408 l 296 408 q 288 410 291 408 q 220 383 220 404 q 208 352 216 382 q 181 339 189 339 q 175 352 175 347 q 179 391 179 377 l 179 406 q 150 454 150 447 q 170 463 152 463 q 212 431 195 455 l 224 431 q 262 448 249 448 l 269 448 l 269 437 q 279 433 269 433 l 279 420 l 296 420 l 296 427 l 300 441 l 298 452 l 309 452 q 336 460 336 454 q 269 609 309 539 l 269 619 q 281 627 269 623 m 132 162 q 157 195 146 175 q 170 184 163 190 q 157 173 165 181 q 142 157 149 164 q 159 145 153 149 q 174 136 164 142 q 164 123 168 131 q 149 136 158 130 q 132 149 140 143 q 136 125 133 136 q 145 106 139 115 q 157 94 151 98 q 166 96 164 91 q 170 111 168 100 q 182 103 176 106 q 174 82 178 88 q 160 78 170 77 q 141 90 151 80 q 126 114 132 99 q 121 149 121 130 q 121 193 120 169 l 68 193 q 50 192 60 193 l 50 204 q 67 203 60 203 l 133 203 q 132 182 132 192 l 132 162 m 314 167 q 334 168 325 167 l 334 155 q 314 156 325 156 l 306 156 l 306 91 q 301 81 307 84 q 281 77 296 79 q 275 91 280 84 q 289 90 285 90 q 294 96 294 90 l 294 156 l 270 156 q 249 155 259 156 l 249 168 q 270 167 260 167 l 314 167 m 242 174 q 234 166 237 171 q 227 154 231 161 l 227 100 q 227 77 227 93 l 215 77 q 216 104 216 94 l 216 142 q 201 123 210 133 q 193 134 197 130 q 215 159 207 147 q 229 182 222 171 q 242 174 235 178 m 304 207 q 324 208 314 207 l 324 197 q 302 197 314 197 l 280 197 q 258 197 267 197 l 258 208 q 280 207 267 207 l 304 207 m 237 210 q 224 197 232 210 q 203 170 216 185 q 195 179 199 175 q 213 200 205 189 q 224 219 220 211 q 237 210 230 216 z "},"J":{"ha":446,"x_min":6,"x_max":684,"o":"m 562 688 q 683 553 682 656 l 684 141 q 570 12 669 30 l 115 14 q 6 121 31 14 l 7 568 q 121 687 31 682 l 562 688 m 141 656 q 37 549 58 652 l 36 141 q 136 43 59 43 l 550 42 q 653 159 640 58 l 652 535 q 542 658 651 628 l 141 656 m 332 621 l 355 621 q 361 615 358 621 l 361 588 q 399 574 361 583 l 418 565 q 437 590 434 590 l 445 590 q 472 563 472 572 l 453 536 l 453 530 q 466 522 456 530 q 493 534 468 522 l 497 534 q 518 498 509 521 q 486 479 513 494 l 486 475 q 491 452 491 455 l 491 446 l 505 444 l 524 444 q 530 433 529 444 q 520 398 530 398 l 493 398 q 480 371 480 389 l 480 367 q 507 346 507 356 q 484 315 500 328 q 464 327 477 315 l 449 327 q 439 315 447 327 q 453 290 439 303 l 453 283 q 420 262 433 262 l 418 262 q 397 290 415 262 q 361 267 361 290 l 361 250 q 355 243 361 247 l 332 243 q 319 250 321 243 l 319 267 q 300 286 319 286 l 269 296 l 267 296 q 244 271 248 271 l 242 271 q 213 294 227 279 l 213 302 l 230 325 q 213 344 223 339 q 188 331 199 338 l 182 331 q 163 367 177 331 l 163 369 q 186 381 163 374 l 192 390 q 186 417 191 417 l 157 417 q 153 421 153 417 l 153 454 q 159 460 153 457 l 186 460 q 201 490 189 460 l 201 492 q 172 513 191 503 q 194 551 172 524 l 199 551 q 228 534 220 534 l 240 549 l 240 553 q 226 580 226 571 q 259 601 226 589 q 282 576 263 600 l 284 576 q 319 588 319 582 l 319 615 q 332 621 321 621 m 226 433 q 288 329 226 370 q 326 319 323 319 l 353 319 q 416 348 402 329 q 453 433 453 379 q 376 540 453 509 q 347 547 358 547 l 332 547 q 259 513 298 547 q 226 433 226 473 m 326 524 l 355 524 q 426 469 392 524 q 432 433 432 449 q 359 340 432 367 l 323 340 q 261 388 261 365 q 248 433 252 388 q 315 522 248 498 q 326 524 319 524 m 300 431 q 340 392 308 392 q 378 421 363 392 l 378 444 q 336 471 366 471 q 300 431 300 465 m 144 166 l 144 187 l 136 187 q 119 186 126 187 l 119 197 q 136 196 125 196 l 144 196 q 143 213 144 208 l 155 213 q 155 196 155 208 l 168 196 q 184 197 176 196 l 184 186 q 168 187 178 187 l 155 187 l 155 166 l 176 166 q 193 167 185 166 l 193 157 q 178 157 185 157 l 172 157 l 172 140 q 191 140 185 140 l 191 130 q 172 130 184 130 l 172 92 q 167 83 172 85 q 149 79 163 80 q 144 92 148 85 q 159 92 155 91 q 162 97 162 92 l 162 130 l 134 130 q 117 130 124 130 l 117 140 q 134 140 123 140 l 162 140 l 162 157 l 133 157 q 115 157 123 157 l 115 167 q 133 166 123 166 l 144 166 m 77 192 q 73 176 75 189 l 85 176 l 85 195 q 85 213 85 204 l 97 213 q 96 195 96 205 l 96 176 q 111 177 104 176 l 111 167 q 96 168 104 168 l 96 142 q 111 147 103 144 q 112 138 111 142 q 96 131 106 135 l 96 99 q 96 79 96 90 l 85 79 q 85 99 85 90 l 85 127 q 64 117 71 121 q 58 130 62 123 q 85 138 65 130 l 85 168 l 71 168 q 66 150 68 157 q 56 153 61 153 q 62 174 59 161 q 65 195 64 186 q 77 192 72 193 m 134 121 q 142 101 138 111 q 132 97 137 100 q 123 117 127 109 q 134 121 129 119 m 298 184 q 298 214 298 207 l 310 214 q 309 184 309 208 l 339 184 q 338 168 338 178 l 338 128 q 339 114 338 122 l 328 114 l 328 125 l 309 125 l 309 101 q 310 77 309 86 l 298 77 q 298 101 298 86 l 298 125 l 280 125 l 280 112 l 269 112 q 269 127 269 119 l 269 166 q 269 184 269 178 l 298 184 m 210 168 q 230 167 218 167 l 234 167 l 234 192 q 215 187 229 191 q 210 198 212 193 q 234 201 222 198 q 256 210 245 205 q 264 199 259 205 q 254 197 258 198 q 245 195 250 196 l 245 167 q 264 168 252 167 l 264 157 q 245 157 252 157 l 245 98 q 245 78 245 90 l 234 78 q 234 98 234 90 l 234 136 q 226 117 230 124 q 216 101 222 111 q 208 112 212 107 q 222 132 215 121 q 231 157 229 144 l 222 157 q 210 157 215 157 l 210 168 m 298 134 l 298 176 l 280 176 l 280 134 l 298 134 m 328 134 l 328 176 l 309 176 l 309 134 l 328 134 m 256 150 q 261 142 258 146 q 267 130 264 138 q 257 124 262 127 q 252 135 254 131 q 247 144 250 139 q 256 150 250 146 m 394 151 q 414 150 403 150 l 466 150 q 457 127 463 140 q 440 103 451 115 q 483 90 458 91 q 476 79 478 85 q 432 96 451 83 q 414 86 425 92 q 391 77 404 81 q 383 86 389 82 q 407 93 395 88 q 424 104 418 98 q 403 141 411 117 l 394 141 l 394 151 m 452 157 q 442 165 443 157 l 442 197 l 417 197 q 413 171 417 180 q 397 153 410 162 q 388 159 395 157 q 404 182 402 169 q 406 205 406 195 l 454 205 q 454 189 454 199 l 454 173 q 457 168 454 168 q 466 167 460 167 q 479 168 471 168 q 479 157 477 162 l 452 157 m 380 167 q 379 144 379 157 l 379 109 q 391 123 387 116 q 397 111 393 117 q 384 97 390 104 q 372 83 377 91 q 363 94 368 90 q 368 106 368 98 l 368 157 q 348 157 356 157 l 348 168 q 363 167 355 167 l 380 167 m 432 111 q 450 141 444 123 l 414 141 q 432 111 418 123 m 365 212 q 387 188 374 204 q 378 180 383 185 q 357 204 368 194 q 365 212 361 206 m 594 140 q 593 109 593 130 q 594 79 593 90 l 583 79 l 583 86 l 518 86 l 518 79 l 507 79 q 508 109 508 90 q 507 140 508 130 l 594 140 m 489 136 q 483 147 488 142 q 514 152 497 149 q 541 161 531 155 q 519 180 528 172 q 503 165 513 174 q 494 172 498 170 q 529 215 517 189 q 541 210 535 212 l 536 205 q 531 198 535 203 l 595 198 q 581 178 589 188 q 562 161 573 169 q 588 153 570 156 q 619 151 606 150 q 614 139 615 146 q 579 144 593 142 q 551 154 566 146 q 517 142 535 146 q 489 136 500 138 m 526 188 q 552 166 537 176 q 578 190 564 174 l 527 190 l 526 188 m 583 117 l 583 131 l 555 131 l 555 117 l 583 117 m 545 117 l 545 131 l 518 131 l 518 117 l 545 117 m 583 96 l 583 109 l 555 109 l 555 96 l 583 96 m 545 96 l 545 109 l 518 109 l 518 96 l 545 96 z "},"K":{"ha":937,"x_min":6,"x_max":684,"o":"m 562 688 q 683 553 682 656 l 684 141 q 570 12 669 30 l 115 14 q 6 121 31 14 l 7 568 q 121 687 31 682 l 562 688 m 141 656 q 37 549 58 652 l 36 141 q 136 43 59 43 l 550 42 q 653 159 640 58 l 652 535 q 542 658 651 628 l 141 656 m 325 629 q 374 611 349 629 q 361 603 371 603 l 361 601 l 363 596 l 357 592 l 330 592 q 276 557 279 570 l 276 551 q 328 496 276 548 q 357 472 349 472 l 359 472 q 398 515 364 474 q 393 532 393 523 l 393 551 q 426 605 404 591 q 469 620 444 620 l 481 620 q 486 616 486 619 l 486 611 q 449 568 465 593 q 467 532 453 532 l 490 532 q 530 575 491 532 l 532 575 q 537 570 537 574 l 537 534 q 507 487 531 508 q 475 472 481 472 l 439 472 l 404 434 q 430 406 404 423 q 528 314 430 404 l 530 310 l 530 305 q 481 254 530 303 l 477 254 q 359 380 363 380 l 357 380 q 334 351 348 372 q 338 320 338 327 q 297 250 338 283 l 263 239 l 250 239 q 244 245 247 239 q 272 277 254 262 q 280 292 272 281 l 280 297 q 263 329 276 329 q 244 331 252 329 q 222 310 237 331 q 197 286 200 286 l 193 292 l 193 320 q 231 378 193 351 q 280 389 250 389 l 289 389 l 319 423 l 321 423 q 259 498 321 439 q 237 515 249 509 q 208 483 212 515 q 189 462 190 462 l 184 462 q 143 505 154 487 q 180 528 153 521 q 201 564 201 540 q 325 629 258 629 m 91 198 q 90 214 91 207 l 102 214 q 102 198 102 206 l 144 198 q 144 214 144 207 l 156 214 q 155 198 155 206 l 164 198 q 181 199 171 198 l 181 189 q 164 190 171 190 l 155 190 l 155 144 l 168 144 q 191 144 180 144 l 191 134 q 169 135 181 135 l 155 135 q 172 120 163 125 q 193 113 180 115 q 186 100 187 106 q 160 116 171 106 q 142 135 149 125 l 107 135 q 89 115 100 123 q 62 100 77 106 q 55 111 60 105 q 77 120 65 113 q 94 135 89 127 l 79 135 q 58 134 68 135 l 58 144 q 79 144 68 144 l 91 144 l 91 190 q 66 189 77 190 l 66 199 q 87 198 77 198 l 91 198 m 118 114 q 117 128 118 119 l 130 128 q 129 114 129 122 l 140 114 q 156 114 149 114 l 156 103 q 140 104 149 104 l 129 104 l 129 89 l 155 89 q 179 90 168 89 l 179 79 q 155 79 168 79 l 91 79 q 68 79 79 79 l 68 90 q 91 89 79 89 l 118 89 l 118 104 l 109 104 q 90 104 98 104 l 90 114 q 107 114 98 114 l 118 114 m 144 144 l 144 154 l 102 154 l 102 144 l 144 144 m 144 180 l 144 190 l 102 190 l 102 180 l 144 180 m 144 163 l 144 171 l 102 171 l 102 163 l 144 163 m 275 198 q 275 180 275 191 l 275 161 l 293 161 l 293 198 q 292 216 292 208 l 304 216 q 303 198 303 208 l 303 161 l 321 161 l 321 183 q 320 198 321 193 l 332 198 q 332 183 332 193 l 332 167 q 332 151 332 157 l 303 151 l 303 94 l 323 95 l 323 119 q 322 136 323 127 l 334 136 q 333 120 333 128 l 333 99 q 334 76 333 87 l 323 76 l 323 86 l 264 83 q 264 102 264 92 l 264 119 q 264 136 264 131 l 275 136 q 275 119 275 129 l 275 93 l 293 94 l 293 151 l 264 151 q 264 168 264 161 l 264 178 q 264 198 264 190 l 275 198 m 242 199 q 256 200 249 199 l 256 189 q 242 190 253 190 l 237 190 q 229 160 234 176 l 252 160 q 252 142 252 149 l 252 114 q 252 92 252 105 l 241 92 l 241 100 l 226 100 l 226 83 l 214 83 q 216 108 216 98 l 216 138 q 205 125 212 132 q 197 136 203 131 q 209 148 204 142 q 217 164 213 153 q 225 190 222 174 q 205 189 215 190 l 205 200 q 219 199 213 199 l 242 199 m 241 109 l 241 150 l 226 150 l 226 109 l 241 109 m 391 152 q 412 151 400 151 l 465 151 q 455 128 461 140 q 438 103 449 115 q 481 90 457 91 q 475 78 477 85 q 429 96 449 83 q 411 86 422 92 q 388 77 400 80 q 379 85 386 81 q 404 93 392 87 q 421 104 415 98 q 400 142 408 117 l 391 142 l 391 152 m 450 158 q 440 166 440 158 l 440 199 l 414 199 q 410 173 414 182 q 394 154 406 163 q 385 161 391 158 q 401 184 399 171 q 403 208 404 197 l 452 208 q 452 191 452 201 l 452 175 q 455 169 452 170 q 464 169 458 168 q 477 170 470 169 q 477 158 476 163 l 450 158 m 376 168 q 375 145 375 158 l 375 109 q 388 123 382 116 q 394 111 390 117 q 380 97 387 104 q 368 83 373 91 q 359 93 364 90 q 364 106 364 98 l 364 158 q 343 158 351 158 l 343 169 q 359 168 351 168 l 376 168 m 430 111 q 448 142 441 123 l 412 142 q 430 111 416 123 m 361 214 q 384 190 370 207 q 374 182 379 187 q 353 207 364 196 q 361 214 357 209 m 556 144 q 555 158 556 150 l 567 158 q 566 147 566 151 l 582 152 q 581 175 582 163 l 592 175 q 591 155 591 164 l 618 165 q 618 150 618 157 l 618 124 q 612 115 616 118 q 600 109 608 112 q 595 121 600 115 q 608 128 608 122 l 608 151 l 591 146 q 592 103 591 114 l 581 103 q 582 142 582 117 l 566 138 l 566 98 q 576 90 566 90 l 604 90 q 612 92 609 90 q 616 105 615 94 q 628 99 622 100 q 611 81 625 81 l 568 81 q 556 94 556 81 l 556 133 q 547 130 552 132 l 544 140 l 556 144 m 545 176 q 530 177 538 177 l 519 177 l 519 155 l 543 155 q 542 132 543 149 l 540 96 q 535 86 540 89 q 522 80 530 83 q 515 92 520 84 q 530 99 530 93 l 532 146 l 518 146 q 500 77 516 108 q 489 83 495 81 q 509 177 510 114 q 492 176 499 177 l 492 186 q 518 186 501 186 q 545 186 536 186 l 545 176 m 581 210 q 571 193 578 207 l 604 193 q 626 194 614 193 l 626 184 q 604 184 614 184 l 567 184 q 551 159 559 169 q 541 165 547 163 q 558 190 550 174 q 568 215 566 207 q 581 210 575 212 m 521 212 q 532 195 528 203 q 521 189 527 192 q 512 208 517 201 q 521 212 517 210 z "},"L":{"ha":765,"x_min":6,"x_max":684,"o":"m 562 688 q 683 553 682 656 l 684 141 q 570 12 669 30 l 115 14 q 6 121 31 14 l 7 568 q 121 687 31 682 l 562 688 m 141 656 q 37 549 58 652 l 36 141 q 136 43 59 43 l 550 42 q 653 159 640 58 l 652 535 q 542 658 651 628 l 141 656 m 340 631 l 357 631 q 391 614 369 631 l 406 616 l 414 616 q 451 580 451 604 q 473 559 457 568 q 481 530 481 543 q 464 503 473 503 l 464 498 q 484 486 476 498 l 484 484 q 466 466 484 466 l 453 466 q 408 464 436 466 q 391 475 392 470 l 391 490 q 408 498 391 495 l 408 500 q 380 520 403 515 q 370 526 376 520 l 350 526 q 307 496 318 496 q 281 505 300 496 q 239 492 244 492 q 184 533 210 492 l 184 552 q 237 593 200 593 q 269 616 248 593 q 277 618 273 618 l 283 618 q 303 614 289 618 q 340 631 328 631 m 307 565 l 292 565 q 286 591 288 565 q 256 565 279 591 l 239 565 q 219 552 227 565 l 219 530 q 245 517 219 525 q 279 537 258 517 l 283 537 q 305 522 292 522 q 333 546 316 527 l 348 546 q 372 556 358 546 l 374 556 q 421 530 383 545 q 425 509 425 511 l 423 498 l 449 498 l 447 509 l 447 539 q 425 548 447 543 q 401 589 425 589 l 378 589 q 355 606 357 606 l 342 606 q 320 576 330 606 q 307 565 320 565 m 395 456 l 469 456 q 490 427 490 456 l 505 283 l 505 273 q 500 269 505 269 l 170 269 q 165 273 165 269 l 165 410 q 182 423 174 423 q 361 391 229 412 q 370 357 370 385 l 372 357 q 382 434 379 366 q 395 456 382 448 m 202 370 q 223 359 202 361 q 239 370 239 361 q 232 378 235 378 l 208 378 q 202 370 205 378 m 254 372 l 254 365 q 258 361 254 361 l 288 361 l 288 374 q 283 378 288 378 l 260 378 q 254 372 257 378 m 155 260 l 528 260 q 535 254 532 260 l 535 247 q 522 241 533 241 l 155 241 q 149 247 152 241 l 149 254 q 155 260 149 256 m 174 204 q 194 205 182 204 l 194 194 q 174 195 184 195 l 163 195 q 156 169 157 176 l 156 97 q 156 76 156 85 l 144 76 q 144 97 144 85 l 144 144 q 115 104 132 120 q 104 111 111 107 q 120 126 113 117 q 134 148 127 135 q 144 171 141 160 q 151 195 147 181 l 134 195 q 115 194 125 195 l 115 205 q 134 204 125 204 l 174 204 m 96 204 q 110 205 102 204 l 110 195 q 96 195 102 195 l 92 195 l 92 167 q 111 168 100 167 l 111 157 q 92 157 100 157 l 92 124 q 110 131 98 125 q 111 120 110 126 q 84 111 93 113 q 64 103 75 108 q 58 115 62 109 q 82 121 62 115 l 82 157 q 63 156 72 157 l 63 168 q 82 167 72 167 l 82 195 l 77 195 q 61 195 69 195 l 61 205 q 76 204 69 204 l 96 204 m 170 164 q 197 124 188 139 q 186 117 191 121 q 173 140 178 133 q 160 157 168 148 q 170 164 165 160 m 318 88 q 323 93 322 88 q 326 102 325 97 q 338 96 331 97 q 329 79 334 80 q 320 78 323 78 l 303 78 q 290 91 290 78 l 290 115 l 278 115 q 265 91 276 100 q 235 76 254 82 q 229 87 233 82 q 258 98 250 91 q 268 115 266 105 l 250 115 q 250 137 250 127 q 250 158 250 148 l 323 158 q 322 138 322 149 q 323 115 322 127 l 301 115 l 301 96 q 307 88 300 87 l 318 88 m 271 191 q 278 179 274 186 q 269 174 273 177 l 294 174 q 298 193 296 181 l 267 193 q 246 192 254 193 l 246 202 q 267 201 254 201 l 282 201 q 279 214 281 208 q 292 216 284 214 q 295 201 294 208 l 308 201 q 328 202 319 201 l 328 192 q 309 193 319 193 l 299 193 q 311 187 304 191 q 304 174 307 182 l 317 174 q 334 175 326 174 l 334 165 q 317 165 326 165 l 263 165 q 243 165 252 165 l 243 175 q 262 174 252 174 l 268 174 q 262 186 265 182 q 271 191 267 189 m 243 116 q 222 108 233 113 q 204 100 211 104 q 199 113 201 107 q 209 114 205 113 q 216 117 212 115 l 216 165 q 202 165 210 165 l 202 175 q 216 174 210 174 l 216 195 q 216 210 216 201 l 227 210 q 226 195 226 201 l 226 174 q 239 175 231 174 l 239 165 q 226 165 231 165 l 226 120 q 242 126 235 123 q 243 116 243 121 m 312 140 l 312 150 l 261 150 l 261 140 l 312 140 m 312 123 l 312 132 l 261 132 l 261 123 l 312 123 m 455 168 q 477 168 466 168 l 477 157 q 455 157 466 157 l 418 157 l 414 136 l 467 136 q 464 109 465 123 q 461 88 463 94 q 453 80 460 83 q 430 76 447 78 q 425 90 429 83 q 446 91 442 90 q 451 99 450 92 l 453 126 l 398 126 q 405 157 401 134 q 378 157 390 157 l 378 168 q 399 168 390 168 l 455 168 m 444 202 q 467 203 455 202 l 467 191 q 444 192 454 192 l 412 192 q 390 191 400 192 l 390 203 q 412 202 401 202 l 444 202 m 376 130 q 367 102 371 115 q 360 79 363 88 q 346 87 353 84 q 356 110 351 96 q 364 136 360 123 q 376 130 368 132 m 359 210 q 380 191 370 202 q 372 182 375 186 q 351 201 363 192 q 359 210 355 205 m 350 174 q 372 155 361 164 q 362 145 366 151 q 342 163 355 155 q 350 174 347 169 m 614 80 q 577 96 589 87 q 559 117 566 106 q 559 77 559 83 l 547 77 q 547 116 547 84 q 525 94 538 104 q 492 77 511 85 q 482 88 490 83 q 517 102 503 93 q 536 119 530 111 l 507 119 q 487 119 498 119 l 487 130 q 507 129 498 129 l 547 129 q 547 141 547 134 l 559 141 q 559 129 559 134 l 602 129 q 618 130 610 129 l 618 119 q 602 119 610 119 l 570 119 q 595 100 580 106 q 623 92 610 94 q 614 80 615 85 m 520 144 q 547 161 538 151 q 557 184 555 172 q 538 184 549 184 l 538 195 q 558 194 549 194 q 558 214 559 206 q 572 212 565 212 q 569 194 570 208 l 598 194 q 597 181 597 188 l 595 157 q 599 152 595 152 l 606 152 q 609 154 608 152 q 611 165 610 156 q 623 161 616 161 q 616 144 621 145 q 604 142 612 142 q 590 143 596 142 q 585 154 584 144 l 586 184 l 568 184 q 559 159 567 171 q 531 136 551 148 q 520 144 529 140 m 529 159 q 498 134 507 142 q 490 144 494 140 q 525 170 503 152 q 529 159 526 165 m 494 188 q 519 175 510 180 q 512 165 515 170 q 488 178 507 170 q 494 188 492 182 m 521 188 q 498 203 512 195 q 505 211 502 206 q 529 197 519 203 q 521 188 524 192 z "},"M":{"ha":1219,"x_min":6,"x_max":684,"o":"m 562 688 q 683 553 682 656 l 684 141 q 570 12 669 30 l 115 14 q 6 121 31 14 l 7 568 q 121 687 31 682 l 562 688 m 141 656 q 37 549 58 652 l 36 141 q 136 43 59 43 l 550 42 q 653 159 640 58 l 652 535 q 542 658 651 628 l 141 656 m 393 570 l 531 570 q 538 563 534 570 l 538 457 q 590 405 589 425 q 585 400 590 400 l 576 400 q 512 435 542 435 l 496 437 q 412 372 437 437 q 399 340 412 340 l 315 340 q 277 370 305 340 q 250 381 254 381 l 234 381 q 176 342 208 381 q 169 340 172 340 q 156 351 160 342 l 156 376 l 154 381 l 143 374 q 136 387 139 374 l 143 400 l 143 411 q 115 398 134 411 l 109 398 q 102 409 104 398 q 123 431 105 409 l 123 433 q 87 446 87 440 l 87 450 q 113 461 87 454 l 115 465 q 104 476 112 465 l 104 481 q 121 487 105 487 l 121 485 q 128 487 125 487 l 115 507 l 115 515 q 119 519 115 519 l 125 519 l 154 500 q 167 519 163 519 l 169 519 q 180 509 178 509 l 182 509 q 204 528 198 525 l 208 528 l 215 524 q 210 498 210 507 q 217 496 214 496 q 241 498 236 498 l 243 494 l 243 489 q 232 478 243 488 l 232 476 q 245 467 232 473 l 247 467 q 252 472 252 467 l 252 552 q 258 559 252 555 l 260 559 q 269 550 264 559 l 269 481 q 267 478 269 478 q 275 465 271 465 l 349 465 q 373 519 369 465 q 384 563 379 519 l 393 570 m 395 485 l 395 481 l 410 478 l 498 478 q 503 483 503 478 l 503 539 q 498 543 503 543 l 425 543 q 408 515 411 543 q 395 485 400 493 m 507 422 q 583 342 583 407 q 562 288 582 312 q 503 264 530 264 q 447 290 460 271 q 425 340 425 315 q 447 394 425 374 q 507 422 468 422 m 462 340 q 501 300 466 300 l 507 300 q 549 342 549 307 q 518 383 542 383 l 503 385 q 471 370 476 381 q 462 340 463 370 m 241 370 l 252 370 q 301 311 301 353 q 273 266 296 283 q 252 260 262 260 l 237 260 q 189 313 189 268 l 189 322 q 241 370 189 355 m 217 313 q 237 286 217 297 l 247 286 q 271 309 265 286 l 271 324 q 256 340 271 328 l 234 340 q 217 313 217 334 m 113 176 q 131 138 119 155 q 154 161 144 149 q 163 151 157 157 q 138 128 155 144 q 180 99 151 110 q 169 87 173 96 q 130 119 144 100 q 105 163 115 138 q 91 144 98 153 l 91 99 q 113 115 102 105 q 118 102 115 107 q 81 79 90 84 q 74 90 78 85 q 79 98 78 92 l 79 133 q 50 113 66 122 q 41 123 48 119 q 77 148 58 130 q 103 184 96 165 l 68 184 l 68 169 l 56 169 q 56 181 56 175 q 56 195 56 188 l 106 195 q 109 218 109 208 q 124 216 115 217 q 119 195 123 212 l 170 195 q 170 181 170 187 q 170 170 170 174 l 158 170 l 158 184 l 116 184 q 113 176 114 180 m 250 211 q 249 182 249 194 l 249 94 l 269 94 l 269 189 q 267 211 269 199 l 282 211 q 281 191 281 201 l 281 94 l 304 94 q 328 95 314 94 l 328 81 q 305 83 314 83 l 214 83 q 190 81 205 83 l 190 95 q 214 94 205 94 l 235 94 l 235 182 q 234 211 235 195 l 250 211 m 207 181 q 227 126 214 162 q 213 121 220 125 q 193 176 202 156 q 207 181 199 178 m 323 177 q 301 120 315 157 q 288 125 295 123 q 308 182 301 149 q 323 177 314 180 m 455 206 q 454 177 454 189 l 454 99 q 458 91 454 91 q 464 91 462 90 q 467 95 467 91 q 468 106 468 98 q 481 101 473 103 q 476 84 479 89 q 468 80 473 80 l 456 80 q 445 83 448 80 q 442 97 441 87 l 442 196 l 420 196 q 419 142 420 161 q 413 108 418 123 q 395 77 409 93 q 385 87 393 81 q 398 103 393 94 q 405 123 404 113 q 408 144 407 133 q 408 174 408 156 q 408 206 408 191 l 455 206 m 384 157 q 399 136 394 144 q 389 128 394 133 q 376 149 385 136 l 376 106 q 376 79 376 94 l 363 79 q 363 106 363 94 l 363 144 q 357 127 361 135 q 347 109 353 119 q 337 118 341 115 q 350 139 342 123 q 362 174 357 155 l 358 174 q 341 173 350 174 l 341 184 q 357 184 350 184 l 363 184 l 363 196 q 363 214 363 205 l 377 214 q 376 196 376 208 l 376 184 l 382 184 q 397 184 389 184 l 397 174 q 376 174 384 174 l 376 150 q 384 157 379 153 m 582 191 q 582 204 582 199 q 581 218 581 210 q 595 217 587 218 q 592 205 593 211 q 592 191 592 200 l 602 191 q 625 191 612 191 l 625 181 q 602 182 613 182 l 592 182 q 592 172 592 178 q 593 159 593 166 q 595 144 594 151 q 600 126 597 136 q 606 148 603 137 q 609 172 608 159 q 623 169 615 170 q 619 159 621 165 q 615 145 617 153 q 611 130 613 138 q 604 112 608 122 q 610 101 608 104 q 615 97 613 98 q 619 109 618 96 q 631 104 624 106 q 626 87 628 92 q 620 82 623 82 q 610 86 616 81 q 597 102 604 91 q 588 92 592 96 q 579 81 585 87 q 566 89 574 85 q 582 101 577 96 q 592 114 587 106 q 588 130 590 122 q 585 146 586 138 q 583 164 584 155 l 582 182 l 562 182 q 538 181 552 182 l 538 191 q 562 191 551 191 l 582 191 m 508 202 q 507 216 508 210 l 519 216 q 518 202 518 209 l 518 184 l 524 184 q 534 185 527 184 l 534 175 q 524 176 527 176 l 518 176 l 518 151 q 525 155 522 153 q 530 146 527 151 q 534 138 532 142 q 527 132 530 135 q 523 140 525 136 q 518 148 520 144 l 518 98 q 519 79 518 90 l 507 79 q 508 98 508 87 l 508 149 q 503 133 506 142 q 495 115 499 123 q 488 125 492 121 q 494 138 491 131 q 500 152 498 145 q 504 165 503 159 q 507 176 506 172 l 502 176 q 489 175 499 176 l 489 185 q 500 184 496 184 l 508 184 l 508 202 m 544 159 q 543 170 544 165 q 554 170 548 170 q 553 159 553 165 q 553 149 553 153 l 562 149 l 562 155 q 562 170 562 164 l 573 170 q 572 157 572 164 l 572 149 q 583 149 577 149 l 583 140 q 572 140 576 140 l 572 125 q 572 100 572 112 l 562 100 q 562 123 562 110 l 562 140 l 553 140 q 552 125 553 133 q 549 110 551 117 q 538 91 546 102 q 530 96 533 96 q 540 114 537 106 q 544 140 543 122 q 535 140 540 140 l 535 149 q 544 149 539 149 l 544 159 m 610 216 q 614 208 612 212 q 621 200 617 204 q 612 195 616 197 q 607 202 610 199 q 601 210 605 205 q 610 216 605 213 z "},"N":{"ha":1054,"x_min":6,"x_max":684,"o":"m 562 688 q 683 553 682 656 l 684 141 q 570 12 669 30 l 115 14 q 6 121 31 14 l 7 568 q 121 687 31 682 l 562 688 m 141 656 q 37 549 58 652 l 36 141 q 136 43 59 43 l 550 42 q 653 159 640 58 l 652 535 q 542 658 651 628 l 141 656 m 371 642 l 377 642 q 401 616 399 642 q 368 571 401 606 q 326 520 342 532 l 326 513 l 371 434 q 420 494 376 434 q 433 503 425 494 l 475 503 q 484 500 480 503 q 493 503 488 503 l 495 503 q 566 494 500 494 q 585 467 579 494 q 562 436 576 436 q 482 441 557 436 q 478 445 482 445 l 463 445 q 418 391 434 424 q 409 385 409 388 l 409 380 l 452 380 q 488 329 469 380 q 521 269 494 329 l 521 252 q 486 233 511 233 q 460 262 460 245 q 431 314 449 276 l 422 323 q 347 316 361 316 q 313 347 320 325 q 294 378 308 351 q 277 408 289 378 l 274 408 q 255 363 270 408 q 236 353 243 353 q 172 336 184 345 q 161 334 168 334 l 146 334 q 131 359 131 345 q 167 380 131 378 l 178 380 q 220 395 183 387 q 240 456 231 444 q 246 486 246 484 l 246 490 q 208 473 221 473 q 163 511 163 479 l 163 528 q 208 565 171 565 q 238 552 226 565 q 251 517 251 545 l 251 503 l 257 503 q 283 537 257 509 q 371 642 350 627 m 209 149 q 209 134 209 144 l 209 104 l 218 107 l 218 165 l 199 165 q 200 190 200 178 q 199 211 200 201 l 243 211 q 242 188 243 203 q 243 165 242 173 l 229 165 l 229 144 q 245 144 236 144 l 245 134 q 229 134 236 134 l 229 111 l 248 117 l 248 107 q 209 92 216 95 q 194 85 201 89 q 190 98 193 92 l 198 101 l 198 136 q 198 149 198 143 l 209 149 m 252 148 q 285 147 262 147 q 284 163 285 155 l 296 163 q 295 147 295 155 q 330 148 319 147 l 330 136 q 303 137 319 137 q 317 115 308 126 q 334 100 326 104 q 323 90 327 96 q 307 110 315 98 q 295 131 299 122 l 295 97 q 296 77 295 89 l 284 77 q 285 97 285 89 l 285 133 q 271 108 280 120 q 250 85 262 96 q 239 92 246 90 q 259 110 250 99 q 276 138 268 120 q 252 136 260 137 l 252 148 m 326 202 q 293 199 313 201 q 256 196 272 197 q 252 208 255 203 q 288 209 268 207 q 318 215 309 212 q 326 202 321 208 m 233 174 l 233 201 l 210 201 l 210 174 l 233 174 m 327 189 q 314 163 323 184 q 303 168 308 166 q 315 195 309 177 q 327 189 321 193 m 263 190 q 271 165 269 177 q 261 161 265 163 q 253 186 258 172 q 263 190 257 187 m 290 193 q 296 170 295 177 q 285 166 290 168 q 279 191 282 184 q 290 193 283 192 m 363 151 q 361 134 361 144 l 361 98 l 373 101 l 373 161 l 353 161 q 354 184 354 173 q 353 206 354 197 l 397 206 q 396 183 396 195 q 397 161 396 172 l 383 161 l 383 140 q 401 141 392 140 l 401 130 q 383 131 392 131 l 383 102 q 402 107 393 105 q 401 97 401 102 q 371 91 384 94 q 350 83 357 87 q 345 96 348 91 l 352 96 l 352 136 q 351 151 352 144 l 363 151 m 475 138 q 474 108 474 127 q 475 78 474 90 l 463 78 l 463 87 l 419 87 l 419 77 l 408 77 q 409 107 409 89 q 408 138 409 126 l 475 138 m 446 217 q 445 210 445 211 l 445 201 q 452 190 447 197 q 470 206 463 198 q 480 197 475 201 q 456 182 474 195 q 470 168 462 174 q 488 158 477 161 q 478 148 481 154 q 458 163 467 155 q 445 182 450 172 l 445 157 q 440 147 446 150 q 426 144 435 144 q 422 156 426 149 q 435 161 435 155 l 435 200 q 435 217 435 208 l 446 217 m 431 196 q 422 169 429 180 q 406 146 416 157 q 395 153 401 151 q 411 169 406 161 q 418 187 416 177 q 402 186 408 187 l 402 197 q 417 196 411 196 l 431 196 m 386 170 l 386 198 l 363 198 l 363 170 l 386 170 m 463 117 l 463 129 l 419 129 l 419 117 l 463 117 m 463 96 l 463 108 l 419 108 l 419 96 l 463 96 z "},"O":{"ha":1095,"x_min":6,"x_max":684,"o":"m 453 583 l 462 583 q 553 504 529 583 q 556 482 556 492 q 512 406 556 441 q 455 388 487 388 q 372 438 404 388 q 361 471 361 463 l 361 504 q 407 572 371 545 q 453 583 439 583 m 562 688 q 683 553 682 656 l 684 141 q 570 12 669 30 l 115 14 q 6 121 31 14 l 7 568 q 121 687 31 682 l 562 688 m 141 656 q 37 549 58 652 l 36 141 q 136 43 59 43 l 550 42 q 653 159 640 58 l 652 535 q 542 658 651 628 l 141 656 m 278 578 q 346 550 346 573 q 339 537 339 540 q 346 486 346 528 l 346 478 q 332 425 346 439 q 317 408 332 421 l 317 404 q 355 353 334 400 l 355 305 q 276 261 323 261 q 241 254 256 254 l 171 254 q 134 283 134 262 l 134 311 q 166 388 134 349 l 228 432 q 230 450 230 444 l 208 498 l 208 539 q 278 578 227 578 m 374 484 l 374 482 q 412 416 374 448 q 453 404 424 408 l 455 404 q 521 434 496 404 q 541 480 528 437 l 541 489 q 508 552 534 532 q 460 570 480 570 l 455 570 q 383 524 416 570 q 374 484 374 495 m 451 554 l 469 554 q 475 548 471 554 l 475 511 q 481 504 475 507 l 517 504 q 523 498 519 504 l 523 473 q 517 467 523 470 l 486 467 l 475 465 l 475 418 q 469 412 475 416 l 444 412 q 437 418 441 412 l 437 463 q 433 467 437 467 l 396 467 q 389 473 393 467 l 389 498 q 396 504 389 500 l 431 504 q 437 511 434 504 l 437 548 q 451 554 440 554 m 252 140 q 233 100 240 115 q 250 89 239 96 q 243 77 247 84 q 216 94 233 84 q 193 106 199 103 q 199 116 196 111 q 222 104 206 113 q 234 130 229 117 l 187 130 q 195 157 191 141 l 182 157 q 166 156 173 157 l 166 167 q 182 166 174 166 l 197 166 q 200 185 199 178 l 191 185 q 174 184 180 185 l 174 195 q 191 195 181 195 l 202 195 q 204 218 204 212 q 218 216 212 216 q 213 195 216 213 l 239 195 q 256 195 248 195 l 256 184 q 238 185 249 185 l 212 185 q 208 166 210 178 l 245 166 q 264 167 258 166 l 264 156 q 245 157 257 157 l 206 157 q 202 140 203 147 l 252 140 m 173 210 q 159 183 168 205 l 159 106 q 160 81 159 93 l 147 81 q 148 106 148 90 l 148 165 q 133 142 139 151 q 125 152 131 147 q 142 178 132 161 q 159 217 153 195 q 173 210 164 214 m 410 80 q 372 97 384 87 q 353 119 360 106 q 353 77 353 84 l 341 77 q 341 117 341 84 q 318 95 332 104 q 285 77 304 85 q 275 89 283 83 q 310 103 296 94 q 330 120 324 112 l 300 120 q 280 120 291 120 l 280 130 q 300 130 291 130 l 341 130 q 341 142 341 135 l 353 142 q 353 130 353 135 l 397 130 q 414 130 405 130 l 414 120 q 397 120 405 120 l 365 120 q 390 101 374 107 q 418 93 406 94 q 410 80 410 85 m 314 146 q 340 163 331 153 q 351 186 349 174 q 332 186 342 186 l 332 197 q 352 196 343 196 q 352 216 353 209 q 366 215 359 215 q 363 196 364 212 l 393 196 q 392 183 392 191 l 390 159 q 394 153 391 153 l 401 153 q 405 156 404 153 q 406 168 406 158 q 418 163 411 163 q 412 145 416 146 q 399 143 407 144 q 385 144 391 143 q 379 155 378 146 l 381 186 l 363 186 q 354 161 361 173 q 325 137 346 150 q 314 146 322 141 m 322 161 q 290 136 300 143 q 282 146 287 142 q 318 172 296 153 q 322 161 319 167 m 286 191 q 312 177 303 182 q 305 167 308 172 q 281 181 300 172 q 286 191 285 185 m 315 191 q 292 205 305 198 q 298 214 295 209 q 322 200 312 206 q 315 191 317 195 m 547 175 q 567 176 556 175 l 567 165 q 547 165 556 165 l 523 165 q 522 147 523 157 l 563 147 q 562 125 562 135 l 562 97 q 558 84 562 87 q 543 77 555 81 q 535 92 540 87 q 547 93 544 92 q 551 101 551 94 l 551 137 l 521 137 l 520 133 q 546 109 533 123 q 534 100 540 104 q 517 123 526 114 q 511 109 515 115 q 498 93 507 102 q 486 101 494 98 q 501 117 495 109 q 509 137 507 125 l 483 137 l 483 80 l 471 80 q 471 115 471 92 q 471 147 471 139 l 509 147 q 510 165 510 155 l 494 165 q 467 165 484 165 l 467 176 q 494 175 482 175 l 547 175 m 435 84 q 447 106 443 93 q 452 136 451 119 q 433 124 437 129 q 427 136 430 131 q 439 142 433 139 q 452 147 446 144 l 452 174 q 450 201 452 187 l 504 201 q 500 216 503 208 q 513 219 507 217 q 517 201 516 211 l 547 201 q 562 202 554 201 l 562 191 q 547 191 551 191 l 463 191 q 463 133 463 145 q 458 106 462 120 q 447 77 454 92 q 435 84 442 81 m 434 189 q 450 169 441 180 q 441 161 446 167 q 427 181 434 172 q 434 189 431 185 z "},"P":{"ha":760,"x_min":6,"x_max":684,"o":"m 562 688 q 683 553 682 656 l 684 141 q 570 12 669 30 l 115 14 q 6 121 31 14 l 7 568 q 121 687 31 682 l 562 688 m 141 656 q 37 549 58 652 l 36 141 q 136 43 59 43 l 550 42 q 653 159 640 58 l 652 535 q 542 658 651 628 l 141 656 m 214 616 q 281 570 256 606 l 283 570 q 340 597 311 597 q 342 590 342 593 q 283 539 318 539 l 281 535 l 281 528 q 286 524 281 524 l 323 524 q 332 515 326 524 l 332 504 q 323 495 332 500 l 219 495 q 214 499 214 495 l 214 517 q 228 524 216 524 l 267 524 q 270 528 267 528 l 267 532 l 267 553 q 208 597 231 553 l 208 610 q 214 616 208 613 m 221 599 q 254 568 236 568 q 267 562 256 562 l 270 566 l 270 568 q 230 599 249 592 l 221 599 m 323 590 q 283 550 283 556 q 288 546 288 549 q 332 583 316 558 l 332 588 l 323 590 m 414 499 l 502 499 q 553 457 553 499 l 553 455 q 546 448 553 452 l 369 448 q 356 455 358 448 l 356 460 q 391 495 362 495 q 414 499 391 499 m 245 484 l 296 484 q 305 464 301 484 q 347 411 347 454 l 349 411 q 380 439 349 435 q 400 435 397 435 q 418 439 414 439 q 435 435 425 439 q 456 437 448 437 q 473 435 465 437 q 495 437 485 437 q 515 435 503 437 q 533 439 526 439 q 557 422 547 439 l 557 400 q 526 382 547 382 l 511 387 q 491 382 503 382 l 475 387 q 458 382 458 382 q 437 387 437 384 q 418 382 427 382 q 400 389 412 382 q 382 385 392 385 l 374 385 q 349 409 356 385 l 347 409 l 347 334 q 340 327 347 330 l 201 327 q 195 334 198 327 l 195 395 l 190 393 q 153 425 170 404 q 195 462 167 462 l 199 462 l 216 451 l 216 442 l 219 442 q 241 466 219 466 l 241 479 q 245 484 241 484 m 261 446 l 261 425 q 256 420 261 420 l 235 420 l 232 409 q 252 397 232 397 q 263 369 263 397 q 245 365 256 365 l 245 349 q 258 353 253 353 l 263 353 l 263 349 q 261 347 263 347 q 267 338 264 338 l 283 338 q 300 342 285 338 l 307 338 l 316 338 q 330 345 328 338 l 330 349 q 305 358 330 352 q 286 349 305 353 q 267 369 267 365 q 286 397 286 369 q 309 404 309 397 l 309 416 q 283 422 309 420 l 281 437 l 281 446 l 261 446 m 216 433 l 216 425 l 219 425 l 219 433 l 216 433 m 139 413 l 142 413 q 177 378 177 388 q 139 336 149 342 l 126 334 l 119 334 q 97 358 102 334 q 135 411 97 368 l 139 413 m 360 374 l 551 374 q 555 369 555 373 l 555 362 q 517 325 551 325 l 387 325 q 356 355 356 331 l 356 369 q 360 374 357 374 m 230 349 l 228 345 q 232 340 229 340 q 241 347 241 344 l 230 349 m 210 345 l 210 338 l 216 338 l 216 345 l 210 345 m 400 318 l 400 316 l 405 318 l 564 318 q 570 309 567 318 q 551 290 570 295 q 254 287 368 287 l 172 287 q 144 300 155 287 l 144 311 q 148 316 144 316 l 363 316 q 400 318 374 316 m 134 208 q 166 180 149 191 q 199 166 183 169 q 192 154 194 161 q 167 166 180 158 l 167 144 q 168 119 167 133 l 102 119 l 102 92 q 125 100 114 96 q 125 88 125 94 q 110 83 117 86 q 92 77 102 81 q 86 87 90 83 q 91 100 90 92 l 91 164 q 69 149 79 155 q 61 159 66 155 q 84 172 73 165 q 107 193 95 180 q 123 216 120 206 q 137 211 130 213 l 134 208 m 183 112 q 165 98 179 110 q 185 87 176 93 q 178 77 180 83 q 151 93 163 86 q 121 106 138 100 q 128 115 125 111 q 154 103 144 108 q 173 121 168 114 q 183 112 178 117 m 162 168 q 128 201 150 175 q 97 168 111 178 l 162 168 m 156 129 l 156 140 l 102 140 l 102 129 l 156 129 m 156 149 l 156 159 l 102 159 l 102 149 l 156 149 m 132 189 q 136 174 134 182 q 125 171 130 173 q 121 185 123 179 q 132 189 126 186 m 300 171 q 293 159 296 165 l 333 159 q 332 136 332 149 l 331 93 q 325 82 330 85 q 304 77 319 79 q 297 89 302 83 q 316 90 313 89 q 320 98 319 92 l 322 149 l 288 149 q 273 125 281 136 q 262 134 269 130 q 277 154 270 140 q 286 175 284 168 q 300 171 292 173 m 259 211 q 258 197 258 205 l 288 197 q 287 212 288 205 l 298 212 q 298 197 298 205 l 319 197 q 340 197 330 197 l 340 186 q 319 186 330 186 l 298 186 q 298 176 298 182 l 288 176 l 288 186 l 258 186 l 258 174 l 246 174 q 247 186 247 180 l 224 186 q 203 186 214 186 l 203 197 q 224 197 214 197 l 247 197 q 246 211 247 205 l 259 211 m 248 170 q 238 159 242 166 q 227 143 234 153 l 243 143 q 253 160 250 153 q 267 154 258 157 q 252 138 260 150 q 235 117 244 126 q 264 121 243 118 q 262 111 262 116 q 240 109 254 111 q 220 104 227 106 q 214 115 218 109 q 226 120 220 115 q 239 135 231 125 q 227 134 235 135 q 214 131 219 134 q 209 142 212 138 q 222 154 216 144 q 235 176 229 163 q 248 170 240 172 m 267 100 q 267 90 267 94 q 237 84 251 87 q 217 77 223 81 q 210 91 215 84 q 237 94 222 92 q 267 100 252 97 m 292 132 q 306 109 300 121 q 296 103 301 106 q 282 126 290 116 q 292 132 288 127 m 410 174 q 406 169 408 172 q 397 152 404 165 l 452 152 q 475 153 466 152 l 475 142 q 452 142 465 142 l 446 142 q 429 112 440 125 q 473 91 450 104 q 465 79 469 86 q 420 104 444 94 q 386 86 405 92 q 355 78 368 80 q 348 90 353 85 q 382 97 366 92 q 408 109 399 102 q 366 120 390 115 q 380 142 376 133 l 366 142 q 346 142 359 142 l 346 153 q 366 152 353 152 l 385 152 q 396 180 392 166 q 410 174 404 176 m 396 210 q 406 217 401 214 q 418 199 412 209 q 411 193 415 197 l 465 193 q 465 180 465 185 q 465 166 465 175 l 453 166 l 453 184 l 366 184 l 366 167 l 353 167 q 354 181 354 175 q 353 193 354 187 l 407 193 q 396 210 402 203 m 383 126 q 418 116 408 119 q 433 142 426 123 l 393 142 q 383 126 389 136 m 553 201 q 616 159 574 168 q 608 145 610 153 q 589 155 597 150 l 589 146 q 568 146 582 146 l 554 146 l 554 123 l 576 123 q 596 123 589 123 l 596 113 q 576 113 589 113 l 554 113 l 554 87 l 577 87 q 606 88 595 87 l 606 76 q 578 78 595 78 l 513 78 q 487 77 496 78 l 487 87 q 513 87 496 87 l 542 87 l 542 113 l 526 113 q 499 113 506 113 l 499 123 q 525 123 506 123 l 542 123 l 542 146 l 530 146 q 507 146 512 146 l 507 155 q 487 143 502 151 q 479 155 484 150 q 512 173 493 159 q 542 210 530 187 q 556 204 549 207 l 553 201 m 511 157 q 531 157 517 157 l 566 157 q 585 157 578 157 q 547 195 559 170 q 511 157 531 171 z "},"Q":{"ha":1095,"x_min":6,"x_max":684,"o":"m 562 688 q 683 553 682 656 l 684 141 q 570 12 669 30 l 115 14 q 6 121 31 14 l 7 568 q 121 687 31 682 l 562 688 m 141 656 q 37 549 58 652 l 36 141 q 136 43 59 43 l 550 42 q 653 159 640 58 l 652 535 q 542 658 651 628 l 141 656 m 311 617 l 380 617 q 437 581 433 596 q 478 507 465 564 q 494 480 478 484 q 542 372 542 434 q 538 336 542 357 l 533 336 l 533 338 q 467 427 533 409 q 462 422 462 427 l 465 412 q 403 304 465 349 l 389 299 l 389 292 q 446 265 404 273 l 450 265 q 483 274 478 269 l 502 284 l 492 269 q 423 240 446 240 l 391 240 q 338 254 378 240 q 288 242 300 242 l 272 242 q 185 281 229 242 q 188 285 163 311 q 245 265 220 265 q 300 288 276 269 l 300 292 q 265 313 300 298 q 220 414 220 353 l 220 425 q 167 382 191 425 q 158 347 160 367 q 167 315 160 324 l 167 313 q 162 309 185 283 q 142 370 148 332 q 208 498 142 445 q 258 592 208 545 q 311 617 296 617 m 265 542 l 265 512 q 270 507 266 507 q 325 530 303 530 l 357 530 q 423 503 377 530 q 430 530 430 511 q 382 604 430 570 q 345 612 351 612 q 268 557 300 612 l 265 542 m 288 475 l 288 473 q 330 448 294 458 q 332 446 332 448 q 307 402 311 425 l 304 402 q 258 427 281 425 l 254 420 l 254 409 q 309 329 254 358 q 315 327 311 329 q 325 334 325 330 l 325 357 q 320 375 325 359 l 323 379 q 345 372 334 372 l 348 372 q 366 377 357 372 l 368 372 l 368 370 q 366 347 368 359 q 370 329 366 343 q 418 366 388 329 q 430 409 430 393 l 430 412 l 428 427 q 391 407 399 416 l 389 407 q 359 446 370 436 l 395 462 l 398 466 l 398 473 q 341 496 373 496 q 288 475 310 496 m 199 136 q 189 116 193 119 q 177 117 184 114 q 157 131 170 119 q 140 116 150 123 q 130 123 136 121 q 151 139 143 131 q 140 164 144 151 q 136 189 137 177 l 81 189 q 80 151 81 161 q 76 133 79 141 q 66 114 73 124 q 55 120 59 119 q 66 138 62 130 q 70 159 69 147 q 70 198 71 171 l 135 198 q 134 216 135 203 q 147 214 140 215 q 146 198 146 207 l 174 198 q 194 199 182 198 l 194 188 q 174 189 182 189 l 147 189 q 157 150 150 163 q 164 165 161 156 q 170 182 168 174 q 182 177 176 179 q 176 164 180 175 q 164 139 172 153 q 176 130 171 133 q 183 129 182 127 q 187 142 184 131 q 199 136 192 138 m 130 128 l 87 128 l 87 159 l 130 159 l 130 128 m 168 93 q 160 79 163 81 q 153 77 157 77 l 106 77 q 96 84 98 77 q 95 97 95 91 q 94 112 95 103 l 107 112 q 106 97 106 101 q 107 89 106 93 q 115 86 108 85 l 143 86 q 152 89 150 86 q 155 100 154 91 q 168 93 160 96 m 130 170 l 87 170 l 87 178 l 130 178 l 130 170 m 180 111 q 197 87 193 94 q 186 80 191 84 q 170 104 180 92 q 180 111 174 106 m 60 85 q 72 112 65 92 q 84 106 77 109 q 71 79 76 88 q 60 85 66 82 m 120 137 l 120 151 l 97 151 l 97 137 l 120 137 m 115 115 q 124 121 119 118 q 138 102 135 108 q 129 95 133 99 q 115 115 125 102 m 169 199 q 155 210 165 203 q 161 217 159 214 q 176 207 165 215 q 169 199 172 203 m 342 79 q 303 97 315 87 q 283 119 291 106 q 284 76 283 83 l 271 76 q 272 117 272 84 q 248 95 262 104 q 214 77 234 85 q 203 88 212 83 q 240 102 225 93 q 260 121 254 112 l 229 121 q 208 120 220 121 l 208 132 q 229 131 220 131 l 272 131 q 271 144 272 136 l 284 144 q 283 131 283 136 l 329 131 q 346 132 337 131 l 346 120 q 329 121 337 121 l 296 121 q 322 100 306 107 q 351 92 338 94 q 342 79 342 85 m 243 147 q 271 165 261 154 q 282 189 280 176 q 262 189 273 189 l 262 199 q 283 199 274 199 q 283 220 283 212 q 297 218 290 218 q 294 199 295 214 l 325 199 q 323 185 324 193 l 321 161 q 326 155 322 155 l 333 155 q 337 157 336 155 q 338 170 338 159 q 351 164 343 165 q 344 146 349 148 q 331 144 339 144 q 316 146 323 144 q 311 157 310 147 l 313 189 l 294 189 q 284 163 292 175 q 254 138 276 151 q 243 147 252 142 m 252 163 q 220 137 229 144 q 211 147 216 143 q 248 174 226 155 q 252 163 249 169 m 215 193 q 241 179 233 184 q 235 169 237 174 q 210 183 229 174 q 215 193 214 187 m 244 193 q 221 208 235 201 q 228 216 224 212 q 252 203 241 209 q 244 193 247 197 m 475 131 q 495 132 484 131 l 495 120 q 475 121 489 121 q 475 96 475 105 l 463 96 l 463 102 l 430 102 l 430 90 q 425 80 429 83 q 406 76 420 78 q 400 90 405 82 q 415 90 411 90 q 418 94 418 91 l 418 102 l 385 102 q 368 101 378 102 l 368 112 q 385 112 378 112 l 418 112 l 418 121 l 372 121 q 357 120 365 121 l 357 132 q 372 131 365 131 l 418 131 l 418 139 l 383 139 q 368 138 376 139 l 368 150 q 383 149 376 149 l 418 149 l 418 157 l 376 157 q 376 174 376 166 q 376 189 376 182 l 418 189 l 418 197 l 375 197 q 357 197 366 197 l 357 208 q 374 208 366 208 l 418 208 q 418 218 418 212 l 431 218 q 430 208 430 214 l 471 208 q 493 208 482 208 l 493 197 q 471 197 482 197 l 430 197 l 430 189 l 474 189 q 473 174 473 182 q 474 157 473 165 l 430 157 l 430 149 l 475 149 q 475 131 475 143 m 462 167 l 462 179 l 430 179 l 430 167 l 462 167 m 418 167 l 418 179 l 387 179 l 387 167 l 418 167 m 463 112 l 463 121 l 430 121 l 430 112 l 463 112 m 463 131 l 463 139 l 430 139 l 430 131 l 463 131 m 575 200 q 567 183 572 197 l 591 183 l 591 195 q 590 216 591 210 l 603 216 q 602 196 602 211 l 602 183 l 621 183 q 635 184 629 183 l 635 172 q 621 172 629 172 l 602 172 l 602 139 l 623 139 q 645 140 632 139 l 645 128 q 622 129 634 129 l 602 129 l 602 97 q 603 77 602 87 l 590 77 q 591 97 591 87 l 591 129 l 567 129 q 542 128 556 129 l 542 140 q 564 139 555 139 l 591 139 l 591 172 l 563 172 q 553 150 562 168 q 542 155 551 151 q 553 176 548 164 q 562 205 557 188 q 575 200 566 203 m 523 169 q 509 149 517 159 q 500 157 505 155 q 520 185 511 169 q 535 219 529 201 q 549 212 543 214 q 535 189 544 209 l 535 105 q 535 76 535 85 l 522 76 q 523 105 523 85 l 523 169 z "},"R":{"ha":870,"x_min":6,"x_max":684,"o":"m 562 688 q 683 553 682 656 l 684 141 q 570 12 669 30 l 115 14 q 6 121 31 14 l 7 568 q 121 687 31 682 l 562 688 m 318 583 q 325 566 323 574 q 324 542 327 557 q 302 526 319 526 q 274 537 280 526 q 274 560 267 547 q 267 591 281 572 q 245 598 256 595 q 219 597 233 602 l 210 597 l 210 604 q 235 616 210 610 l 254 616 q 313 589 294 616 l 318 583 m 311 602 q 319 604 309 612 q 402 528 364 568 q 449 502 427 502 l 507 502 q 549 495 543 502 q 547 461 547 473 l 547 385 q 534 378 545 378 l 516 378 q 489 399 499 378 q 473 423 480 399 q 463 444 463 429 q 435 459 444 449 q 429 461 431 461 l 413 457 q 395 464 412 464 q 369 450 389 450 q 357 430 360 450 l 344 423 l 347 408 l 347 406 l 317 378 l 317 363 q 331 350 317 360 l 355 350 q 400 312 400 350 q 409 240 400 306 l 321 240 q 304 312 312 240 q 245 378 298 378 q 150 394 150 378 l 125 426 l 125 432 q 201 515 125 448 q 257 568 201 517 l 262 574 q 271 567 273 582 q 268 535 262 544 q 279 524 273 526 l 309 522 q 327 534 319 522 q 326 578 334 553 q 315 595 321 587 l 311 602 m 141 656 q 37 549 58 652 l 36 141 q 136 43 59 43 l 550 42 q 653 159 640 58 l 652 535 q 542 658 651 628 l 141 656 m 235 492 l 235 490 q 239 486 235 486 l 245 486 q 250 490 250 486 l 250 492 q 245 497 250 497 l 239 497 q 235 492 235 496 m 373 406 q 378 401 378 405 l 378 397 l 373 397 q 369 401 369 397 q 373 406 370 406 m 143 219 q 157 217 150 217 q 155 203 155 211 q 155 184 155 195 l 189 184 q 188 167 189 177 l 185 98 q 175 82 183 85 q 156 79 167 79 q 150 92 155 85 q 169 94 163 92 q 174 102 174 96 l 177 174 l 155 174 q 151 133 154 147 q 143 107 149 119 q 119 77 137 96 q 108 85 113 83 q 127 104 119 94 q 137 124 134 114 q 142 147 140 135 q 143 174 143 159 l 133 174 q 117 174 126 174 l 117 185 q 134 184 126 184 l 143 184 l 143 201 q 143 219 143 210 m 49 167 q 71 166 58 166 l 94 166 q 119 167 105 166 l 119 156 q 94 157 105 157 l 88 157 q 80 136 84 146 q 69 114 75 125 q 105 119 93 116 q 95 137 102 126 q 105 143 102 140 q 115 124 111 132 q 125 106 119 117 q 113 100 119 103 q 109 109 111 105 q 78 104 90 106 q 58 99 66 102 q 52 111 55 105 q 65 131 59 116 q 75 157 72 145 l 71 157 q 49 156 58 157 l 49 167 m 91 201 q 114 201 101 201 l 114 190 q 91 191 101 191 l 76 191 q 58 190 66 191 l 58 201 q 76 201 66 201 l 91 201 m 326 183 l 318 183 q 314 148 317 163 q 305 121 311 133 q 290 100 299 110 q 266 79 281 90 q 255 90 262 85 q 280 105 271 96 q 295 127 289 115 q 303 153 300 139 q 307 183 305 168 l 296 183 q 286 146 294 165 q 265 116 277 128 q 254 124 262 122 q 275 150 268 136 q 285 183 282 164 l 276 183 q 262 159 268 168 q 252 165 258 164 q 271 198 264 183 q 277 220 277 214 q 293 214 286 216 q 287 207 290 212 q 281 194 284 201 l 338 194 q 335 136 336 167 q 333 97 334 106 q 325 84 332 87 q 301 79 317 81 q 295 93 301 85 q 317 94 313 92 q 321 104 321 96 l 326 183 m 221 197 q 216 182 217 192 l 229 182 l 229 201 q 228 218 229 211 l 241 218 q 241 201 241 211 l 241 182 q 255 182 247 182 l 255 171 q 241 172 246 172 l 241 140 q 258 146 252 142 q 258 134 258 140 q 241 129 251 132 l 241 100 q 241 77 241 90 l 228 77 q 229 100 229 89 l 229 126 q 216 122 222 124 q 203 116 210 120 q 197 130 201 122 q 229 136 208 131 l 229 172 l 214 172 q 208 149 211 160 q 196 153 202 153 q 203 177 201 165 q 206 199 205 189 q 221 197 213 197 m 393 138 q 416 137 404 137 l 473 137 q 462 119 468 129 q 444 98 456 109 q 463 92 454 94 q 488 90 471 90 q 481 77 481 84 q 455 82 467 79 q 434 92 444 85 q 389 77 413 81 q 380 90 387 82 q 404 92 395 90 q 425 98 413 94 q 406 128 416 108 q 393 127 405 128 l 393 138 m 431 222 q 435 205 434 214 l 463 205 q 487 205 473 205 l 487 195 q 463 195 474 195 l 382 195 q 382 170 382 184 q 381 139 382 155 q 376 107 380 123 q 362 78 372 91 q 349 85 356 81 q 359 98 355 92 q 367 115 363 104 q 371 140 370 126 q 349 127 356 133 q 344 140 347 134 q 358 146 351 144 q 372 153 364 149 l 372 177 q 371 205 372 197 l 422 205 q 417 219 420 212 q 431 222 425 220 m 459 186 q 459 174 459 182 l 459 163 q 465 157 459 157 q 479 159 470 157 q 478 147 477 152 q 453 149 459 146 q 448 158 448 151 l 448 177 l 420 177 q 415 153 420 159 q 400 141 410 146 q 390 150 398 146 q 407 165 406 155 q 408 186 408 175 l 459 186 m 434 104 q 454 128 446 115 l 417 128 q 434 104 429 109 m 351 191 q 369 171 360 182 q 360 163 366 169 q 343 183 352 174 q 351 191 349 188 m 551 129 q 550 155 551 143 l 620 155 q 619 135 619 144 l 619 90 q 614 81 619 83 q 602 78 610 79 q 598 90 602 83 q 608 91 606 90 q 609 104 609 93 l 562 104 l 562 78 l 550 78 q 551 102 551 92 l 551 129 m 541 172 q 568 172 556 172 l 581 172 l 581 182 l 568 182 q 547 181 558 182 l 547 191 q 568 191 558 191 l 581 191 l 581 199 l 568 199 q 544 199 557 199 l 544 209 q 568 208 558 208 l 581 208 q 580 220 581 214 l 593 220 q 592 208 592 214 l 608 208 q 628 209 618 208 l 628 199 q 608 199 618 199 l 592 199 l 592 191 l 604 191 q 623 191 613 191 l 623 181 q 604 182 612 182 l 592 182 l 592 172 l 610 172 q 633 172 624 172 l 633 162 q 609 163 624 163 l 568 163 q 541 162 553 163 l 541 172 m 524 220 q 524 201 524 210 l 524 104 q 524 79 524 91 l 511 79 q 513 104 513 91 l 513 199 q 511 220 513 211 l 524 220 m 608 114 l 608 125 l 562 125 l 562 114 l 608 114 m 608 134 l 608 146 l 562 146 l 562 134 l 608 134 m 509 189 q 501 149 507 183 q 489 151 495 151 q 497 190 494 160 q 509 189 503 189 m 532 170 q 526 190 530 177 q 537 193 531 191 q 543 173 541 180 q 532 170 536 171 z "},"S":{"ha":736,"x_min":6,"x_max":684,"o":"m 562 688 q 683 553 682 656 l 684 141 q 570 12 669 30 l 115 14 q 6 121 31 14 l 7 568 q 121 687 31 682 l 562 688 m 141 656 q 37 549 58 652 l 36 141 q 136 43 59 43 l 550 42 q 653 159 640 58 l 652 535 q 542 658 651 628 l 141 656 m 475 131 q 495 132 484 131 l 495 120 q 475 121 489 121 q 475 96 475 105 l 463 96 l 463 102 l 430 102 l 430 90 q 425 80 429 83 q 406 76 420 78 q 400 90 405 82 q 415 90 411 90 q 418 94 418 91 l 418 102 l 385 102 q 368 101 378 102 l 368 112 q 385 112 378 112 l 418 112 l 418 121 l 372 121 q 357 120 365 121 l 357 132 q 372 131 365 131 l 418 131 l 418 139 l 383 139 q 368 138 376 139 l 368 150 q 383 149 376 149 l 418 149 l 418 157 l 376 157 q 376 174 376 166 q 376 189 376 182 l 418 189 l 418 197 l 375 197 q 357 197 366 197 l 357 208 q 374 208 366 208 l 418 208 q 418 218 418 212 l 431 218 q 430 208 430 214 l 471 208 q 493 208 482 208 l 493 197 q 471 197 482 197 l 430 197 l 430 189 l 474 189 q 473 174 473 182 q 474 157 473 165 l 430 157 l 430 149 l 475 149 q 475 131 475 143 m 462 167 l 462 179 l 430 179 l 430 167 l 462 167 m 418 167 l 418 179 l 387 179 l 387 167 l 418 167 m 463 112 l 463 121 l 430 121 l 430 112 l 463 112 m 463 131 l 463 139 l 430 139 l 430 131 l 463 131 m 575 200 q 567 183 572 197 l 591 183 l 591 195 q 590 216 591 210 l 603 216 q 602 196 602 211 l 602 183 l 621 183 q 635 184 629 183 l 635 172 q 621 172 629 172 l 602 172 l 602 139 l 623 139 q 645 140 632 139 l 645 128 q 622 129 634 129 l 602 129 l 602 97 q 603 77 602 87 l 590 77 q 591 97 591 87 l 591 129 l 567 129 q 542 128 556 129 l 542 140 q 564 139 555 139 l 591 139 l 591 172 l 563 172 q 553 150 562 168 q 542 155 551 151 q 553 176 548 164 q 562 205 557 188 q 575 200 566 203 m 523 169 q 509 149 517 159 q 500 157 505 155 q 520 185 511 169 q 535 219 529 201 q 549 212 543 214 q 535 189 544 209 l 535 105 q 535 76 535 85 l 522 76 q 523 105 523 85 l 523 169 m 334 640 q 422 593 387 640 q 442 526 442 557 q 411 456 431 475 q 402 449 402 452 l 402 447 l 405 447 q 449 456 418 456 q 540 403 500 456 q 553 352 551 377 q 475 245 553 273 l 456 241 l 440 241 q 356 292 396 241 q 338 350 345 310 q 370 422 346 399 q 378 429 378 426 q 376 431 376 429 q 349 425 351 425 l 319 425 q 292 431 295 431 l 292 429 q 328 350 328 393 q 325 314 325 332 q 228 241 283 241 l 214 241 q 133 290 170 241 q 113 352 113 321 q 153 431 116 393 q 223 456 185 456 q 268 445 250 456 l 270 445 l 270 447 q 237 489 252 458 q 230 513 230 507 l 230 551 q 283 626 230 588 q 334 640 307 640 m 281 593 q 319 522 283 583 l 319 517 l 309 513 l 300 515 q 286 509 286 513 l 286 498 q 298 491 288 491 l 316 491 q 323 484 319 491 l 323 456 l 345 456 q 349 460 349 456 l 349 487 q 354 491 350 491 l 374 491 q 380 498 377 491 l 380 509 q 374 515 380 512 l 354 515 q 349 522 349 515 q 389 593 361 541 l 385 595 l 370 595 q 338 551 351 576 l 334 549 q 307 593 328 553 l 303 595 l 286 595 l 281 593 m 168 387 l 168 374 q 208 341 168 350 l 210 330 l 210 317 q 203 310 210 313 q 186 330 198 310 l 168 330 l 168 314 q 210 279 173 297 q 214 266 210 266 l 230 266 q 250 286 230 286 q 281 326 281 309 q 248 361 281 347 q 232 370 232 366 l 232 385 q 237 389 233 389 l 241 389 q 254 376 243 389 l 263 376 l 274 378 q 232 420 274 406 q 226 436 232 436 l 221 436 q 208 420 208 436 l 172 401 q 168 387 172 392 m 402 380 q 407 368 407 374 l 402 365 l 391 365 l 391 345 l 400 345 q 414 338 414 344 l 414 332 q 398 299 414 323 q 405 283 401 283 l 484 283 l 495 286 l 495 294 l 493 305 l 435 305 q 431 310 431 305 q 460 347 436 347 l 460 361 q 433 368 460 365 l 431 372 l 431 389 q 442 401 431 393 l 456 401 q 471 378 459 400 l 491 378 q 495 382 495 378 q 456 425 489 425 l 442 425 q 402 380 408 425 m 201 389 l 205 389 q 210 385 210 389 l 210 374 q 203 368 210 371 q 193 376 193 372 l 193 380 q 201 389 193 384 m 239 336 l 243 336 q 252 321 252 333 l 252 319 q 237 310 248 310 l 232 317 l 232 323 q 239 336 233 336 m 90 119 q 107 95 100 106 q 99 88 103 92 l 117 88 l 117 123 l 97 123 q 73 123 89 123 l 73 134 q 96 134 89 134 l 117 134 l 117 153 q 86 152 98 153 l 86 161 q 62 146 77 154 q 54 157 59 152 q 77 169 65 161 q 101 190 90 178 q 119 216 112 203 q 132 210 121 215 l 129 206 q 145 190 135 199 q 168 174 155 180 q 195 163 181 167 q 188 151 191 158 q 163 162 176 155 l 163 152 q 144 153 151 153 l 129 153 l 129 134 l 151 134 q 176 134 161 134 l 176 123 q 151 123 161 123 l 129 123 l 129 88 l 140 88 q 156 121 155 113 q 169 113 161 117 q 153 88 165 108 q 189 89 172 88 l 189 77 q 161 78 172 78 l 89 78 q 64 77 76 78 l 64 89 q 89 88 77 88 l 96 88 q 81 113 92 98 q 90 119 86 116 m 88 163 q 105 163 97 163 l 141 163 q 161 163 151 163 q 140 180 151 170 q 123 199 129 191 q 106 180 116 190 q 88 163 97 171 m 328 113 q 338 117 332 115 q 344 101 341 109 q 351 81 347 94 q 339 78 345 80 q 334 92 336 85 q 307 85 318 87 q 284 78 296 82 q 279 90 282 85 q 307 94 288 91 l 307 132 l 295 132 l 295 119 l 283 119 q 284 155 284 138 q 283 185 284 172 l 307 185 q 307 216 307 209 l 318 216 q 318 185 318 208 l 341 185 q 340 155 340 170 q 341 127 340 141 l 330 127 l 330 132 l 318 132 l 318 96 q 332 100 324 98 q 328 113 330 106 m 251 89 q 261 90 260 89 q 263 94 262 91 l 263 138 l 222 138 l 222 78 l 210 78 q 211 102 211 92 l 211 124 q 210 147 211 135 l 274 147 q 273 125 273 137 l 273 90 q 269 81 273 82 q 256 77 264 79 q 251 89 253 85 m 217 156 q 218 171 218 163 q 217 186 218 179 l 271 186 q 270 171 270 179 q 271 156 270 163 l 217 156 m 274 197 q 254 198 266 198 l 231 198 q 208 197 217 198 l 208 208 q 229 208 215 208 l 254 208 q 274 208 267 208 l 274 197 m 258 130 q 250 115 254 125 l 258 115 l 258 106 l 246 106 l 246 87 l 236 87 l 236 106 l 227 106 l 227 115 l 243 115 q 248 134 247 126 q 258 130 252 131 m 330 141 l 330 176 l 318 176 l 318 141 l 330 141 m 307 141 l 307 176 l 295 176 l 295 141 l 307 141 m 258 165 l 258 177 l 229 177 l 229 165 l 258 165 m 240 121 q 231 118 235 119 q 227 130 229 125 l 234 134 q 240 121 236 127 z "},"T":{"ha":916,"x_min":6,"x_max":684,"o":"m 562 688 q 683 553 682 656 l 684 141 q 570 12 669 30 l 115 14 q 6 121 31 14 l 7 568 q 121 687 31 682 l 562 688 m 141 656 q 37 549 58 652 l 36 141 q 136 43 59 43 l 550 42 q 653 159 640 58 l 652 535 q 542 658 651 628 l 141 656 m 197 632 l 490 632 q 534 585 526 632 l 534 366 q 586 276 586 296 q 559 243 580 243 l 121 243 q 96 279 96 243 q 143 363 96 299 q 145 381 145 372 l 145 589 q 197 632 155 632 m 186 594 l 186 384 l 448 384 q 472 386 456 384 l 477 384 q 501 390 501 386 l 501 589 q 496 594 501 594 l 186 594 m 179 330 l 179 328 l 208 328 l 208 332 q 203 336 208 336 l 193 336 q 179 330 179 335 m 474 332 l 474 328 l 503 328 l 503 330 q 496 336 503 333 l 479 336 q 474 332 474 336 m 293 334 l 293 328 l 295 328 q 300 332 300 328 l 295 334 l 293 334 m 338 334 l 338 328 l 345 328 l 345 334 l 338 334 m 382 334 l 382 328 l 391 328 l 391 332 l 382 334 m 427 334 l 427 328 l 436 328 l 436 330 q 432 334 436 334 l 427 334 m 248 332 l 248 328 l 255 328 l 255 332 l 248 332 m 172 319 l 172 317 l 224 317 l 224 319 l 172 319 m 503 317 q 496 301 500 301 l 432 301 l 432 296 l 448 294 l 524 294 q 530 301 527 294 q 503 317 523 317 m 159 301 l 159 298 q 163 294 159 294 l 246 294 q 250 298 250 294 l 250 301 l 159 301 m 284 301 q 291 294 284 298 l 302 296 l 302 301 l 284 301 m 336 301 l 336 294 l 347 294 q 351 298 351 294 l 351 301 l 336 301 m 382 301 q 385 294 385 296 l 396 294 q 400 298 400 294 l 400 301 l 382 301 m 150 276 l 150 274 l 195 274 l 195 279 q 190 283 195 283 l 163 283 q 150 276 150 281 m 228 274 l 405 274 l 405 281 l 394 283 l 235 283 q 228 274 231 283 m 443 283 l 441 274 l 486 274 l 486 276 q 479 283 486 279 l 443 283 m 182 130 q 182 105 182 122 q 182 79 182 88 l 171 79 l 171 90 l 118 90 l 118 77 l 106 77 q 106 103 106 86 q 106 130 106 120 l 182 130 m 96 213 q 84 189 92 210 l 84 104 q 85 75 84 85 l 71 75 q 73 105 73 86 l 73 167 q 59 142 66 152 q 50 152 55 149 q 66 178 56 159 q 81 218 76 197 q 96 213 87 216 m 171 100 l 171 121 l 118 121 l 118 100 l 171 100 m 193 186 q 144 187 180 187 q 95 186 108 187 l 95 197 l 193 197 l 193 186 m 184 165 q 146 165 173 165 q 104 165 118 165 l 104 175 q 144 174 116 174 q 184 175 173 174 l 184 165 m 184 143 q 146 144 175 144 q 104 143 118 144 l 104 153 q 146 153 117 153 q 184 153 176 153 l 184 143 m 142 218 q 146 211 144 215 q 150 201 148 206 q 139 199 144 199 q 132 214 134 212 q 142 218 138 217 m 260 213 q 252 199 254 204 l 315 199 q 314 165 314 186 q 315 132 314 145 l 213 132 q 213 165 213 145 q 213 199 213 186 l 241 199 q 245 217 243 204 q 260 213 252 215 m 242 121 q 241 97 241 104 q 243 88 241 90 q 252 86 245 86 l 283 86 q 289 88 288 86 q 292 101 291 90 q 304 96 296 98 q 299 81 301 84 q 288 77 296 78 l 242 77 q 231 82 233 78 q 230 96 229 87 q 229 121 230 104 l 242 121 m 302 179 l 302 191 l 225 191 l 225 179 l 302 179 m 302 140 l 302 151 l 225 151 l 225 140 l 302 140 m 302 159 l 302 171 l 225 171 l 225 159 l 302 159 m 313 123 q 335 96 323 109 q 325 87 329 92 q 303 115 313 105 q 313 123 308 118 m 216 114 q 204 82 208 92 q 192 86 199 85 q 204 117 199 97 q 216 114 209 115 m 267 125 q 278 106 273 115 q 267 100 273 104 q 256 119 262 111 q 267 125 262 121 m 409 177 q 404 171 406 174 q 395 153 402 168 l 452 153 q 477 154 467 153 l 477 143 q 453 144 467 144 l 447 144 q 429 112 440 125 q 475 90 452 103 q 467 78 471 85 q 419 103 444 93 q 385 85 404 92 q 352 76 365 79 q 345 89 349 83 q 380 96 363 90 q 406 108 397 101 q 363 120 388 115 q 378 144 373 134 l 363 144 q 342 143 355 144 l 342 154 q 362 153 349 153 l 382 153 q 395 183 391 168 q 409 177 402 178 m 395 214 q 405 222 400 218 q 418 203 412 213 q 410 197 414 201 l 467 197 q 466 183 466 189 q 467 168 466 178 l 454 168 l 454 187 l 363 187 l 363 170 l 350 170 q 351 184 351 178 q 349 197 351 191 l 406 197 q 395 214 401 208 m 381 126 q 417 116 406 119 q 433 144 426 124 l 392 144 q 381 126 387 136 m 554 207 q 619 163 576 172 q 612 149 614 156 q 591 159 600 153 l 591 149 q 570 150 585 150 l 555 150 l 555 125 l 578 125 q 599 125 591 125 l 599 115 q 578 115 591 115 l 555 115 l 555 87 l 579 87 q 609 89 597 87 l 609 76 q 580 78 598 78 l 512 78 q 485 77 494 78 l 485 88 q 512 87 494 87 l 543 87 l 543 115 l 526 115 q 498 115 505 115 l 498 125 q 525 125 505 125 l 543 125 l 543 150 l 530 150 q 506 149 511 150 l 506 159 q 485 146 500 155 q 476 159 481 153 q 511 177 491 163 q 542 216 530 192 q 557 210 549 213 l 554 207 m 509 161 q 531 160 517 160 l 568 160 q 587 161 580 160 q 547 200 560 174 q 509 161 531 175 z "},"U":{"ha":1018,"x_min":6,"x_max":684,"o":"m 562 688 q 683 553 682 656 l 684 141 q 570 12 669 30 l 115 14 q 6 121 31 14 l 7 568 q 121 687 31 682 l 562 688 m 141 656 q 37 549 58 652 l 36 141 q 136 43 59 43 l 550 42 q 653 159 640 58 l 652 535 q 542 658 651 628 l 141 656 m 328 640 l 359 640 q 435 614 412 633 q 473 541 473 576 q 475 536 475 541 q 473 532 475 532 l 475 516 l 475 471 q 379 238 475 292 q 359 231 363 231 l 330 231 q 249 298 299 231 q 215 440 215 372 l 215 451 l 211 478 l 220 561 q 267 621 231 597 q 328 640 281 632 m 237 444 l 237 437 q 269 420 241 420 q 292 418 269 418 q 298 420 294 418 q 300 418 300 420 q 332 435 326 418 q 273 471 332 459 l 258 471 q 237 444 237 460 m 361 442 l 361 431 q 404 418 370 418 l 406 418 q 455 442 455 418 l 455 449 q 428 471 444 471 l 417 471 q 361 442 361 456 m 302 321 l 302 319 q 323 292 302 302 q 328 298 323 298 l 361 298 l 370 292 q 388 319 378 292 q 345 341 388 331 q 302 321 323 341 m 330 290 q 332 283 332 286 l 352 283 q 361 288 357 288 l 361 290 l 330 290 m 167 211 q 166 191 166 201 l 166 156 q 169 148 166 148 l 175 148 q 181 163 178 148 q 193 157 186 158 q 184 138 189 139 q 173 136 178 136 q 162 138 168 136 q 155 149 155 139 l 155 201 l 127 201 q 125 168 127 186 q 105 130 123 149 q 95 138 103 134 q 110 156 104 145 q 116 180 116 167 q 115 211 117 193 l 167 211 m 106 196 q 87 197 95 197 l 87 161 q 109 165 94 162 q 109 156 108 160 q 55 142 71 148 q 50 154 53 149 q 75 159 60 155 l 75 197 q 54 196 64 197 l 54 207 q 79 206 64 206 q 106 207 95 206 l 106 196 m 102 125 q 101 102 101 111 q 102 91 101 94 q 110 87 103 87 l 138 87 q 149 92 146 87 q 151 104 151 97 q 164 98 158 100 q 155 81 160 84 q 141 77 151 77 l 104 77 q 90 90 90 78 l 90 105 q 89 125 90 114 l 102 125 m 81 124 q 62 85 71 100 q 52 92 56 89 q 71 130 62 108 q 81 124 75 127 m 189 98 q 178 90 182 94 q 158 123 174 98 q 168 130 162 127 q 189 98 184 105 m 122 136 q 141 110 134 120 q 131 102 135 106 q 113 130 125 114 q 122 136 117 133 m 137 189 q 154 161 149 169 q 143 155 149 159 q 127 183 140 163 q 137 189 132 186 m 284 219 q 298 215 291 216 q 291 197 296 213 l 323 197 q 342 198 332 197 l 342 186 q 323 187 332 187 l 288 187 q 273 157 282 174 l 294 157 q 293 175 294 165 l 305 175 q 304 157 304 164 l 337 157 q 336 138 336 147 l 336 115 q 334 103 336 106 q 316 96 331 100 q 311 109 315 102 q 323 111 322 109 q 325 119 325 113 l 325 146 l 304 146 l 304 101 q 305 76 304 90 l 293 76 q 294 101 294 89 l 294 146 l 275 146 l 275 96 l 262 96 q 263 115 263 106 l 263 143 q 248 125 256 134 q 238 134 244 130 q 259 157 250 144 q 275 187 269 171 l 270 187 q 250 186 261 187 l 250 198 q 270 197 261 197 l 279 197 q 284 219 283 208 m 234 216 q 233 197 233 206 l 233 104 q 234 77 233 90 l 222 77 q 222 104 222 91 l 222 195 q 222 216 222 205 l 234 216 m 220 180 q 209 143 216 162 q 197 146 203 145 q 209 184 205 164 q 220 180 214 182 m 246 186 q 258 165 252 176 q 247 158 252 161 q 236 180 242 172 q 246 186 242 182 m 347 159 q 377 174 367 165 q 392 195 387 183 l 373 195 q 349 195 359 195 l 349 206 q 373 205 361 205 l 395 205 q 396 224 397 218 q 412 221 405 222 q 407 205 409 216 l 448 205 q 432 214 440 210 q 438 223 435 219 q 456 213 447 218 q 449 205 452 208 l 459 205 q 482 206 473 205 l 482 195 q 459 195 469 195 l 431 195 l 431 178 q 444 184 436 180 q 456 193 452 189 q 466 180 460 186 q 451 176 460 180 q 431 167 441 172 q 437 163 430 163 l 462 163 q 469 164 467 163 q 472 176 471 165 q 484 170 477 172 q 475 155 480 157 q 463 153 471 153 l 429 153 q 420 163 419 154 q 398 153 412 158 q 391 164 396 159 q 420 173 408 168 l 420 195 l 404 195 q 388 169 398 180 q 357 148 378 159 q 347 159 355 155 m 418 153 q 422 139 420 145 l 460 139 q 484 140 469 139 l 484 130 q 460 130 469 130 l 416 130 q 394 111 408 119 l 394 94 q 413 105 402 98 q 416 94 413 100 q 404 86 412 92 q 387 76 395 81 q 379 87 383 83 q 382 96 382 89 l 382 104 q 352 88 369 95 q 343 100 349 94 q 363 106 351 101 q 386 118 375 111 q 401 130 396 125 l 374 130 q 347 130 362 130 l 347 140 q 374 139 362 139 l 409 139 q 406 151 408 142 q 418 153 412 151 m 468 115 q 459 111 465 115 q 448 102 454 106 q 484 94 467 94 q 477 81 479 88 q 448 90 461 84 q 426 103 434 96 q 411 120 418 111 l 418 127 q 439 108 428 115 q 456 125 453 119 q 468 115 460 122 m 560 192 l 560 204 q 559 217 559 210 l 572 217 q 572 204 572 210 l 572 192 l 604 192 q 624 193 615 192 l 624 180 q 604 181 615 181 l 572 181 l 572 155 l 618 155 q 639 156 631 155 l 639 144 q 618 145 631 145 l 572 145 l 572 96 l 606 96 l 606 121 q 606 132 606 125 l 619 132 q 618 121 618 124 l 618 95 q 619 77 618 86 l 606 77 l 606 86 l 513 86 q 513 101 513 94 l 513 121 q 513 132 513 123 l 526 132 q 526 121 526 123 l 526 96 l 560 96 l 560 145 l 515 145 q 493 144 502 145 l 493 156 q 515 155 502 155 l 560 155 l 560 181 l 528 181 q 509 180 517 181 l 509 193 q 528 192 516 193 l 560 192 z "},"V":{"ha":989,"x_min":7,"x_max":685,"o":"m 563 688 q 684 553 683 656 l 685 141 q 572 12 671 30 l 117 14 q 7 121 33 14 l 8 568 q 123 687 32 682 l 563 688 m 142 656 q 38 549 60 652 l 37 141 q 137 43 60 43 l 551 42 q 654 159 642 58 l 654 535 q 543 658 652 628 l 142 656 m 476 131 q 496 132 485 131 l 496 120 q 476 121 490 121 q 477 96 476 105 l 465 96 l 465 102 l 431 102 l 431 90 q 426 80 431 83 q 408 76 421 78 q 401 90 406 82 q 416 90 412 90 q 420 94 420 91 l 420 102 l 386 102 q 370 101 379 102 l 370 112 q 386 112 379 112 l 420 112 l 420 121 l 374 121 q 359 120 366 121 l 359 132 q 374 131 366 131 l 420 131 l 420 139 l 385 139 q 370 138 378 139 l 370 150 q 385 149 378 149 l 420 149 l 420 157 l 377 157 q 378 174 378 166 q 377 189 378 182 l 420 189 l 420 197 l 376 197 q 358 197 367 197 l 358 208 q 376 208 367 208 l 420 208 q 419 218 420 212 l 432 218 q 431 208 431 214 l 473 208 q 494 208 484 208 l 494 197 q 473 197 484 197 l 431 197 l 431 189 l 475 189 q 475 174 475 182 q 475 157 475 165 l 431 157 l 431 149 l 477 149 q 476 131 476 143 m 463 167 l 463 179 l 431 179 l 431 167 l 463 167 m 420 167 l 420 179 l 389 179 l 389 167 l 420 167 m 465 112 l 465 121 l 431 121 l 431 112 l 465 112 m 465 131 l 465 139 l 431 139 l 431 131 l 465 131 m 576 200 q 568 183 574 197 l 592 183 l 592 195 q 591 216 592 210 l 604 216 q 604 196 604 211 l 604 183 l 622 183 q 637 184 630 183 l 637 172 q 622 172 630 172 l 604 172 l 604 139 l 624 139 q 646 140 633 139 l 646 128 q 623 129 635 129 l 604 129 l 604 97 q 604 77 604 87 l 591 77 q 592 97 592 87 l 592 129 l 568 129 q 543 128 557 129 l 543 140 q 566 139 557 139 l 592 139 l 592 172 l 564 172 q 554 150 563 168 q 543 155 552 151 q 554 176 549 164 q 563 205 559 188 q 576 200 568 203 m 524 169 q 510 149 518 159 q 501 157 507 155 q 521 185 512 169 q 536 219 530 201 q 550 212 544 214 q 536 189 545 209 l 536 105 q 536 76 536 85 l 524 76 q 524 105 524 85 l 524 169 m 247 636 l 249 636 q 317 525 260 624 l 317 519 q 281 452 281 482 l 277 450 l 149 450 q 140 458 145 450 l 140 471 q 157 544 144 515 q 247 636 200 621 m 313 395 q 390 391 349 382 l 458 277 q 426 256 458 268 q 368 241 413 248 l 338 241 q 336 243 336 241 l 332 241 q 243 277 243 260 q 261 304 250 285 q 285 350 272 323 q 313 395 307 390 m 197 145 q 197 114 197 131 q 197 80 197 97 l 186 80 l 186 87 l 134 87 l 134 79 l 123 79 q 123 111 123 91 q 123 145 123 132 l 197 145 m 98 212 q 90 193 94 208 q 116 193 106 193 l 116 182 q 88 183 103 183 q 76 152 83 166 l 92 152 q 91 170 92 159 l 102 170 q 102 152 102 159 q 118 153 114 152 l 118 142 q 102 142 114 142 l 102 121 q 119 125 109 123 q 118 115 118 121 q 102 112 109 114 q 102 77 102 92 l 91 77 q 92 110 92 90 q 65 103 70 105 q 61 115 64 110 q 92 120 70 115 l 92 142 q 79 142 84 142 q 65 140 75 142 l 61 150 q 71 162 66 153 q 77 183 75 172 q 62 182 71 183 l 62 193 q 80 193 73 193 q 85 216 83 205 q 98 212 90 214 m 189 188 q 189 172 189 178 q 189 155 189 164 l 131 155 q 132 172 132 164 q 131 188 132 179 l 189 188 m 180 209 q 197 210 189 209 l 197 199 q 180 199 189 199 l 140 199 q 121 199 129 199 l 121 210 q 139 209 129 209 l 180 209 m 178 165 l 178 178 l 142 178 l 142 165 l 178 165 m 155 96 l 155 112 l 134 112 l 134 96 l 155 96 m 186 96 l 186 112 l 165 112 l 165 96 l 186 96 m 155 121 l 155 136 l 134 136 l 134 121 l 155 121 m 186 121 l 186 136 l 165 136 l 165 121 l 186 121 m 255 218 q 248 203 252 214 l 281 203 q 281 182 281 193 l 281 92 q 276 83 281 85 q 258 78 271 80 q 254 92 257 85 q 267 92 263 91 q 270 99 270 93 l 270 125 l 263 125 q 245 100 258 111 q 218 81 231 88 q 208 92 214 87 q 233 105 222 96 q 251 125 245 114 l 223 125 q 210 124 219 125 l 210 136 q 222 135 218 135 l 222 183 q 222 203 222 193 l 237 203 q 240 222 239 213 l 255 218 m 321 203 q 320 220 321 211 l 333 220 q 332 203 332 211 l 332 180 q 353 180 342 180 l 353 170 q 332 170 342 170 l 332 96 q 325 83 332 86 q 308 78 318 80 q 302 93 308 85 q 317 93 312 92 q 321 100 321 94 l 321 170 q 285 170 298 170 l 285 180 q 321 180 300 180 l 321 203 m 270 180 l 270 193 l 233 193 l 233 180 l 270 180 m 270 157 l 270 170 l 233 170 l 233 157 l 270 157 m 270 135 l 270 148 l 233 148 l 233 135 l 270 135 m 300 157 q 309 131 307 137 q 297 126 302 130 q 289 153 295 138 q 300 157 294 155 m 427 450 q 385 516 418 487 q 456 636 445 626 q 535 566 494 622 q 563 478 561 511 q 565 471 565 478 l 565 454 q 564 452 565 453 l 564 448 l 427 448 l 427 450 m 351 497 q 382 485 370 497 q 395 454 395 472 q 382 424 395 436 q 351 411 370 411 q 321 424 334 411 q 308 454 308 436 q 321 485 308 472 q 351 497 334 497 z "},"W":{"ha":1377,"x_min":6,"x_max":684,"o":"m 562 688 q 683 553 682 656 l 684 141 q 570 12 669 30 l 115 14 q 6 121 31 14 l 7 568 q 121 687 31 682 l 562 688 m 141 656 q 37 549 58 652 l 36 141 q 136 43 59 43 l 550 42 q 653 159 640 58 l 652 535 q 542 658 651 628 l 141 656 m 495 132 l 495 120 q 475 121 489 121 q 475 96 475 105 l 463 96 l 463 102 l 430 102 l 430 90 q 425 80 429 83 q 406 76 420 78 q 400 90 405 82 q 415 90 411 90 q 418 94 418 91 l 418 102 l 385 102 q 368 101 378 102 l 368 112 l 418 112 l 418 121 l 372 121 q 357 120 365 121 l 357 132 q 372 131 365 131 l 418 131 l 418 139 l 383 139 q 368 138 376 139 l 368 150 q 383 149 376 149 l 418 149 l 418 157 l 376 157 q 376 174 376 166 q 376 189 376 182 l 418 189 l 418 197 l 375 197 q 357 197 366 197 l 357 208 q 374 208 366 208 l 418 208 q 418 218 418 212 l 431 218 q 430 208 430 214 l 471 208 q 493 208 482 208 l 493 197 q 471 197 482 197 l 430 197 l 430 189 l 474 189 q 473 174 473 182 q 474 157 473 165 l 430 157 l 430 149 l 475 149 q 475 131 475 143 q 495 132 484 131 m 462 167 l 462 179 l 430 179 l 430 167 l 462 167 m 418 167 l 418 179 l 387 179 l 387 167 l 418 167 m 463 112 l 463 121 l 430 121 l 430 112 l 463 112 m 463 131 l 463 139 l 430 139 l 430 131 l 463 131 m 567 183 l 591 183 l 591 195 q 590 216 591 210 l 603 216 q 602 196 602 211 l 602 183 l 621 183 q 635 184 629 183 l 635 172 q 621 172 629 172 l 602 172 l 602 139 l 623 139 q 645 140 632 139 l 645 128 q 622 129 634 129 l 602 129 l 602 97 q 603 77 602 87 l 590 77 q 591 97 591 87 l 591 129 l 567 129 q 542 128 556 129 l 542 140 q 564 139 555 139 l 591 139 l 591 172 l 563 172 q 553 150 562 168 q 542 155 551 151 q 553 176 548 164 q 562 205 557 188 q 575 200 566 203 q 567 183 572 197 m 523 169 q 509 149 517 159 q 500 157 505 155 q 520 185 511 169 q 535 219 529 201 q 549 212 543 214 q 535 189 544 209 l 535 76 l 522 76 q 523 105 523 85 l 523 169 m 445 614 q 498 597 472 607 q 486 554 496 568 l 475 554 q 465 557 470 556 q 454 528 455 558 l 452 513 q 439 454 445 454 q 426 449 426 454 l 426 387 q 415 370 426 378 l 415 278 q 409 271 415 275 l 404 271 q 398 284 398 274 l 398 372 l 389 372 l 389 278 q 383 271 389 275 q 376 278 380 271 l 376 370 q 364 385 368 375 l 363 393 l 363 449 q 359 454 363 454 l 357 449 l 357 395 q 353 391 357 391 l 347 391 q 342 395 342 391 l 342 423 q 340 441 342 432 q 347 467 342 467 l 411 467 l 422 469 q 424 467 422 467 q 439 524 431 473 q 447 543 441 524 l 450 558 q 430 569 450 564 q 445 614 433 614 m 445 601 l 439 578 q 481 565 451 569 q 486 584 486 578 l 486 586 q 469 597 486 593 q 452 601 458 601 l 445 601 m 321 569 q 363 558 349 564 q 368 575 363 560 l 368 584 q 341 594 346 593 q 334 595 336 595 l 330 595 q 321 569 323 595 m 267 522 l 282 522 q 295 509 286 522 l 295 490 q 280 477 295 486 l 267 477 q 254 496 254 484 l 254 511 q 267 522 254 515 m 383 522 l 400 522 q 415 507 410 517 l 415 494 q 400 477 408 481 l 385 477 q 368 500 376 477 q 383 522 372 515 m 301 368 q 300 361 300 364 l 300 276 q 287 269 298 269 q 282 279 282 269 l 283 368 l 281 368 l 281 277 q 275 269 280 270 l 267 269 q 257 278 257 269 l 257 368 q 244 376 257 372 q 246 419 246 406 l 246 451 l 239 451 l 239 395 q 235 391 239 391 l 231 391 q 222 400 228 391 l 222 454 q 229 467 224 467 l 310 467 l 313 477 l 314 491 q 321 524 319 505 q 332 552 332 536 q 313 563 332 560 q 326 603 313 594 q 381 584 349 604 q 363 547 373 547 q 348 552 354 550 q 338 524 342 553 l 340 519 q 321 451 328 451 l 319 451 q 317 454 317 451 q 308 451 313 451 l 308 378 q 301 368 302 373 m 107 210 q 101 204 104 208 q 97 197 99 201 l 171 197 q 191 197 180 197 l 191 188 l 140 188 l 140 178 l 163 178 q 180 179 171 178 l 180 168 q 163 169 171 169 l 140 169 l 140 159 l 165 159 q 183 160 172 159 l 183 150 q 165 151 172 151 l 140 151 l 140 142 l 170 142 q 189 142 179 142 l 189 132 q 170 133 180 133 l 92 133 l 92 128 l 80 128 q 81 148 81 139 l 81 176 q 75 167 78 170 q 68 160 73 164 q 60 168 64 164 q 74 184 64 172 q 88 204 83 196 q 94 218 92 212 q 107 210 99 215 m 124 121 q 123 132 124 123 l 136 132 q 136 121 136 123 l 174 121 q 195 121 184 121 l 195 112 l 152 112 q 171 101 161 105 q 199 93 181 97 q 191 81 193 87 q 172 88 179 85 q 158 96 164 92 q 147 103 151 100 q 138 112 143 107 l 136 112 l 136 98 q 136 77 136 85 l 123 77 q 124 98 124 85 l 124 112 l 121 112 q 112 101 117 106 q 100 93 106 96 q 86 85 94 89 q 69 79 79 81 q 62 90 67 85 q 88 99 75 94 q 108 112 101 104 l 64 112 l 64 121 q 86 121 72 121 l 124 121 m 128 159 l 128 169 l 92 169 l 92 159 l 128 159 m 128 178 l 128 188 l 92 188 l 92 178 l 128 178 m 128 142 l 128 151 l 92 151 l 92 142 l 128 142 m 136 218 q 142 212 138 216 q 149 204 145 209 q 138 197 145 201 q 133 205 135 202 q 126 211 130 208 q 136 218 131 214 m 274 121 q 241 94 269 119 q 302 96 280 95 q 286 112 296 102 q 294 120 290 116 q 310 104 302 112 q 328 86 318 97 q 318 77 324 83 q 309 88 313 85 q 264 86 295 87 q 224 81 233 84 q 220 94 221 90 q 242 109 229 96 q 261 129 256 121 l 243 129 q 214 128 227 129 l 214 138 q 243 138 228 138 l 303 138 q 332 138 318 138 l 332 128 q 300 129 318 129 l 264 129 q 274 121 269 124 m 280 208 q 344 163 301 178 q 336 153 338 158 q 274 200 295 171 q 212 149 245 168 q 201 159 205 158 q 244 185 224 168 q 271 218 264 203 q 284 212 277 215 l 280 208 m 284 165 q 306 166 298 165 l 306 155 q 284 156 297 156 l 258 156 q 239 155 248 156 l 239 166 q 258 165 248 165 l 284 165 z "},"X":{"ha":916,"x_min":-4,"x_max":663,"o":"m 1 667 l 658 667 q 663 662 663 666 l 663 5 q 658 0 663 0 l 1 0 q -4 5 -4 0 l -4 662 q 1 667 -3 667 m 315 508 q 306 387 296 444 l 149 387 q 134 508 168 437 l 315 508 m 463 573 q 454 451 447 518 l 344 452 l 360 539 l 292 539 l 283 576 l 463 573 m 308 354 q 333 237 296 304 l 119 238 q 148 353 159 299 l 308 354 m 451 414 l 456 385 l 408 385 q 406 292 391 348 l 360 291 q 348 414 331 350 l 451 414 m 543 354 l 543 224 l 440 224 l 440 354 l 543 354 m 447 336 l 447 310 l 480 310 l 480 336 l 447 336 m 494 336 l 494 310 l 528 310 l 528 336 l 494 336 m 77 176 q 70 166 73 172 q 66 154 68 160 l 102 154 l 102 175 q 101 190 102 182 l 115 190 q 115 175 115 183 l 115 154 l 141 154 q 163 155 151 154 l 163 142 q 141 143 151 143 l 115 143 l 115 116 l 133 116 q 154 116 142 116 l 154 104 q 133 104 142 104 l 115 104 l 115 68 l 151 68 q 173 69 160 68 l 173 58 q 151 58 161 58 l 64 58 q 43 58 54 58 l 43 69 q 64 68 54 68 l 102 68 l 102 104 l 79 104 q 62 104 71 104 l 62 116 q 79 116 71 116 l 102 116 l 102 143 l 61 143 q 50 121 56 130 q 36 125 44 124 q 50 149 43 132 q 61 182 58 165 l 77 176 m 298 163 q 291 152 295 159 q 284 139 288 145 l 303 139 q 320 140 315 139 l 320 127 q 304 128 315 128 l 213 128 q 190 58 213 81 q 181 67 188 63 q 199 104 197 85 q 200 139 201 123 l 271 139 q 283 170 279 155 q 298 163 291 165 m 260 201 q 265 182 262 197 l 296 182 q 316 182 307 182 l 316 171 q 298 171 307 171 l 224 171 q 201 171 216 171 l 201 182 q 220 182 216 182 l 252 182 q 247 198 250 189 q 260 201 254 199 m 233 169 q 248 146 241 159 q 235 140 241 144 q 222 162 229 153 q 233 169 228 165 m 400 157 q 396 152 398 155 q 387 134 393 149 l 443 134 q 467 135 458 134 l 467 124 q 444 125 457 125 l 437 125 q 420 94 431 107 q 465 71 442 85 q 457 60 461 66 q 410 85 435 75 q 376 67 395 73 q 344 58 357 60 q 337 71 342 66 q 372 77 355 72 q 398 90 389 83 q 355 102 380 96 q 370 125 365 115 l 355 125 q 334 124 348 125 l 334 135 q 354 134 342 134 l 374 134 q 387 163 382 149 q 400 157 393 159 m 387 194 q 396 201 392 198 q 409 182 403 193 q 401 177 406 181 l 457 177 q 456 163 456 169 q 457 149 456 158 l 444 149 l 444 168 l 355 168 l 355 150 l 342 150 q 343 165 343 159 q 342 177 343 171 l 397 177 q 387 194 393 188 m 373 108 q 408 98 398 101 q 425 125 416 105 l 383 125 q 373 108 378 117 m 550 186 q 614 143 571 153 q 607 129 608 136 q 586 139 595 134 l 586 130 q 565 130 580 130 l 551 130 l 551 106 l 574 106 q 594 106 586 106 l 594 96 q 574 96 586 96 l 551 96 l 551 69 l 574 69 q 604 71 592 69 l 604 58 q 575 60 593 60 l 509 60 q 481 59 491 60 l 481 70 q 509 69 491 69 l 538 69 l 538 96 l 522 96 q 494 96 501 96 l 494 106 q 521 106 501 106 l 538 106 l 538 130 l 526 130 q 503 130 508 130 l 503 139 q 481 127 497 135 q 473 139 478 134 q 507 157 488 143 q 538 195 526 172 q 553 189 545 193 l 550 186 m 506 141 q 527 140 513 140 l 564 140 q 582 141 575 140 q 543 180 556 155 q 506 141 527 155 m 18 642 l 18 23 l 637 23 l 637 642 l 18 642 z "},"Y":{"ha":836,"x_min":-4,"x_max":663,"o":"m 1 667 l 658 667 q 663 662 663 666 l 663 5 q 658 0 663 0 l 1 0 q -4 5 -4 0 l -4 662 q 1 667 -3 667 m 400 157 q 396 152 398 155 q 387 134 393 149 l 443 134 q 467 135 458 134 l 467 124 q 444 125 457 125 l 437 125 q 420 94 431 107 q 465 71 442 85 q 457 60 461 66 q 410 85 435 75 q 376 67 395 73 q 344 58 357 60 q 337 71 342 66 q 372 77 355 72 q 398 90 389 83 q 355 102 380 96 q 370 125 365 115 l 355 125 q 334 124 348 125 l 334 135 q 354 134 342 134 l 374 134 q 387 163 382 149 q 400 157 393 159 m 387 194 q 396 201 392 198 q 409 182 403 193 q 401 177 406 181 l 457 177 q 456 163 456 169 q 457 149 456 158 l 444 149 l 444 168 l 355 168 l 355 150 l 342 150 q 343 165 343 159 q 342 177 343 171 l 397 177 q 387 194 393 188 m 373 108 q 408 98 398 101 q 425 125 416 105 l 383 125 q 373 108 378 117 m 557 186 q 621 143 578 153 q 614 129 615 136 q 593 139 602 134 l 593 130 q 572 130 587 130 l 557 130 l 557 106 l 581 106 q 601 106 593 106 l 601 96 q 581 96 593 96 l 557 96 l 557 69 l 581 69 q 610 71 599 69 l 610 58 q 582 60 600 60 l 515 60 q 488 59 498 60 l 488 70 q 515 69 498 69 l 545 69 l 545 96 l 528 96 q 501 96 508 96 l 501 106 q 528 106 508 106 l 545 106 l 545 130 l 533 130 q 509 130 515 130 l 509 139 q 488 127 504 135 q 480 139 485 134 q 514 157 494 143 q 545 195 533 172 q 559 189 552 193 l 557 186 m 513 141 q 534 140 520 140 l 570 140 q 589 141 582 140 q 550 180 563 155 q 513 141 534 155 m 458 627 l 463 627 q 467 623 467 627 l 467 616 l 465 588 l 471 588 q 492 591 479 588 q 501 581 501 588 l 494 568 l 499 565 l 534 565 q 568 526 563 565 l 568 310 q 531 273 568 286 q 524 275 529 273 q 504 273 512 273 l 490 273 q 444 212 490 238 l 395 212 q 350 273 350 235 l 274 273 q 262 243 269 273 q 226 212 252 226 l 177 212 q 136 253 148 223 q 127 273 132 273 l 104 273 q 74 296 79 273 l 74 298 q 94 324 74 309 l 94 409 q 129 471 94 448 q 182 510 161 510 l 233 510 q 246 517 244 510 l 246 526 q 288 565 246 565 l 334 565 q 363 576 345 576 l 363 586 q 350 606 350 602 q 359 618 354 617 l 393 595 l 400 595 q 412 614 400 607 l 418 614 q 430 600 423 600 q 458 627 452 626 m 361 399 l 361 393 q 366 389 362 389 l 453 389 q 458 393 458 389 l 458 399 q 428 452 446 414 q 414 469 416 469 l 410 469 q 368 407 398 463 q 361 399 365 407 m 138 399 q 145 386 140 386 l 233 386 q 246 399 246 386 l 246 460 q 241 464 246 464 l 186 464 q 138 399 138 443 m 405 446 l 414 446 q 418 440 418 445 l 418 435 q 410 410 418 414 q 400 443 401 410 l 405 446 m 177 287 l 177 273 q 189 255 177 261 l 212 255 q 226 273 226 262 l 226 287 q 198 303 216 303 q 177 287 188 303 m 393 273 q 407 255 399 258 l 425 255 q 444 269 438 255 l 444 292 q 418 303 427 303 q 393 273 393 303 m 410 405 q 413 403 412 405 q 414 400 414 401 q 413 396 414 398 q 410 395 412 395 q 406 396 408 395 q 405 400 405 398 q 406 403 405 401 q 410 405 408 405 m 141 96 q 97 91 109 92 q 81 86 85 89 l 75 99 q 88 113 81 102 q 98 141 95 124 q 66 140 78 141 l 66 152 q 114 151 79 151 q 160 152 149 151 l 160 140 q 112 141 149 141 q 105 123 111 134 q 92 100 100 112 q 136 104 115 102 q 124 122 132 112 q 133 129 129 124 q 158 92 144 114 q 147 85 153 89 q 141 96 144 91 m 25 69 q 50 84 44 81 l 50 133 q 28 132 39 133 l 28 144 q 52 143 41 143 l 62 143 q 61 125 61 132 l 61 86 q 110 70 74 71 q 165 73 146 70 q 160 58 161 65 l 120 58 q 94 60 104 58 q 75 64 83 61 q 62 72 68 66 q 47 70 56 77 q 35 58 39 62 q 25 69 31 62 m 149 174 q 115 175 138 175 q 79 174 92 175 l 79 186 q 114 185 90 185 q 149 186 138 185 l 149 174 m 54 162 q 35 185 46 174 l 43 193 q 63 169 60 175 l 54 162 m 252 163 q 236 146 240 149 l 274 146 q 273 130 273 139 l 273 71 q 271 63 274 66 q 258 59 267 60 q 252 71 257 65 q 263 74 263 71 l 263 90 l 246 90 l 246 60 l 235 60 q 236 81 236 71 l 236 124 q 235 145 236 135 l 232 142 q 221 149 227 147 q 248 174 237 160 q 266 203 258 188 q 279 199 273 200 l 277 195 q 302 171 289 180 q 326 159 315 162 q 316 148 320 154 q 293 163 302 155 l 293 156 l 252 156 l 252 163 m 228 94 q 216 90 222 92 q 216 58 216 71 l 205 58 q 205 87 205 71 q 185 81 191 84 q 180 94 183 87 q 205 98 189 95 l 205 122 q 183 117 191 121 l 179 128 q 188 143 184 131 q 195 168 193 156 q 182 167 189 168 l 182 178 q 197 177 190 177 q 200 200 199 189 q 214 197 208 198 q 208 177 211 193 q 230 178 220 177 l 230 167 q 206 168 219 168 q 194 130 200 144 l 205 132 q 205 150 205 140 l 216 150 q 216 133 216 144 l 226 134 l 226 124 l 216 123 l 216 101 l 228 104 l 228 94 m 315 145 q 315 126 315 136 l 315 71 q 312 62 315 64 q 296 57 309 60 q 290 69 295 62 q 304 73 303 68 l 304 125 q 303 145 304 135 l 315 145 m 296 140 q 295 123 295 132 l 295 96 q 296 77 295 84 l 283 77 q 283 95 283 85 l 283 123 q 283 140 283 131 l 296 140 m 290 165 q 271 188 283 172 q 254 165 261 174 l 290 165 m 263 123 l 263 136 l 246 136 l 246 123 l 263 123 m 263 100 l 263 113 l 246 113 l 246 100 l 263 100 m 18 642 l 18 23 l 637 23 l 637 642 l 18 642 z "},"Z":{"ha":762,"x_min":-4,"x_max":663,"o":"m 1 667 l 658 667 q 663 662 663 666 l 663 5 q 658 0 663 0 l 1 0 q -4 5 -4 0 l -4 662 q 1 667 -3 667 m 18 642 l 18 23 l 637 23 l 637 642 l 18 642 m 366 600 q 477 569 420 600 l 483 559 l 483 546 q 456 517 456 523 q 458 508 456 512 q 456 488 456 496 l 456 477 q 474 436 456 446 q 483 427 477 436 l 483 416 q 460 396 483 412 q 456 378 456 387 l 456 304 q 483 273 456 295 l 483 259 q 414 227 457 227 q 330 216 414 221 q 184 245 246 216 l 176 256 l 176 268 q 200 295 176 281 l 200 391 l 176 414 l 176 429 q 200 456 200 452 l 200 517 q 176 542 200 528 l 176 555 q 286 600 176 585 l 366 600 m 212 553 q 342 535 212 535 q 450 553 450 536 q 385 566 425 566 l 281 566 q 212 553 233 566 m 263 420 l 263 412 q 281 369 263 394 q 311 311 291 311 l 335 311 q 371 373 371 317 q 385 398 385 388 l 385 429 q 323 479 374 479 q 270 448 294 479 l 263 420 m 299 448 q 319 425 314 448 q 297 403 314 403 q 279 422 279 408 l 279 432 q 299 448 288 448 m 351 448 q 373 432 366 448 l 373 422 q 351 403 373 406 q 330 427 336 403 q 351 448 337 448 m 326 387 q 337 367 337 378 l 337 364 q 330 357 337 361 l 323 357 q 311 362 317 357 q 326 387 319 387 m 294 373 l 299 373 q 313 347 304 373 l 335 347 q 342 355 338 347 q 340 362 340 359 q 349 373 344 372 l 353 373 q 357 369 357 372 q 340 338 352 338 q 328 333 340 333 l 321 333 q 294 373 294 333 m 149 190 q 169 191 157 190 l 169 179 q 149 180 159 180 l 138 180 q 130 153 132 161 l 130 81 q 131 59 130 68 l 118 59 q 119 81 119 68 l 119 128 q 88 87 106 104 q 78 95 85 91 q 94 110 86 101 q 108 132 101 119 q 119 155 115 144 q 125 180 122 165 l 108 180 q 88 179 98 180 l 88 191 q 108 190 98 190 l 149 190 m 70 190 q 83 191 76 190 l 83 180 q 70 180 76 180 l 66 180 l 66 151 q 84 152 74 151 l 84 141 q 66 142 73 142 l 66 108 q 83 115 71 109 q 84 104 83 111 q 57 94 66 97 q 37 86 48 91 q 31 99 35 92 q 55 104 35 99 l 55 142 q 36 141 45 142 l 36 152 q 55 151 45 151 l 55 180 l 50 180 q 34 180 42 180 l 34 191 q 49 190 42 190 l 70 190 m 144 149 q 172 108 163 123 q 161 101 167 104 q 148 124 153 117 q 135 141 142 132 q 144 149 140 144 m 302 73 q 308 77 307 73 q 311 86 309 81 q 323 81 316 81 q 313 63 318 64 q 304 62 308 62 l 287 62 q 274 76 273 62 l 274 100 l 262 100 q 249 75 260 84 q 218 60 237 66 q 212 72 216 66 q 241 83 233 75 q 252 100 250 90 l 233 100 q 233 122 233 112 q 233 144 233 133 l 307 144 q 307 123 307 135 q 307 100 307 112 l 286 100 l 286 81 q 292 73 285 72 l 302 73 m 255 178 q 262 165 258 173 q 252 161 257 163 l 277 161 q 282 179 280 167 l 251 179 q 229 178 237 179 l 229 189 q 251 188 237 188 l 267 188 q 263 200 266 195 q 277 203 268 201 q 279 188 278 195 l 292 188 q 313 189 303 188 l 313 178 q 293 179 303 179 l 283 179 q 296 174 289 176 q 288 161 292 168 l 301 161 q 319 161 311 161 l 319 151 q 301 151 311 151 l 247 151 q 227 151 236 151 l 227 161 q 246 161 236 161 l 252 161 q 245 172 249 168 q 255 178 250 175 m 227 101 q 205 93 216 97 q 187 84 193 88 q 182 97 184 92 q 191 99 187 98 q 199 101 195 100 l 199 151 q 184 151 193 151 l 184 161 q 199 161 193 161 l 199 182 q 198 196 199 188 l 210 196 q 209 182 209 187 l 209 161 q 222 161 214 161 l 222 151 q 209 151 214 151 l 209 105 q 225 111 218 108 q 227 101 226 106 m 296 126 l 296 136 l 245 136 l 245 126 l 296 126 m 296 108 l 296 117 l 245 117 l 245 108 l 296 108 m 445 152 q 467 153 456 152 l 467 141 q 445 142 456 142 l 407 142 l 403 120 l 457 120 q 454 92 455 107 q 451 71 453 77 q 443 63 450 66 q 420 59 436 61 q 414 73 418 66 q 435 74 431 73 q 440 82 439 76 l 443 110 l 387 110 q 394 142 390 117 q 366 141 378 142 l 366 153 q 387 152 378 152 l 445 152 m 434 187 q 456 188 445 187 l 456 176 q 434 177 444 177 l 401 177 q 379 176 389 177 l 379 188 q 400 187 390 187 l 434 187 m 364 113 q 355 85 359 99 q 349 62 351 71 q 334 71 341 67 q 344 94 339 80 q 352 120 349 107 q 364 113 357 116 m 347 195 q 369 176 359 187 q 361 166 363 172 q 339 186 351 177 q 347 195 344 191 m 338 158 q 360 140 350 149 q 351 130 354 136 q 330 148 343 139 q 338 158 335 153 m 602 63 q 564 80 576 71 q 545 101 552 90 q 545 60 545 66 l 533 60 q 534 100 534 67 q 510 77 524 87 q 477 60 496 68 q 467 71 475 66 q 502 86 488 77 q 522 103 516 95 l 492 103 q 472 102 484 103 l 472 113 q 492 113 484 113 l 534 113 q 533 125 534 117 l 545 125 q 545 113 545 118 l 589 113 q 606 113 597 113 l 606 102 q 589 103 597 103 l 557 103 q 582 83 566 90 q 610 76 597 77 q 602 63 602 68 m 506 129 q 532 146 524 136 q 544 170 541 156 q 524 169 534 170 l 524 180 q 544 179 535 179 q 544 199 545 191 q 558 197 551 197 q 555 179 556 194 l 585 179 q 584 165 584 173 l 582 142 q 586 136 583 136 l 593 136 q 596 138 595 136 q 598 151 597 141 q 610 146 603 146 q 604 128 608 130 q 591 126 599 126 q 577 127 583 126 q 571 138 570 129 l 573 170 l 555 170 q 546 144 553 155 q 517 120 538 132 q 506 129 514 124 m 514 144 q 483 119 492 126 q 475 129 479 125 q 510 155 489 136 q 514 144 511 150 m 479 173 q 505 160 495 165 q 498 150 500 155 q 473 163 492 155 q 479 173 477 168 m 507 173 q 484 188 498 180 q 490 196 487 191 q 514 182 505 189 q 507 173 509 177 z "},"a":{"ha":625,"x_min":-4,"x_max":663,"o":"m 1 667 l 658 667 q 663 662 663 666 l 663 5 q 658 0 663 0 l 1 0 q -4 5 -4 0 l -4 662 q 1 667 -3 667 m 18 642 l 18 23 l 637 23 l 637 642 l 18 642 m 333 536 l 337 536 q 367 453 349 518 q 395 389 386 401 q 541 384 446 384 l 549 384 q 553 380 553 383 q 431 288 460 305 l 425 279 l 425 275 q 470 129 446 224 l 470 127 l 464 127 q 393 176 464 128 l 339 214 q 337 217 339 217 l 335 217 q 277 176 320 204 l 204 125 q 199 133 199 130 q 221 204 212 170 q 245 281 245 276 q 122 374 126 374 l 118 380 q 122 384 119 384 l 125 384 q 283 393 283 384 q 313 483 287 418 l 328 530 q 333 536 328 536 z "},"b":{"ha":675,"x_min":-4,"x_max":663,"o":"m 1 667 l 658 667 q 663 662 663 666 l 663 5 q 658 0 663 0 l 1 0 q -4 5 -4 0 l -4 662 q 1 667 -3 667 m 18 642 l 18 23 l 637 23 l 637 642 l 18 642 m 348 564 l 378 493 l 549 493 q 556 485 552 493 l 556 429 q 551 424 556 424 l 485 424 q 416 290 463 355 q 389 256 406 272 l 389 246 q 467 208 463 208 q 549 180 467 203 q 559 175 559 180 l 559 170 l 513 115 q 505 106 513 111 l 500 106 l 422 140 q 330 195 379 161 l 325 195 q 165 112 244 137 q 147 104 159 104 l 144 104 q 99 173 99 162 q 188 205 184 205 l 267 249 l 267 254 q 198 366 220 314 q 178 422 189 382 l 173 424 l 109 424 q 102 432 106 424 l 102 485 q 122 493 103 493 l 292 493 l 292 495 q 277 549 292 510 q 348 564 288 553 m 256 422 q 313 317 262 383 q 325 304 323 304 l 330 304 q 368 353 345 317 q 384 381 372 353 q 401 422 386 381 l 396 424 l 262 424 l 256 422 z "},"c":{"ha":614,"x_min":-4,"x_max":663,"o":"m 1 667 l 658 667 q 663 662 663 666 l 663 5 q 658 0 663 0 l 1 0 q -4 5 -4 0 l -4 662 q 1 667 -3 667 m 18 642 l 18 23 l 637 23 l 637 642 l 18 642 m 179 562 q 198 540 198 556 q 174 496 198 528 q 165 456 165 475 q 198 382 165 418 l 198 369 q 179 355 194 355 l 174 355 q 125 437 128 399 l 125 483 q 179 562 148 562 m 502 562 l 513 562 q 564 450 564 522 q 518 355 564 402 l 510 355 q 488 377 488 358 q 507 410 488 389 q 521 464 521 431 q 491 532 521 496 l 488 545 q 502 562 492 557 m 236 524 l 239 524 q 255 502 255 517 l 255 496 q 239 456 239 473 q 255 412 239 446 l 255 407 q 236 391 248 391 q 195 467 195 410 q 236 524 208 524 m 453 524 q 491 456 491 509 q 456 391 491 411 l 453 391 q 431 418 431 397 q 448 450 448 440 l 448 469 q 431 507 431 505 q 453 524 437 524 m 393 457 q 378 421 393 436 q 342 407 363 407 q 307 421 321 407 q 292 457 292 436 q 307 493 292 478 q 342 508 321 508 q 378 493 363 508 q 393 457 393 478 m 374 384 q 450 194 385 382 l 467 156 l 476 135 l 472 134 l 439 134 q 412 159 427 153 q 345 186 349 186 l 275 162 q 250 134 259 144 l 214 134 q 209 140 209 134 l 304 378 l 309 381 q 342 376 328 376 q 374 384 365 376 m 317 292 q 342 270 317 285 q 369 286 369 283 l 369 297 q 361 305 369 301 l 326 305 q 317 292 321 305 m 277 195 l 343 210 l 410 193 l 344 240 l 277 195 m 344 355 l 330 327 l 357 327 l 344 355 m 308 267 l 299 249 l 321 258 l 308 267 m 367 258 l 389 249 l 380 267 l 367 258 z "},"d":{"ha":705,"x_min":-4,"x_max":663,"o":"m 1 667 l 658 667 q 663 662 663 666 l 663 5 q 658 0 663 0 l 1 0 q -4 5 -4 0 l -4 662 q 1 667 -3 667 m 18 642 l 18 23 l 637 23 l 637 642 l 18 642 m 288 566 q 332 535 309 566 l 332 530 q 316 496 323 522 q 298 483 298 489 l 298 473 q 334 405 319 473 q 368 382 355 382 q 399 408 371 388 l 381 426 l 381 452 q 394 470 394 467 q 381 480 381 477 l 381 486 q 387 491 382 491 l 389 491 l 397 486 l 405 486 q 410 498 405 498 l 415 498 q 422 491 418 498 l 422 486 l 420 480 q 454 449 454 476 l 454 439 q 428 405 454 412 l 428 403 l 477 348 q 506 332 477 341 l 509 328 l 509 319 q 496 312 509 313 l 459 328 q 451 322 451 325 l 465 275 q 462 216 462 240 l 462 213 l 477 192 q 467 182 477 188 l 454 182 q 431 236 431 182 q 422 260 422 258 l 420 260 q 402 231 417 260 q 387 187 391 231 l 376 187 q 366 216 366 190 q 381 265 366 230 q 366 301 368 265 q 353 335 359 301 q 358 358 358 352 q 309 385 318 374 q 303 379 303 384 l 303 374 q 321 314 303 360 q 329 213 327 304 q 345 192 332 213 q 340 187 345 187 l 314 187 q 285 288 297 187 q 272 298 277 298 q 249 267 262 298 q 218 221 218 233 q 220 192 220 203 l 215 190 q 181 226 198 190 l 181 231 l 218 296 l 218 304 l 212 312 l 212 314 q 218 335 212 317 l 218 340 q 186 356 218 347 q 178 374 178 366 q 199 416 178 416 l 225 457 q 259 486 225 463 l 259 494 q 246 527 253 501 l 246 535 q 288 566 257 566 m 106 163 l 555 163 q 571 127 563 163 l 566 125 l 96 125 q 90 132 90 125 q 106 163 90 145 z "},"e":{"ha":616,"x_min":-4,"x_max":663,"o":"m 1 667 l 658 667 q 663 662 663 666 l 663 5 q 658 0 663 0 l 1 0 q -4 5 -4 0 l -4 662 q 1 667 -3 667 m 18 642 l 18 23 l 637 23 l 637 642 l 18 642 m 253 408 l 253 255 l 405 255 l 405 408 l 253 408 m 326 567 q 491 498 423 567 q 559 332 559 429 q 491 166 559 235 q 326 98 423 98 q 161 166 230 98 q 93 332 93 235 q 161 498 93 429 q 326 567 230 567 z "},"f":{"ha":379,"x_min":-4,"x_max":663,"o":"m 1 667 l 658 667 q 663 662 663 666 l 663 5 q 658 0 663 0 l 1 0 q -4 5 -4 0 l -4 662 q 1 667 -3 667 m 18 642 l 18 23 l 637 23 l 637 642 l 18 642 m 326 456 l 342 456 q 372 426 357 456 q 364 373 371 412 q 340 317 358 341 l 329 317 q 302 372 308 340 q 295 425 295 413 q 326 456 308 456 m 334 547 q 484 485 422 547 q 545 337 545 424 q 484 188 545 250 q 334 127 422 127 q 185 188 247 127 q 123 337 123 250 q 185 485 123 424 q 334 547 247 547 m 334 517 q 206 465 259 517 q 153 338 153 412 q 206 211 153 264 q 334 158 259 158 q 463 211 410 158 q 516 338 516 264 q 463 465 516 412 q 334 517 410 517 m 334 292 q 358 281 348 292 q 368 256 368 271 q 358 230 368 241 q 334 220 348 220 q 309 230 319 220 q 299 256 299 241 q 309 281 299 271 q 334 292 319 292 z "},"g":{"ha":610,"x_min":-4,"x_max":663,"o":"m 1 667 l 658 667 q 663 662 663 666 l 663 5 q 658 0 663 0 l 1 0 q -4 5 -4 0 l -4 662 q 1 667 -3 667 m 18 642 l 18 23 l 637 23 l 637 642 l 18 642 m 254 347 q 262 332 258 339 l 277 332 l 287 349 l 289 349 l 304 332 l 314 332 q 326 349 316 332 l 329 349 l 344 332 l 354 332 q 369 349 366 349 q 384 332 381 332 l 394 332 l 406 349 l 419 328 q 429 312 429 311 q 418 307 422 311 l 416 254 l 429 254 l 429 231 l 418 231 l 417 218 l 394 218 l 394 230 l 376 230 l 376 218 l 354 218 l 354 229 l 341 229 l 341 218 l 317 217 l 317 229 l 298 229 l 298 218 l 280 218 l 280 229 l 260 229 l 260 218 l 241 217 l 241 231 l 229 231 l 229 254 l 241 254 l 241 307 q 234 311 236 307 l 254 347 m 259 307 l 259 294 l 259 256 l 279 256 l 279 299 l 279 307 l 259 307 m 299 307 l 299 289 l 299 256 l 317 256 l 317 302 l 317 306 l 299 307 m 341 302 l 341 256 l 354 256 l 354 294 l 354 306 l 341 306 l 341 302 m 376 302 l 376 256 l 394 256 l 394 294 l 394 307 l 376 306 l 376 302 m 568 163 l 94 162 l 96 168 l 329 568 l 568 163 m 328 500 l 157 195 l 502 197 l 328 500 z "},"h":{"ha":749,"x_min":-4,"x_max":663,"o":"m 1 667 l 658 667 q 663 662 663 666 l 663 5 q 658 0 663 0 l 1 0 q -4 5 -4 0 l -4 662 q 1 667 -3 667 m 18 642 l 18 23 l 637 23 l 637 642 l 18 642 m 292 541 l 369 541 q 374 536 374 540 l 374 488 q 378 484 374 484 l 441 484 q 446 478 446 483 l 446 454 q 454 439 448 439 l 496 439 q 501 433 501 438 l 501 349 q 516 334 501 334 l 518 329 l 518 274 q 506 254 506 264 l 506 227 q 493 222 506 222 l 493 217 l 503 217 q 543 197 543 213 l 543 192 l 538 184 l 509 189 l 469 182 q 441 192 458 187 q 401 182 412 182 l 369 192 q 344 182 359 192 l 332 182 q 296 195 298 195 q 264 180 277 182 l 227 195 q 192 180 203 180 q 159 195 164 195 q 137 182 152 195 l 130 182 q 125 187 125 182 l 125 192 q 162 222 125 208 l 159 239 l 159 267 q 147 274 147 269 l 147 324 q 164 341 147 341 l 164 433 q 170 439 165 439 l 212 439 q 217 444 217 439 l 217 478 q 222 484 218 484 l 281 484 q 287 488 287 484 l 287 536 q 292 541 288 541 m 252 436 l 252 404 q 237 396 249 396 l 207 396 l 207 374 q 212 369 208 369 l 259 369 q 269 389 262 369 l 389 389 q 406 369 406 389 l 458 369 q 461 389 461 382 q 458 396 458 393 l 424 396 q 416 404 420 396 l 416 424 l 414 436 l 252 436 m 294 361 l 294 349 q 289 344 294 344 l 239 344 l 229 329 q 219 326 225 326 l 197 326 q 187 309 197 319 l 187 264 q 202 239 202 264 q 204 229 202 229 q 281 224 218 224 l 424 224 q 466 234 466 224 l 466 259 l 481 269 l 481 302 l 471 326 l 441 326 q 429 344 437 326 l 378 344 q 371 351 375 344 l 371 363 l 307 363 l 294 361 m 159 167 q 199 152 190 152 l 219 164 l 232 164 q 264 152 262 152 q 296 164 267 152 l 302 164 q 329 155 326 155 l 347 155 q 371 164 357 164 l 399 155 l 409 155 l 444 164 q 471 155 465 155 l 473 155 q 509 162 506 162 l 516 162 q 543 142 543 158 q 533 132 541 132 q 506 137 511 137 q 476 130 484 130 l 471 130 q 436 137 446 137 q 406 130 414 130 l 399 130 l 374 137 l 363 137 q 347 130 355 137 l 329 130 q 302 140 323 130 l 264 127 q 224 140 232 140 q 195 127 202 127 q 159 140 161 140 q 137 130 151 140 l 130 130 q 125 134 125 130 l 125 144 q 159 167 133 157 z "},"i":{"ha":349,"x_min":-4,"x_max":663,"o":"m 1 667 l 658 667 q 663 662 663 666 l 663 5 q 658 0 663 0 l 1 0 q -4 5 -4 0 l -4 662 q 1 667 -3 667 m 18 642 l 18 23 l 637 23 l 637 642 l 18 642 m 256 542 l 269 542 q 323 484 273 542 l 354 484 q 361 469 361 481 l 361 467 q 344 454 361 464 l 344 452 q 372 427 358 427 q 404 414 400 427 l 404 409 q 384 399 400 399 q 429 354 416 354 l 474 354 q 545 329 536 354 l 545 326 q 481 309 531 309 l 434 309 q 397 276 414 309 q 387 269 387 275 q 404 251 398 263 l 404 248 q 391 236 404 245 l 366 236 q 341 205 352 226 l 341 203 q 361 196 361 203 l 361 188 q 341 176 355 176 l 321 176 q 261 118 275 118 q 243 133 250 122 q 319 294 287 208 l 319 301 l 311 306 q 203 311 295 306 l 203 313 q 158 266 194 313 l 133 266 q 128 271 128 266 l 128 281 q 148 329 140 320 q 128 389 128 380 l 128 394 q 133 399 129 399 l 140 399 q 188 356 164 399 l 201 349 q 258 354 228 354 l 298 354 q 319 361 317 354 q 261 499 304 418 q 246 522 258 499 l 246 532 q 256 542 246 536 z "},"j":{"ha":346,"x_min":-4,"x_max":663,"o":"m 1 667 l 658 667 q 663 662 663 666 l 663 5 q 658 0 663 0 l 1 0 q -4 5 -4 0 l -4 662 q 1 667 -3 667 m 18 642 l 18 23 l 637 23 l 637 642 l 18 642 m 304 524 q 363 492 336 518 l 388 470 q 427 417 410 442 l 429 417 q 479 444 470 444 l 484 436 l 484 433 q 433 400 464 416 q 479 262 455 365 l 483 238 q 461 202 477 212 q 432 193 446 193 q 396 201 419 193 q 332 256 374 210 q 284 326 303 283 q 274 353 280 340 q 258 402 267 366 q 252 446 254 423 l 249 486 q 304 524 260 526 m 268 471 q 272 439 268 457 q 277 395 272 419 q 301 335 282 371 q 354 369 308 342 q 400 397 354 371 l 413 407 l 410 412 q 374 458 399 425 q 342 488 355 475 q 307 511 326 503 l 288 511 q 268 471 266 500 m 309 318 l 309 315 q 345 267 321 298 q 433 212 393 206 q 461 221 452 210 q 465 253 471 233 q 454 298 459 274 q 436 352 448 321 q 417 388 426 385 q 309 318 414 388 m 250 376 q 270 335 258 376 l 294 289 l 326 250 l 326 248 q 321 243 326 243 l 318 243 q 296 248 309 239 l 318 183 l 318 178 l 313 176 l 306 176 q 287 222 301 176 q 275 245 280 243 l 272 245 l 269 231 l 267 210 l 265 180 q 260 176 265 176 l 250 176 q 245 180 245 176 l 245 188 q 245 208 245 190 l 250 245 l 256 260 q 241 241 250 260 q 205 188 227 225 q 183 176 193 176 l 180 180 l 180 191 q 243 279 217 238 q 245 282 245 279 q 234 330 234 300 q 248 376 234 359 l 250 376 z "},"k":{"ha":696,"x_min":-4,"x_max":663,"o":"m 1 667 l 658 667 q 663 662 663 666 l 663 5 q 658 0 663 0 l 1 0 q -4 5 -4 0 l -4 662 q 1 667 -3 667 m 18 642 l 18 23 l 637 23 l 637 642 l 18 642 m 104 542 l 363 542 q 378 535 378 541 l 378 382 l 380 382 q 416 412 395 382 l 421 412 q 458 382 456 382 l 486 382 q 520 412 500 389 l 523 412 q 571 380 549 380 l 576 382 l 583 382 q 588 378 588 382 q 576 358 588 365 l 562 358 q 520 387 551 358 q 472 358 493 358 q 416 385 461 358 q 378 361 408 372 l 378 322 l 380 310 q 416 339 398 318 q 448 319 423 339 q 469 310 460 310 l 477 310 q 515 336 496 313 q 525 339 519 339 q 566 310 549 310 l 578 310 l 583 312 l 588 305 q 571 288 588 288 l 566 288 q 523 317 545 288 l 520 317 q 472 288 495 288 q 418 317 453 288 q 378 290 412 302 l 378 244 q 382 239 378 239 q 416 269 399 244 l 421 269 q 448 250 439 250 q 474 235 448 243 q 518 269 500 243 l 523 269 q 574 235 553 235 q 586 239 581 239 l 588 235 q 571 213 588 217 q 525 242 548 213 l 520 244 q 477 216 497 219 l 472 216 q 421 242 454 216 l 416 242 q 378 218 412 231 l 378 167 l 385 167 q 418 196 397 172 l 421 196 q 472 165 454 165 q 520 196 493 165 l 523 196 q 571 165 550 165 l 574 165 l 586 167 q 588 160 588 162 q 571 143 588 143 l 564 143 q 523 172 547 143 q 472 143 489 143 q 418 172 452 143 q 368 143 396 148 l 94 143 q 90 148 90 143 l 90 535 q 104 542 92 542 m 133 479 l 133 477 q 140 469 133 473 l 329 469 q 334 474 334 469 l 334 481 q 329 486 334 486 l 140 486 q 133 479 137 486 m 133 414 l 133 409 q 138 404 134 404 l 329 404 q 334 409 334 404 l 334 414 q 329 418 334 418 l 138 418 q 133 414 133 418 m 133 351 l 133 344 q 148 336 136 336 l 332 336 l 334 349 q 329 353 334 353 l 145 353 l 133 351 m 133 281 l 133 278 q 138 273 134 273 l 329 273 q 334 278 334 273 l 334 283 q 329 288 334 288 l 140 288 q 133 281 137 288 z "},"l":{"ha":354,"x_min":-4,"x_max":663,"o":"m 1 667 l 658 667 q 663 662 663 666 l 663 5 q 658 0 663 0 l 1 0 q -4 5 -4 0 l -4 662 q 1 667 -3 667 m 18 642 l 18 23 l 637 23 l 637 642 l 18 642 m 544 544 q 551 527 551 535 q 549 519 549 522 q 558 513 558 516 q 546 505 546 507 q 549 498 549 500 l 563 498 q 589 402 568 498 q 594 374 594 381 l 587 374 q 549 407 549 401 l 539 407 q 496 371 508 386 l 494 371 l 486 376 l 515 496 l 519 498 l 536 498 l 536 508 l 522 508 q 433 479 503 493 q 410 469 433 473 l 410 460 l 429 460 q 448 424 448 460 q 489 258 465 364 l 484 256 l 479 256 l 405 319 l 402 319 q 364 288 380 302 q 321 254 361 288 q 314 261 317 254 q 345 397 330 318 q 361 458 349 401 l 374 460 l 395 460 l 395 467 q 391 472 395 472 l 381 472 q 278 441 313 447 q 233 424 268 441 q 213 419 213 424 l 213 417 l 216 405 l 254 405 q 283 297 264 393 l 326 127 q 321 122 326 122 l 311 122 q 203 211 239 185 q 134 156 144 161 q 86 120 97 120 l 84 125 q 108 233 84 136 q 151 405 134 355 l 192 405 q 197 410 197 405 l 197 424 l 168 424 q 161 431 164 424 l 161 436 q 168 443 161 439 l 197 443 l 197 458 q 170 465 197 463 l 168 469 q 197 479 168 477 l 197 503 q 201 508 197 508 l 208 508 q 216 479 213 508 q 256 477 243 477 q 386 513 368 498 q 397 532 397 513 l 405 532 q 410 527 410 531 l 410 515 q 429 513 416 515 q 515 527 468 513 q 544 544 536 535 m 429 505 q 410 496 429 500 l 410 486 l 436 486 q 536 519 452 486 l 536 525 l 525 525 q 429 505 480 505 m 213 443 l 252 443 q 376 486 345 465 q 395 491 395 486 l 395 494 q 391 498 395 498 l 383 498 q 237 467 301 467 q 213 460 237 463 l 213 443 m 532 491 l 532 489 q 541 481 532 481 q 549 484 546 484 l 549 491 l 532 491 m 517 474 l 517 463 q 532 469 528 469 l 532 474 q 525 481 532 477 q 517 474 521 481 m 549 474 l 549 467 q 563 460 554 467 l 566 460 q 555 481 561 481 q 549 474 552 481 m 515 443 q 539 427 525 434 l 544 427 q 566 443 562 443 q 549 463 566 448 l 549 465 l 536 465 q 515 443 515 454 m 378 443 q 400 427 390 433 q 422 446 412 432 l 417 448 l 383 448 q 378 443 378 447 m 371 436 q 359 397 359 402 q 361 395 361 397 q 386 417 367 395 l 386 422 q 371 436 386 425 m 549 417 q 582 393 572 393 l 582 395 q 570 433 582 411 q 549 417 549 422 m 410 417 l 441 393 l 441 395 q 431 431 437 431 l 427 431 q 410 417 410 421 m 498 395 q 500 388 500 391 q 532 417 508 391 l 532 419 q 515 431 532 422 l 513 431 q 498 395 508 431 m 400 412 q 357 371 357 376 q 400 340 361 371 l 405 340 q 441 374 441 370 l 441 378 q 400 412 437 378 m 170 391 l 170 388 q 203 361 195 361 q 237 388 237 385 l 237 391 l 170 391 m 158 378 q 146 326 158 365 l 146 314 l 151 314 q 187 350 151 317 q 161 378 187 353 l 158 378 m 216 350 l 216 347 q 256 314 216 345 l 261 314 q 244 371 256 349 q 216 350 218 355 m 347 357 q 333 283 333 287 q 388 333 388 315 l 357 357 l 347 357 m 441 357 q 417 330 441 353 l 417 328 q 469 283 438 302 l 469 288 l 453 357 l 441 357 m 199 338 l 141 288 q 206 237 166 262 q 261 290 261 283 q 199 338 209 338 m 132 269 l 103 153 l 105 153 q 189 222 119 157 l 189 225 q 132 269 159 253 m 222 220 l 294 158 l 302 158 l 302 163 q 273 266 292 191 l 269 266 q 222 220 223 235 z "},"m":{"ha":1064,"x_min":-4,"x_max":663,"o":"m 1 667 l 658 667 q 663 662 663 666 l 663 5 q 658 0 663 0 l 1 0 q -4 5 -4 0 l -4 662 q 1 667 -3 667 m 18 642 l 18 23 l 637 23 l 637 642 l 18 642 m 216 549 q 241 511 221 549 q 415 412 247 511 q 462 382 448 397 q 436 342 456 359 l 420 353 l 420 317 l 412 317 l 412 281 q 471 258 412 275 l 470 237 l 427 236 l 427 248 l 412 248 l 412 235 l 420 223 q 419 198 423 202 q 408 194 415 195 q 395 197 401 193 q 391 224 388 201 l 398 236 l 399 248 l 388 247 l 387 235 l 375 235 l 345 235 l 345 268 q 353 273 343 266 q 382 283 363 280 l 399 281 l 399 317 l 391 317 l 389 370 q 321 410 361 385 l 317 410 l 309 406 q 298 408 307 408 l 335 237 q 342 225 336 225 l 375 225 q 382 206 380 225 q 408 185 386 183 q 431 211 427 185 q 436 225 431 225 l 504 225 q 509 220 509 224 q 497 182 516 203 l 504 183 l 574 183 q 579 178 579 182 l 579 148 q 574 143 579 143 l 92 143 q 84 150 88 143 l 84 157 q 92 164 84 161 l 119 164 q 124 169 124 164 l 124 410 q 153 492 124 460 q 201 546 182 546 l 216 549 m 227 504 l 216 490 q 288 448 271 451 q 293 464 293 457 l 227 504 m 138 427 l 138 169 q 143 164 139 164 l 199 164 q 214 175 204 164 q 239 283 224 186 q 265 420 245 290 q 253 450 253 445 q 209 476 215 470 l 204 476 q 148 427 153 427 l 138 427 m 309 454 q 302 438 302 446 q 406 382 391 382 l 410 389 l 410 394 q 309 454 391 409 m 267 330 l 272 328 l 291 328 l 295 330 q 283 382 283 374 q 267 330 277 382 m 256 279 l 260 277 l 304 277 l 304 279 q 288 312 304 312 l 267 312 q 256 279 262 312 m 243 222 l 256 222 l 314 222 q 319 230 319 222 q 307 258 310 258 l 256 258 q 243 222 248 258 m 418 370 l 431 363 l 441 380 l 429 387 l 418 370 z "},"n":{"ha":751,"x_min":-4,"x_max":663,"o":"m 1 667 l 658 667 q 663 662 663 666 l 663 5 q 658 0 663 0 l 1 0 q -4 5 -4 0 l -4 662 q 1 667 -3 667 m 18 642 l 18 23 l 637 23 l 637 642 l 18 642 m 330 612 l 340 612 q 496 505 461 533 l 496 473 q 540 231 540 237 l 566 231 q 570 226 570 230 l 570 219 q 566 214 570 214 l 102 214 q 98 219 98 214 l 98 226 q 125 233 98 231 q 170 468 154 363 l 170 505 q 330 612 170 507 m 338 479 q 342 475 338 475 l 405 475 q 410 481 410 475 q 379 514 404 514 l 368 514 q 345 496 353 508 q 338 479 342 486 m 223 470 l 221 458 l 221 433 q 228 428 221 428 q 289 445 289 439 l 289 452 q 223 470 289 456 m 342 461 q 366 424 342 435 q 375 421 371 424 q 408 449 408 429 l 408 461 q 403 465 408 465 l 347 465 q 342 461 342 465 m 300 456 l 300 440 l 317 440 l 317 454 l 314 458 q 300 456 311 456 m 244 416 l 244 335 q 260 317 257 317 l 270 317 q 317 359 307 349 l 319 359 q 323 354 323 357 l 323 270 q 328 265 324 265 l 437 265 q 442 270 442 265 l 442 377 q 424 403 442 403 l 321 403 q 279 368 312 403 l 273 368 l 273 419 q 258 428 273 422 q 244 416 249 425 m 165 372 q 142 237 151 272 q 144 231 144 233 l 165 231 q 170 235 170 231 l 170 368 q 165 372 170 372 m 498 368 l 496 356 l 496 237 q 503 231 496 234 l 522 231 q 526 235 526 231 l 500 368 l 498 368 m 151 162 q 147 140 148 155 q 143 109 146 125 l 155 109 q 155 92 155 102 l 155 72 q 158 62 155 62 q 166 61 161 61 q 172 66 170 62 q 174 81 174 70 q 189 76 180 77 q 182 58 185 62 q 169 52 179 54 l 157 52 q 143 64 143 52 l 143 107 q 126 74 137 87 q 95 50 116 61 q 84 58 92 54 q 114 76 104 66 q 129 100 123 85 q 135 132 134 115 q 135 164 136 148 q 151 162 143 163 m 81 182 q 98 182 87 182 l 98 170 q 76 171 87 171 l 76 136 q 95 137 85 136 l 95 125 q 76 126 85 126 l 76 88 q 98 94 87 91 q 98 83 98 87 q 64 73 77 77 q 45 66 52 68 q 41 81 44 75 q 65 85 51 82 l 65 126 q 45 125 55 126 l 45 137 q 65 136 55 136 l 65 171 q 45 170 54 171 l 45 182 q 60 182 52 182 l 81 182 m 178 188 q 177 168 177 178 l 177 126 q 178 106 177 114 l 165 106 l 165 178 l 119 178 l 119 105 l 106 105 q 107 129 107 115 l 107 163 q 106 188 107 176 l 178 188 m 322 189 l 322 179 q 303 168 313 177 q 275 142 293 159 l 332 142 q 330 121 331 137 l 328 75 q 321 56 327 60 q 300 51 315 52 q 295 66 299 58 q 312 66 308 64 q 316 75 315 68 l 318 131 l 307 131 q 299 100 303 113 q 289 78 295 87 q 275 63 283 69 q 257 50 268 56 q 248 60 254 56 q 267 73 258 66 q 282 91 276 81 q 290 112 288 100 q 294 131 293 123 l 281 131 q 276 112 280 121 q 264 93 272 102 q 245 75 257 83 q 236 84 243 79 q 259 106 251 92 q 269 131 268 120 q 260 130 262 130 q 252 127 257 129 q 248 140 250 135 q 273 154 258 141 q 298 178 287 167 l 274 178 q 249 178 260 178 l 249 189 q 273 189 260 189 l 322 189 m 212 174 q 212 191 212 180 l 224 191 q 224 174 224 180 l 224 151 q 243 151 233 151 l 243 140 q 224 140 232 140 l 224 95 q 244 104 231 98 q 245 92 244 98 q 219 82 235 87 q 195 70 204 76 q 187 83 192 76 q 212 91 198 85 l 212 140 q 190 140 198 140 l 190 151 q 212 151 201 151 l 212 174 m 464 121 q 463 99 463 114 l 463 73 q 464 53 463 60 l 452 53 l 452 62 l 406 62 l 406 50 l 394 50 q 394 73 394 58 l 394 99 q 394 121 394 114 l 464 121 m 336 66 q 353 67 351 65 q 356 73 356 68 l 356 107 q 347 104 350 106 q 336 98 344 102 q 330 111 334 104 q 345 115 340 113 q 356 119 349 117 l 356 148 l 351 148 q 335 147 343 148 l 335 159 q 351 158 342 158 l 356 158 l 356 176 q 355 193 356 185 l 368 193 q 368 176 368 186 l 368 158 q 385 159 376 158 l 385 147 q 368 148 375 148 l 368 123 q 374 126 370 124 l 383 130 q 383 118 382 123 q 375 115 379 117 q 368 112 372 114 l 368 68 q 363 57 367 61 q 341 53 359 54 q 336 66 340 60 m 407 191 q 406 168 406 182 q 436 176 427 172 q 454 183 446 179 q 463 172 456 177 q 454 170 460 171 q 441 166 449 168 q 425 162 434 165 q 406 159 415 160 l 406 144 q 416 138 406 138 l 447 138 q 458 142 456 138 q 463 155 460 146 q 475 148 467 151 q 466 131 469 134 q 455 129 463 129 l 408 129 q 397 133 400 129 q 394 140 394 136 l 394 168 q 394 191 394 184 l 407 191 m 452 73 l 452 87 l 406 87 l 406 73 l 452 73 m 452 97 l 452 111 l 406 111 l 406 97 l 452 97 m 545 151 q 554 170 553 164 q 567 166 564 167 q 557 151 559 154 l 583 151 q 605 151 599 151 l 605 140 q 583 141 599 141 l 554 141 l 538 117 l 561 117 q 560 136 561 127 l 572 136 q 572 117 572 127 l 585 117 q 602 118 599 117 l 602 106 q 586 107 600 107 l 572 107 l 572 89 l 592 89 q 613 90 603 89 l 613 79 q 593 79 604 79 l 572 79 l 572 71 q 572 50 572 58 l 560 50 q 561 71 561 61 l 561 79 l 539 79 q 516 79 527 79 l 516 90 q 538 89 526 89 l 561 89 l 561 107 l 539 107 q 527 106 536 107 q 523 117 525 112 q 541 141 529 120 q 523 140 532 141 l 523 151 q 545 151 534 151 m 491 161 l 491 180 q 490 193 491 186 l 503 193 q 502 180 502 183 l 502 161 q 518 161 509 161 l 518 151 q 502 152 509 152 l 502 125 q 517 132 505 126 q 521 121 518 129 q 502 114 515 120 l 502 68 q 498 57 502 61 q 477 50 494 54 q 473 63 475 60 q 489 65 488 63 q 491 69 490 67 l 491 109 q 473 100 478 103 q 467 113 470 108 q 491 121 473 114 l 491 151 l 486 151 q 471 151 480 151 l 471 161 q 486 161 479 161 l 491 161 m 607 184 q 607 172 607 178 q 607 159 607 166 l 595 159 l 595 174 l 532 174 l 532 159 l 521 159 q 522 172 522 165 q 521 184 522 178 l 607 184 z "},"o":{"ha":685,"x_min":-4,"x_max":663,"o":"m 1 667 l 658 667 q 663 662 663 666 l 663 5 q 658 0 663 0 l 1 0 q -4 5 -4 0 l -4 662 q 1 667 -3 667 m 18 642 l 18 23 l 637 23 l 637 642 l 18 642 m 325 618 l 328 618 q 498 510 336 618 q 541 479 537 486 q 536 475 541 475 l 529 475 l 498 496 q 494 491 494 495 l 494 418 q 498 381 498 385 l 498 253 q 491 245 498 250 l 176 245 q 168 253 172 245 l 168 494 q 163 498 168 498 l 129 475 l 124 475 q 119 479 119 475 q 297 599 128 490 q 325 618 297 601 m 290 458 l 290 330 l 292 318 l 295 318 q 299 323 299 318 l 299 458 q 295 463 299 463 q 290 458 290 463 m 309 412 l 309 410 q 313 405 309 405 l 334 431 l 381 431 l 405 433 l 405 437 q 400 442 405 442 l 346 442 q 342 449 342 442 q 346 460 346 456 l 342 463 l 339 463 q 309 412 337 463 m 264 447 l 264 337 q 269 332 265 332 q 274 337 274 332 l 274 447 l 264 447 m 346 423 q 370 402 358 402 l 372 407 q 353 426 372 410 l 351 426 l 346 423 m 318 389 l 318 330 l 321 318 l 323 318 l 334 330 l 379 330 q 391 318 380 330 l 395 318 l 395 393 l 323 393 q 318 389 318 392 m 334 386 l 346 386 q 353 379 349 386 l 353 342 q 346 334 353 338 l 334 334 q 330 339 330 334 l 330 368 q 328 376 330 372 q 334 386 331 386 m 368 386 l 381 386 q 386 381 386 385 l 386 339 q 381 334 386 334 l 368 334 q 363 339 363 334 l 363 381 q 368 386 363 386 m 170 120 q 170 87 170 104 q 170 56 170 69 l 157 56 l 157 66 l 105 66 l 105 54 l 93 54 q 94 87 94 68 q 93 120 94 106 l 170 120 m 67 168 q 65 189 67 176 l 80 189 q 79 167 79 176 l 79 72 q 79 52 79 66 l 66 52 q 67 72 67 62 l 67 168 m 128 183 q 120 174 123 179 q 114 164 117 168 l 150 164 q 171 165 159 164 l 171 153 q 151 155 161 155 l 110 155 q 92 130 99 138 q 81 136 85 135 q 101 164 94 149 q 112 189 109 179 q 128 183 120 185 m 52 170 q 51 150 51 159 l 51 94 q 52 69 51 84 l 39 69 q 40 94 40 84 l 40 149 q 39 170 40 155 l 52 170 m 137 111 l 137 76 l 157 76 l 157 111 l 137 111 m 125 76 l 125 111 l 105 111 l 105 76 l 125 76 m 124 154 q 137 142 128 149 q 149 130 145 135 q 140 121 142 124 q 116 146 130 134 q 124 154 120 150 m 239 176 q 239 124 239 155 q 239 77 239 94 l 227 77 l 227 87 l 203 87 l 203 68 l 191 68 q 191 123 191 96 q 191 176 191 151 l 239 176 m 296 158 q 295 191 296 176 l 308 191 q 307 158 307 176 q 327 159 317 158 l 327 147 q 307 148 317 148 l 307 68 q 300 57 307 59 q 282 54 293 54 q 275 67 282 60 q 291 66 287 66 q 296 74 296 67 l 296 148 q 245 147 266 148 l 245 159 q 296 158 264 158 m 227 98 l 227 127 l 203 127 l 203 98 l 227 98 m 227 138 l 227 165 l 203 165 l 203 138 l 227 138 m 264 132 q 279 105 272 119 q 267 100 273 103 q 253 126 262 114 q 264 132 258 129 m 444 178 q 444 150 444 161 l 444 73 q 447 64 444 64 q 453 63 451 63 q 456 68 456 64 q 457 79 457 72 q 470 75 463 77 q 465 58 467 62 q 457 54 463 54 l 445 54 q 435 57 438 54 q 432 71 431 60 l 432 168 l 409 168 q 408 116 409 134 q 403 82 408 97 q 385 51 399 66 q 375 60 382 54 q 388 77 383 67 q 395 96 393 86 q 397 118 397 106 q 398 146 398 129 q 397 178 398 164 l 444 178 m 374 130 q 389 109 384 116 q 378 102 385 106 q 366 122 375 109 l 366 79 q 366 52 366 67 l 353 52 q 354 79 354 67 l 354 117 q 347 100 351 108 q 337 82 344 92 q 328 92 332 87 q 340 112 332 97 q 352 146 348 127 l 349 146 q 332 145 340 146 l 332 157 q 348 156 340 156 l 354 156 l 354 168 q 353 186 354 178 l 367 186 q 366 168 366 180 l 366 156 l 372 156 q 387 157 379 156 l 387 146 q 366 146 374 146 l 366 123 q 374 130 370 126 m 519 104 q 509 124 514 115 l 509 79 q 509 54 509 66 l 496 54 q 497 79 497 67 l 497 121 q 477 89 491 106 q 469 98 474 94 q 487 125 480 111 q 495 149 494 140 q 477 148 486 149 l 477 159 q 497 158 486 158 l 497 172 q 496 188 497 180 l 509 188 q 509 172 509 182 l 509 158 q 525 159 516 158 l 525 148 q 509 149 516 149 l 509 125 q 518 131 513 127 q 530 110 524 120 q 519 104 524 107 m 560 185 q 555 175 557 181 q 549 163 552 170 l 608 163 q 608 141 608 155 q 605 73 608 105 q 595 57 603 60 q 572 53 588 54 q 568 66 571 59 q 586 67 580 66 q 594 82 593 68 q 596 153 597 116 l 545 153 q 534 131 540 141 q 524 136 529 134 q 538 164 532 149 q 547 190 545 179 q 560 185 554 186 m 571 90 q 552 88 564 90 q 532 82 540 86 q 526 96 530 90 q 535 105 530 97 q 543 121 540 113 q 549 140 545 129 q 562 134 555 137 q 552 117 559 130 q 541 97 545 103 q 569 99 554 98 q 564 117 567 107 l 575 121 q 582 101 578 111 q 586 84 585 92 q 574 81 579 83 q 571 90 572 86 z "},"p":{"ha":685,"x_min":-4,"x_max":663,"o":"m 1 667 l 658 667 q 663 662 663 666 l 663 5 q 658 0 663 0 l 1 0 q -4 5 -4 0 l -4 662 q 1 667 -3 667 m 18 642 l 18 23 l 637 23 l 637 642 l 18 642 m 334 610 q 391 458 372 488 l 533 458 l 533 456 l 418 361 l 418 359 q 452 231 445 262 l 447 228 l 445 228 q 330 296 343 292 q 271 260 324 296 q 208 221 211 221 l 208 228 q 244 363 244 357 q 129 456 153 434 l 129 458 l 264 458 q 280 479 277 458 q 328 610 318 580 l 334 610 m 330 583 q 307 513 323 570 q 284 452 304 510 l 280 449 l 160 449 q 156 445 156 448 q 255 366 248 376 l 255 361 l 224 248 l 224 244 l 226 244 l 330 311 l 332 311 l 431 248 l 435 248 l 435 251 q 406 368 406 357 q 506 447 448 398 l 501 449 l 379 449 q 341 557 372 449 l 330 583 m 372 357 l 379 348 l 379 343 q 361 334 379 338 l 341 336 q 304 332 312 332 q 294 345 294 336 l 298 348 l 352 348 q 368 356 364 348 l 372 358 l 372 357 m 368 357 q 350 393 360 357 l 350 411 q 302 422 302 416 l 302 425 q 307 429 303 429 l 352 429 l 363 438 q 375 427 366 438 l 375 420 q 366 395 366 411 q 379 370 366 392 l 379 368 l 372 359 l 372 358 l 368 356 l 368 357 m 311 406 l 316 406 q 323 399 319 406 q 298 366 310 368 l 296 366 l 296 368 q 311 406 307 404 m 235 152 q 247 174 244 164 q 261 165 253 169 q 250 152 257 163 l 277 152 q 307 153 292 152 l 307 140 q 276 142 292 142 l 243 142 q 234 130 238 136 q 222 118 229 124 l 255 118 q 254 134 255 128 l 269 134 q 268 118 268 128 l 282 118 q 309 119 297 118 l 309 106 q 282 107 297 107 l 268 107 l 268 90 l 307 90 q 327 91 317 90 l 327 79 q 308 80 317 80 l 268 80 l 268 68 q 269 50 268 58 l 253 50 q 255 68 255 58 l 255 80 l 212 80 q 191 79 199 80 l 191 91 q 212 90 201 90 l 255 90 l 255 107 l 229 107 q 210 105 220 107 q 205 119 207 114 q 229 142 213 123 q 210 140 218 142 l 210 153 q 235 152 219 152 m 323 186 q 322 172 322 178 q 323 158 322 165 l 309 158 l 309 175 l 208 175 l 208 155 l 195 155 q 195 170 195 163 q 195 186 195 177 l 323 186 m 366 173 l 366 50 l 354 50 q 355 76 355 64 l 355 155 q 354 183 355 167 l 408 183 q 399 156 402 165 q 392 136 396 147 q 404 115 401 123 q 406 99 407 106 q 401 85 406 92 q 378 76 396 79 q 372 90 376 84 q 388 92 383 90 q 394 100 393 94 q 390 116 395 106 q 379 135 386 125 q 392 173 384 145 l 366 173 m 446 189 q 444 172 444 181 q 445 148 444 163 q 452 118 446 134 q 465 91 458 102 q 478 73 472 80 q 491 62 485 66 q 481 52 485 58 q 459 78 471 61 q 439 123 448 94 q 430 93 435 103 q 418 71 426 83 q 398 50 410 60 q 387 60 394 56 q 412 82 403 70 q 425 110 420 95 q 430 138 429 124 q 431 163 431 152 q 430 190 431 176 q 446 189 440 189 z "}}}
